<svg width="2500" height="2500" viewBox="0 0 2500 2500" fill="none" xmlns="http://www.w3.org/2000/svg">
<g clip-path="url(#clip0_214_2561)">
<path d="M2500 1253C2500 1943.36 1940.36 2503 1250 2503C559.644 2503 0 1943.36 0 1253C0 562.644 559.644 3 1250 3C1940.36 3 2500 562.644 2500 1253Z" fill="#2D4A3B"/>
<path d="M783.78 1728.05C783.78 1728.05 704.448 1665.31 772.838 1598.63C781.81 1588.92 792.83 1581.33 805.099 1576.41C817.368 1571.49 830.578 1569.36 843.771 1570.18C856.964 1571 869.81 1574.74 881.377 1581.14C892.944 1587.54 902.941 1596.43 910.644 1607.17C923.981 1627.35 937.659 1673 906.712 1701.21C889.478 1714.49 869.515 1723.79 848.259 1728.43C827.002 1733.07 804.981 1732.94 783.78 1728.05Z" fill="#FFE6E1"/>
<path d="M807.002 1357.89C765.797 1328.99 736.218 1224.02 878.641 1201.28C878.641 1201.28 920.188 1194.27 931.644 1262.83C943.099 1331.39 909.588 1334.12 875.393 1351.73C841.197 1369.34 820.338 1367.81 807.002 1357.89Z" fill="#FFE6E1"/>
<path d="M739.812 985.149C727.413 976.357 718.753 963.244 715.534 948.389C713.912 925.377 720.392 902.523 733.851 883.787C747.309 865.051 766.899 851.613 789.224 845.803C877.79 822.893 918.995 867.859 931.305 906.671C943.615 945.482 926.689 982.926 875.396 1000.54C830.429 1015.75 782.385 1019.86 739.812 985.149Z" fill="#FFE6E1"/>
<path d="M1549.56 949.093C1513.31 946.016 1476.66 943.907 1439.62 942.767C1426.28 942.767 1412.95 945.332 1399.44 944.135C1351.91 940.545 1303.69 936.441 1255.65 934.902C1234.34 934.587 1213.03 935.73 1191.87 938.322C1164.38 943.624 1135.99 941.978 1109.29 933.535C1100.57 930.286 1101.94 914.043 1109.29 896.433C1116.65 878.822 1128.1 858.818 1143.49 854.202L1163.32 848.731C1169.87 847.384 1176.49 846.471 1183.16 845.995C1196.66 844.798 1210.17 843.943 1223.85 843.43C1251.59 842.364 1279.38 843.507 1306.94 846.85C1341.14 851.124 1375.33 843.088 1409.53 841.892C1447.14 841.892 1485.1 841.892 1523.06 843.601L1593.16 846.508C1628.72 847.876 1664.28 851.295 1700.02 852.321C1728.47 850.357 1757.01 850.014 1785.5 851.295C1792.14 851.575 1798.76 852.203 1805.34 853.176C1810.18 853.798 1814.85 855.428 1819.03 857.96C1823.21 860.493 1826.82 863.872 1829.61 867.88C1833.56 876.925 1833.92 887.128 1830.64 896.433C1829.44 902.246 1828.25 908.059 1826.54 913.53C1824.01 921.561 1819.58 928.863 1813.63 934.816C1807.67 940.769 1800.37 945.198 1792.34 947.726C1770.96 952.62 1749.24 955.935 1727.37 957.642C1716.77 957.642 1704.8 957.642 1693.18 957.642C1681.55 957.642 1670.27 956.445 1658.98 956.274L1605.64 953.539C1588.54 952.342 1569.56 951.658 1551.44 951.316L1549.56 949.093Z" fill="#FFE6E1"/>
<path d="M1513.82 1298.91C1478.43 1296 1442.35 1293.78 1406.28 1292.58C1393.28 1292.58 1380.29 1295.14 1366.95 1293.95C1320.28 1290.36 1273.09 1286.25 1226.07 1284.71C1205.16 1284.42 1184.26 1285.51 1163.49 1287.96C1136.51 1293.35 1108.6 1291.7 1082.45 1283.18C1073.9 1279.93 1075.27 1263.68 1082.45 1246.07C1089.63 1228.46 1100.91 1208.46 1115.45 1203.84L1134.25 1199.23C1140.75 1198 1147.32 1197.2 1153.92 1196.83C1167.08 1195.47 1180.25 1194.78 1193.75 1194.27C1220.93 1193.12 1248.15 1194.26 1275.14 1197.69C1308.14 1201.96 1341.65 1193.93 1375.16 1192.56C1412.09 1192.56 1449.36 1192.56 1486.46 1194.27L1554.86 1197.17C1589.05 1198.54 1624.61 1201.96 1659.83 1203.16C1687.91 1201.52 1716.05 1201.52 1744.13 1203.16C1750.65 1203.45 1757.16 1204.07 1763.62 1205.04C1788.07 1211.71 1794.05 1222.14 1788.07 1248.13C1786.7 1253.94 1785.67 1259.75 1783.79 1265.22C1781.28 1273.26 1776.85 1280.57 1770.9 1286.52C1764.94 1292.48 1757.63 1296.9 1749.6 1299.42C1728.66 1304.27 1707.41 1307.64 1685.99 1309.51C1675.56 1309.51 1664.11 1309.51 1653 1309.51C1641.88 1309.51 1630.6 1308.31 1618.8 1308.14L1567.51 1305.4C1550.41 1304.21 1532.29 1303.52 1514.33 1303.18L1513.82 1298.91Z" fill="#FFE6E1"/>
<path d="M1544.1 1683.26C1504.94 1680.35 1465.11 1677.96 1424.42 1676.76C1409.88 1676.76 1395.52 1679.33 1380.99 1678.13C1329.69 1674.37 1278.4 1670.43 1225.74 1668.72C1202.9 1668.5 1180.06 1669.65 1157.35 1672.14L1135.47 1674.88C1127.94 1674.88 1120.59 1674.88 1113.07 1674.88C1097.8 1674.67 1082.64 1672.2 1068.1 1667.53C1058.87 1664.28 1060.24 1648.04 1068.1 1630.43C1074.23 1612.02 1087.38 1596.78 1104.69 1588.02L1126.06 1582.55C1133.64 1581.28 1141.29 1580.48 1148.97 1580.16C1163.68 1578.79 1178.21 1578.11 1193.08 1577.59C1223.04 1576.38 1253.05 1577.47 1282.85 1580.84C1319.27 1585.12 1356.2 1577.08 1393.13 1575.88C1433.82 1575.88 1474.68 1575.88 1515.55 1577.77L1591.12 1580.5C1629.42 1581.87 1667.71 1585.29 1706.18 1585.97C1736.1 1585.97 1766.37 1581.19 1798.17 1584.6C1805.18 1584.6 1812.36 1584.6 1819.37 1586.49L1828.26 1588.71C1830.92 1589.76 1833.49 1591.01 1835.95 1592.47C1839.92 1594.6 1843.32 1597.65 1845.87 1601.36C1848.14 1605.79 1849.51 1610.62 1849.89 1615.58C1850.27 1620.55 1849.66 1625.53 1848.09 1630.26C1847.13 1636.03 1845.82 1641.74 1844.16 1647.35C1841.57 1655.6 1836.94 1663.06 1830.69 1669.04C1824.44 1675.02 1816.78 1679.32 1808.43 1681.55C1803.47 1681.55 1797.14 1683.77 1791.33 1684.8C1785.52 1685.82 1779.7 1686.85 1774.23 1687.53C1762.28 1689.85 1750.16 1691.22 1737.98 1691.64C1726.36 1691.64 1713.19 1691.64 1700.88 1691.64L1661.9 1690.61L1603.94 1687.87C1584.45 1686.85 1564.62 1686.16 1544.78 1685.82L1544.1 1683.26Z" fill="#FFE6E1"/>
<path d="M821.037 1047.05C795.956 1046.85 771.175 1041.56 748.195 1031.51C725.214 1021.46 704.51 1006.85 687.334 988.573C673.467 974.912 662.631 958.483 655.533 940.358C645.772 909.211 646.979 875.66 658.952 845.295C669.044 819.559 685.014 796.539 705.587 778.074C726.16 759.609 750.765 746.21 777.439 738.948C794.599 735.017 812.426 735.017 829.586 738.948C846.002 742.815 860.674 752.014 871.304 765.107C877.801 773.143 864.123 786.65 848.052 799.303C836.483 809.659 823.608 818.453 809.753 825.462C804.853 825.275 799.966 826.09 795.391 827.856C790.387 828.974 785.472 830.46 780.687 832.301C766.819 838.77 754.512 848.16 744.611 859.828C738.173 867.645 734.881 877.582 735.379 887.697C735.786 896.488 738.308 905.051 742.731 912.66C747.818 922.208 755.226 930.322 764.273 936.254C774.522 943.382 786.184 948.222 798.469 950.445C814.849 953.717 831.792 952.776 847.71 947.71C859.732 944.958 870.909 939.337 880.287 931.328C889.666 923.32 896.967 913.16 901.567 901.717C907.38 884.62 897.122 874.019 885.666 864.444C882.907 862.457 880.331 860.226 877.972 857.776C875.923 855.731 874.342 853.266 873.338 850.55C872.334 847.834 871.932 844.933 872.159 842.047C874.182 833.13 877.342 824.511 881.563 816.4C883.786 811.613 885.666 806.655 887.889 802.38C891.482 795.11 897.542 789.353 904.987 786.137C909.423 783.839 914.309 782.541 919.301 782.334C924.293 782.127 929.27 783.017 933.882 784.941C941.519 788.201 948.845 792.149 955.766 796.738C959.186 799.303 962.776 801.867 966.367 804.774C969.703 807.89 972.79 811.263 975.6 814.861C985.649 827.607 993.037 842.24 997.325 857.894C1001.61 873.548 1002.71 889.904 1000.56 905.992C999.27 916.803 996.509 927.387 992.355 937.451C985.484 955.625 975.408 972.419 962.605 987.034C944.578 1006.51 922.738 1022.07 898.443 1032.74C874.148 1043.42 847.917 1048.99 821.379 1049.1L821.037 1047.05Z" fill="#FFE6E1"/>
<path d="M847.011 1409.34C800.253 1413.18 753.773 1399.19 716.898 1370.19C710.059 1365.23 703.733 1359.93 697.236 1354.46C690.675 1348.58 684.925 1341.85 680.138 1334.45C663.483 1308.04 656.363 1276.73 659.963 1245.72C661.729 1231.05 666.07 1216.81 672.786 1203.66C679.442 1191.3 688.044 1180.1 698.262 1170.49C714.862 1154.56 734.364 1141.96 755.71 1133.38C780.739 1120.67 809.704 1118.1 836.581 1126.2C844.959 1129.45 841.198 1143.3 834.359 1156.3C827.52 1169.29 818.971 1185.53 810.08 1189.47C795.342 1195.09 781.861 1203.57 770.414 1214.43C766.22 1218.61 762.441 1223.19 759.129 1228.11C756.052 1232.72 752.974 1237.17 749.042 1242.3C746.935 1245.47 745.659 1249.12 745.33 1252.91C745.002 1256.71 745.631 1260.52 747.161 1264.01C750.37 1271.67 754.947 1278.68 760.668 1284.7C774.697 1302.03 794.944 1313.2 817.09 1315.82C831.838 1317.66 846.812 1315.84 860.689 1310.52C870.896 1306.67 880.249 1300.87 888.216 1293.42C891.443 1290.32 893.968 1286.56 895.619 1282.4C897.271 1278.24 898.011 1273.78 897.791 1269.31C897.079 1261.27 894.05 1253.61 889.071 1247.25C883.762 1240.11 877.685 1233.58 870.947 1227.76C868.212 1225.03 864.279 1223.15 861.715 1220.41C851.627 1209.98 853.679 1202.12 866.502 1181.6C869.58 1176.98 872.144 1172.03 875.222 1167.58C879.487 1160.01 886.474 1154.35 894.762 1151.75C903.05 1149.14 912.019 1149.79 919.847 1153.56C932.318 1159.96 943.55 1168.53 953.016 1178.86C963.315 1189.91 971.747 1202.55 977.978 1216.31C985.613 1233 989.633 1251.12 989.776 1269.48C990.148 1290.9 984.964 1312.05 974.73 1330.86C971.019 1337.77 966.729 1344.34 961.907 1350.52C957.119 1356.34 951.99 1361.3 946.861 1366.43C937.384 1374.86 927.072 1382.31 916.085 1388.65C894.616 1400.61 871.05 1408.33 846.669 1411.39L847.011 1409.34Z" fill="#FFE6E1"/>
<path d="M900.546 1744.12C878.029 1754.99 853.671 1761.54 828.736 1763.44C804.248 1765.73 779.547 1763.76 755.73 1757.62C736.619 1753.42 718.577 1745.33 702.727 1733.86C688.17 1722.24 676.472 1707.44 668.532 1690.6C660.842 1674.59 656.812 1657.07 656.735 1639.31C656.461 1623.2 658.77 1607.15 663.574 1591.78C668.142 1576.22 675.885 1561.79 686.313 1549.37C703.354 1528.23 724.911 1511.17 749.404 1499.45C763.836 1492.34 779.12 1487.11 794.883 1483.89C810.582 1482.36 826.423 1484.41 841.218 1489.87C850.45 1493.47 848.57 1505.6 841.218 1520.65C834.743 1536.54 825.543 1551.18 814.032 1563.91C804.458 1568.69 795.054 1571.6 787.702 1576.39C781.114 1580.27 774.928 1584.79 769.237 1589.9C764.75 1594.07 760.789 1598.78 757.439 1603.92C756.414 1605.11 755.901 1606.65 754.875 1608.02C753.442 1609.34 752.179 1610.83 751.113 1612.46C748.509 1616.02 746.221 1619.8 744.274 1623.75C742.14 1627.8 740.913 1632.27 740.677 1636.85C740.441 1641.42 741.201 1646 742.906 1650.25C747.012 1658.17 753.225 1664.79 760.859 1669.4C771.933 1676.56 784.514 1681.07 797.619 1682.56C812.225 1684.33 827.035 1683.23 841.218 1679.32C858.611 1674.94 874.391 1665.69 886.697 1652.64C895.624 1643.36 902.14 1632.03 905.676 1619.65C908.633 1606.27 907.194 1592.3 901.572 1579.81C897.203 1570.81 890.723 1563 882.685 1557.05C874.647 1551.09 865.289 1547.17 855.409 1545.61C851.818 1545.61 848.57 1545.61 845.834 1545.61C843.635 1546.28 841.277 1546.18 839.138 1545.34C836.999 1544.51 835.202 1542.98 834.037 1541C829.527 1535.58 825.304 1529.93 821.384 1524.07L814.032 1514.15C812.177 1511.42 811.047 1508.26 810.748 1504.97C810.449 1501.68 810.991 1498.37 812.323 1495.35C814.07 1490.83 816.429 1486.57 819.333 1482.69C823.428 1478.17 828.605 1474.76 834.379 1472.78C853.451 1468.14 873.48 1469.39 891.826 1476.37C909.283 1482.94 925.012 1493.41 937.819 1506.97C950.276 1519.88 960.193 1535.02 967.056 1551.6C970.475 1559.8 974.066 1568.69 977.143 1576.9C980.011 1586.08 981.902 1595.54 982.786 1605.11C983.646 1612.55 983.646 1620.07 982.786 1627.51C982.498 1635.37 981.293 1643.18 979.195 1650.76C975.719 1665.1 969.945 1678.79 962.097 1691.28C946.675 1714.26 925.906 1733.16 901.572 1746.34L900.546 1744.12Z" fill="#FFE6E1"/>
</g>
<defs>
<clipPath id="clip0_214_2561">
<rect width="2500" height="2500" fill="white"/>
</clipPath>
</defs>
</svg>
