<svg width="2500" height="2500" viewBox="0 0 2500 2500" fill="none" xmlns="http://www.w3.org/2000/svg">
<g clip-path="url(#clip0_186_2)">
<path d="M2500 1250C2500 1940.36 1940.36 2500 1250 2500C559.644 2500 0 1940.36 0 1250C0 559.644 559.644 0 1250 0C1940.36 0 2500 559.644 2500 1250Z" fill="#DFEEE8"/>
<path d="M443.789 1869V1849.96L466.635 1842.35C512.328 1827.12 535.174 1795.38 535.174 1747.15V728.589C535.174 703.204 530.097 684.165 519.943 671.473C509.789 657.511 492.02 647.357 466.635 641.011L441.885 635.3V616.261L790.291 534.395L813.137 551.53L805.522 818.07V1469.19C805.522 1516.15 805.522 1563.11 805.522 1610.08C806.791 1655.77 807.426 1701.46 807.426 1747.15C807.426 1772.54 812.503 1793.48 822.657 1809.98C832.81 1825.21 849.945 1836.63 874.061 1844.25L898.811 1849.96V1869H443.789ZM1454.99 1897.56C1368.68 1897.56 1289.99 1879.15 1218.91 1842.35C1149.1 1804.27 1093.26 1749.69 1051.37 1678.61C1010.76 1606.27 990.449 1518.06 990.449 1413.98C990.449 1311.17 1012.66 1223.59 1057.08 1151.25C1102.78 1077.63 1163.07 1021.78 1237.95 983.706C1314.1 944.359 1397.24 924.686 1487.36 924.686C1560.97 924.686 1623.16 936.744 1673.93 960.859C1724.7 984.975 1763.42 1016.71 1790.07 1056.05C1816.72 1094.13 1830.05 1134.11 1830.05 1176C1830.05 1211.53 1819.26 1239.46 1797.68 1259.77C1776.11 1278.8 1748.18 1288.32 1713.92 1288.32C1677.11 1288.32 1647.28 1275 1624.43 1248.34C1601.59 1221.69 1588.26 1186.78 1584.45 1143.63C1583.18 1115.71 1583.82 1092.23 1586.36 1073.19C1588.9 1052.88 1588.9 1032.57 1586.36 1012.26C1581.28 990.687 1573.03 976.725 1561.61 970.379C1551.45 962.763 1536.86 958.956 1517.82 958.956C1440.39 958.956 1380.11 992.59 1336.95 1059.86C1295.07 1127.13 1274.12 1234.38 1274.12 1381.61C1274.12 1509.81 1297.6 1608.17 1344.57 1676.71C1392.8 1743.98 1466.41 1777.61 1565.41 1777.61C1625.07 1777.61 1673.3 1766.83 1710.11 1745.25C1746.92 1723.67 1782.45 1691.31 1816.72 1648.15L1835.76 1663.38C1804.03 1738.27 1755.17 1796.02 1689.17 1836.63C1623.16 1877.25 1545.11 1897.56 1454.99 1897.56Z" fill="#4D5D56"/>
<circle cx="2075" cy="1762.5" r="125" fill="#FB4214"/>
</g>
<defs>
<clipPath id="clip0_186_2">
<rect width="2500" height="2500" fill="white"/>
</clipPath>
</defs>
</svg>
