<?xml version="1.0" encoding="UTF-8"?><svg id="Layer_1" xmlns="http://www.w3.org/2000/svg" width="128" height="128" viewBox="0 0 128 128"><defs><style>.cls-1{fill:#231f20;}.cls-1,.cls-2{stroke-width:0px;}.cls-2{fill:#242021;}</style></defs><path class="cls-1" d="M87.48,36.14c14.56,1.57,7.84-7.76,5.2-11.09l12.64,11.31-17.85-.22Z"/><path class="cls-1" d="M75.31,21.48l1.3.33c.43.11.86.23,1.3.25l2.62.31.97.1c.39.05,1.11.1,1.48.34.1.06.19.13.26.23l.11.28c.05.07.04.22.02.38l-.04.45c.31,1.74,1.05,3.55,1.77,5.31.38.92.82,1.81,1.25,2.7l.85,1.72c.23.6.46,1.2.53,1.88.04.42-.13.41-.5.19-.38-.21-.98-.6-1.38-1.21-1.14-2.29-2.29-4.63-3.15-7.16-.31-.97-.76-1.99-.95-3.08,0-.04-.02-.09-.01-.13,0-.04.05-.11-.01-.12-.09-.02-.18-.04-.27-.05l-.24-.03-.32-.04-.65-.07-1.3-.13c-.87-.08-1.74-.18-2.62-.15-1.08.03-2.16-.11-3.24-.18-1.63-.1-3.27-.27-4.9-.33-1.26-.05-2.51.06-3.76.09-.28,0-.55.02-.82.01-1.03-.04-1.35-.23-1.54-.83-.04-.14-.1-.27-.12-.41-.07-.46.36-.81,1.12-.94,2.26-.41,4.61-.33,6.98-.25,1.76.07,3.51.32,5.27.48v.06Z"/><path class="cls-1" d="M34.24,107.28c.14,1.06.3,2.12.5,3.17.1.52.2,1.04.32,1.54.04.23.16.54.2.68.03.1.04.15.06.22.02.12.14.11.24.06.04,0,.03-.02.1-.03l.3-.02.59-.03c2.8-.1,5.6-.21,8.39-.31,1.24-.05,2.48-.17,3.71-.29l1.18-.13c.4-.03.79-.04,1.19-.05.79-.03,1.59-.01,2.41.14.51.09.46.23.08.55-.19.16-.46.38-.8.63-.34.22-.74.4-1.19.51l-1.19.27c-.4.09-.81.1-1.21.15l-2.43.22c-1.62.13-3.25.2-4.9.2-1.96,0-3.98.29-5.98.43-.43.03-.91.1-1.3,0-.1-.02-.21-.01-.3-.05-.08-.08-.15-.16-.22-.23-.14-.15-.25-.34-.37-.51-.16-.42-.3-.89-.38-1.22l-.19-.84c-.25-1.11-.45-2.2-.62-3.3-.21-1.35-.38-2.7-.54-4.06-.24-2.05-.39-4.11-.56-6.15-.13-1.59-.35-3.14-.34-4.73,0-.35-.02-.69,0-1.04.04-1.31.36-1.71.74-1.96.09-.06.18-.13.27-.16.28-.1.5.44.69,1.37.14,1.37.38,2.77.52,4.19.11,1.43.23,2.87.34,4.31.19,2.15.41,4.31.74,6.45h-.05Z"/><path class="cls-1" d="M52.59,73.18c-.54,2.25-.71,4.59-.52,6.92.06.85.26,1.68.4,2.52.6,2.93,1.76,5.78,3.56,8.26.39.56.84,1.07,1.29,1.58.23.25.48.48.72.72.23.25.46.5.71.73.62.61,1.3,1.17,1.96,1.75.34.28.65.61.97.92.32.31.67.59,1,.89.42.38.32.39-.17.29-.48-.12-1.44-.26-2.46-.67-.84-.45-1.64-.97-2.41-1.54-.81-.53-1.51-1.2-2.13-1.94-1.29-1.44-2.39-3.07-3.2-4.84-.95-2.12-1.82-4.38-2.2-6.72-.42-2.56-.4-5.17.06-7.7.26-1.56.71-3.09,1.29-4.55.88-2.22,2.09-4.29,3.53-6.15,1.1-1.46,2.29-2.82,3.66-4.03.29-.28.59-.54.91-.78.59-.47,1.05-.68,1.39-.78.35-.1.59-.07.85.04.12.05.25.09.34.16.29.22-.05.8-.81,1.5-2.26,2.05-4.48,4.29-6.1,6.99-1.23,1.97-2.11,4.16-2.6,6.44h-.05Z"/><path class="cls-1" d="M88.99,92.88c1.62-1.24,2.97-2.84,4.17-4.58.41-.64.76-1.29,1.09-1.97,1.21-2.36,1.89-5.04,2.05-7.77.08-1.21,0-2.44-.14-3.64-.07-.77-.19-1.55-.32-2.32-.16-.76-.15-1.56-.27-2.35-.05-.49.08-.47.39-.12.28.36.9,1.01,1.2,1.91.22.8.41,1.62.55,2.45.14.83.19,1.67.21,2.51.04,1.68-.09,3.38-.47,5.04-.45,1.97-.97,4.06-1.99,5.9-.59,1.01-1.19,1.95-1.9,2.84-.68.9-1.45,1.75-2.28,2.54-1.01.98-2.16,1.81-3.37,2.51-1.84,1.07-3.86,1.78-5.89,2.22-1.58.34-3.14.67-4.73.77-.35.01-.69.04-1.05.04-1.31-.05-1.72-.21-1.99-.55-.06-.08-.14-.16-.17-.23-.11-.24.42-.49,1.34-.63.69-.08,1.37-.25,2.06-.37.69-.07,1.37-.23,2.06-.33,1.36-.28,2.73-.58,4.03-1.04,1.95-.62,3.79-1.56,5.37-2.86l.03.03Z"/><path class="cls-2" d="M89.88,96.48c.16.23.28.48.46.69,1.72,2.01,3.54,3.94,5.27,5.96l5.22,6.04,5.23,6.07,2.63,3.04c.94.96,1.85,1.95,2.83,2.87l.69.53c.92.49,2.09-.55,1.73-1.51l-.43-.75c-.77-1.09-1.6-2.13-2.39-3.21l-2.54-3.09-5.08-6.2c-1.69-2.07-3.42-4.13-5.2-6.14-1.79-2-3.53-4.06-5.46-5.96-.2-.2-.45-.34-.67-.52-.85-.54-2.77,1.31-2.3,2.17Z"/><path class="cls-1" d="M73.19,20.91c2.77-.08,5.53-.16,8.31-.19l.76-.02c.31,0,.61.02.9.06.56.12,1.14.12,1.37.67.36.4.5,1.07.68,1.66l.3,1.14,1.03,4.04c.53,1.95,1.13,3.89,1.67,5.82l.21.75.07.26c.02.07.03.14.06.21.06.02.13,0,.2,0h.16s.51-.03.51-.03l1.17-.04c.39.02.78-.09,1.17-.12.39-.06.78-.02,1.17-.02,1.56.02,3.11.12,4.65.31.77.09,1.54.19,2.3.29l.41.06.24.04.49.09,1.05.2c.18.03.37.07.56.1.16.04.04-.08,0-.13l-.14-.2c-.12-.18-.28-.35-.43-.53-.19-.22-.42-.47-.65-.69-.27-.26-.35-.33-.96-.87-1-.87-2-1.75-2.99-2.61-1.51-1.35-3.09-2.67-4.47-4.23-.34-.39-.67-.79-.99-1.21-.31-.42-.65-.81-.9-1.28-.28-.44-.55-.89-.79-1.36-.25-.46-.49-.92-.69-1.4-.51-1.2-.26-1.1.59-.38.41.37,1.05.84,1.77,1.39.77.52,1.62,1.14,2.45,1.87.93.74,1.77,1.56,2.68,2.35.9.79,1.83,1.57,2.77,2.35.95.78,1.88,1.6,2.79,2.48l.43.41c.22.2.43.42.63.63l1.19,1.26c.19.21.41.42.58.62l.48.6.97,1.2c.12.41.3.86.38,1.24-.09.27-.14.53-.25.82-.14.2-.26.35-.54.5-.13.08-.33.12-.53.18-.19.06-.43.11-.74.11-.62,0-1.46-.17-2.21-.28l-2.28-.34-2.87-.39c-1.55-.19-3.12-.3-4.7-.37l-1.19-.02c-.4-.04-.8-.11-1.19-.12l-1.19.06-.63.04-1.03.09c-.18,0-.38.01-.54-.02l-.45-.13-.06-.02h0s0,0,0,0c-.1.15.13-.21.11-.17h0s-.01,0-.01,0l-.03-.02-.09-.06-.18-.13c-.13-.08-.23-.22-.35-.33-.3-.63-.54-1.57-.64-1.87-.25-.89-.5-1.77-.75-2.66-.72-2.7-1.46-5.41-2.24-8.07l-.18-.63c-.05-.12-.04-.31-.16-.37h-.42s-.11,0-.11,0h-.23s-.52.04-.52.04c-1.39.08-2.79.17-4.19.22-3.44.14-6.89.25-10.34.33-5.22.13-10.47.13-15.66.08-4.04-.04-8.01.02-12.06-.31-.89-.06-1.77-.14-2.67-.26-3.35-.53-4.41-1.25-4.76-2.33-.08-.24-.2-.5-.2-.71,0-.35.36-.53.95-.57.29,0,.67-.01,1.11,0,.43.03.93.09,1.49.17,3.35.46,6.93.61,10.57.74,3.64.12,7.36.17,11.09.17,5.54,0,11.13-.08,16.7-.28v.08Z"/><path class="cls-1" d="M106.15,65.07c-.08,3.05-.09,6.11-.03,9.18l.15,3.35c.09,3.95.11,7.92.13,11.89.04,1.76.08,3.53.12,5.28,0,1.12,0,2.25,0,3.38.02,1.13-.24,2.26-.49,3.37-.17.7-.28.6-.57,0-.26-.6-1-1.69-1.1-2.97-.38-4.53-.55-9.05-.51-13.66,0-2.76-.24-5.62-.35-8.44-.09-3.11-.16-6.22-.13-9.35,0-1.92.07-3.84.11-5.76.1-2.91.3-5.82.51-8.71.12-2.25.24-4.45.36-6.68.03-.49.06-.97.14-1.46.26-1.82.61-2.35,1.35-2.62.17-.06.35-.15.51-.17.55-.08.89.73.91,2.06-.08,3.93-.48,7.98-.7,12.09-.2,3.04-.3,6.12-.34,9.19h-.07Z"/><path class="cls-1" d="M32.93,85.36c.16,8.09.26,16.21.65,24.25.04.73.09,1.46.18,2.18l.14,1.07.08.58c.03.14.03.44.26.33l1.3-.17c10.38-1.28,20.8-2.24,31.26-2.59,4.64-.16,9.31-.28,13.94-.18,2.97.08,5.96.15,8.93.57,2.96.41,5.97.97,8.73,2.3,1.61,1.09,1.34.96-.31,1-1.65.04-4.47.11-7.75-.21-11.68-1.12-23.69-.47-35.73.15-3.61.2-7.28.56-10.96,1-1.84.23-3.69.47-5.53.7l-2.76.37-.87.12c-.39.06-.76.08-1.14.12-.4.08-.69-.04-1.01-.09-.13-.04-.29-.11-.4-.24-.12-.11-.21-.24-.29-.38-.38-.6-.49-1.53-.57-2.35l-.05-.51-.03-.39-.05-.78-.16-3.09c-.1-2.05-.17-4.1-.23-6.14l-.28-12.26c-.09-5.02-.19-10.05-.28-15.07-.16-7.61-.29-15.25-.61-22.79-.25-5.86-.68-11.6-1.13-17.38-.11-1.27-.21-2.51-.32-3.8-.35-4.75-.34-6.26.35-7.35.14-.25.27-.57.41-.71.42-.5,1.22,1.39,1.6,4.89,1.21,10.36,1.68,21.31,2.03,32.3.28,8.16.45,16.36.65,24.53h-.07Z"/><path class="cls-1" d="M59.51,117.63c2.66-.05,5.32-.09,7.98-.08.97,0,1.94-.07,2.91-.05,3.42.06,6.84.27,10.25.48,1.51.08,3.03.16,4.54.2,1.93.11,3.88.16,5.76.78.59.17.5.28-.03.49-.34.13-.72.28-1.09.42-.22.08-.47.18-.72.23-.25.04-.52.07-.8.07-1.96.09-3.91-.02-5.86-.11-1.95-.08-3.91-.19-5.88-.31-2.36-.17-4.81,0-7.23-.01-2.66.01-5.31.04-7.97.11-1.64.04-3.27.09-4.91.17-2.48.12-4.97.23-7.42.46-1.91.18-3.76.5-5.64.78-.41.06-.82.1-1.24.13-1.56.09-2.07-.04-2.45-.52-.09-.11-.2-.22-.25-.33-.19-.37.42-.76,1.54-1.07.83-.2,1.67-.49,2.53-.61.86-.14,1.73-.26,2.61-.37,1.76-.21,3.55-.37,5.34-.5,2.67-.19,5.35-.3,8.03-.41v.06Z"/><path class="cls-1" d="M82.74,99.59c-1.83.5-3.71.65-5.56.71-.46,0-.93.08-1.39.03l-1.4-.11-1.39-.11c-.46-.04-.92-.17-1.38-.26-3.67-.69-7.19-2.25-10.13-4.56-1.01-.91-2.11-1.73-2.97-2.78-.97-.96-1.72-2.1-2.48-3.22-2.53-4.07-3.69-8.88-3.56-13.58.1-4.73,1.67-9.33,4.3-13.23,1.26-1.66,2.61-3.28,4.27-4.56,1.63-1.29,3.42-2.4,5.33-3.17,2.43-1.03,5.02-1.73,7.65-1.92l1.97-.07c.66.01,1.31.06,1.96.1.66,0,1.3.21,1.93.38.64.15,1.26.34,1.88.54,1.53.52,1.28.56-.09.72-.36.05-.77.11-1.22.17-.47.12-1,.23-1.56.41-.56.14-1.15.2-1.78.3-.31.04-.63.08-.96.1-.33.05-.66.1-1,.14-2.4.3-4.74.82-6.93,1.69-2.21.86-4.19,2.15-5.94,3.66-3.5,3.04-5.89,7.45-6.69,12.25-1.13,5.75.8,12.11,4.56,16.69,2.07,2.54,4.76,4.57,7.8,5.85,3.04,1.29,6.41,1.73,9.74,1.52,4.11-.14,8.14-1.55,11.32-4.09,4.87-3.85,7.47-10.27,7.31-16.48-.05-2.42-.5-4.8-1.34-7.01-.85-2.21-2.03-4.25-3.47-6.08-.63-.81-1.35-1.52-2.09-2.23-1.39-1.32-2.42-2.06-3.1-2.68-.33-.34-.59-.6-.8-.84-.21-.24-.37-.48-.5-.7-.12-.2-.31-.42-.38-.56-.11-.24.23-.24,1.03-.13.8.09,2.01.45,3.39,1.26,4.09,2.39,7.53,6.47,9.08,11.29,1.63,4.79,1.76,10.11.36,15.07-.5,1.85-1.26,3.63-2.22,5.31-.95,1.68-2.12,3.25-3.51,4.62-1.38,1.37-2.92,2.59-4.63,3.51-1.69.95-3.5,1.68-5.36,2.13l-.03-.07Z"/><path class="cls-1" d="M44.93,31.28l4.04.06c.49,0,.98-.06,1.47-.05,1.74.03,3.48.09,5.22.09.77.01,1.55,0,2.31-.04.98-.1,1.98,0,2.97.2.31.07.27.23.02.47-.25.23-.71.63-1.26.82-1.97.51-3.96.63-6,.5-1.21-.08-2.46.11-3.7.16-1.36.06-2.72.08-4.09.08h-2.52c-1.27.03-2.55,0-3.82.04-.99.03-1.96.2-2.98.23-.22.01-.44.04-.69.02-.84-.12-1.22-.47-1.17-1.05,0-.13,0-.27.03-.39.13-.41.5-.69.96-.81,1.57-.32,3.36-.32,5.15-.36,1.34-.01,2.7-.02,4.05-.03v.06Z"/><path class="cls-1" d="M41.98,40.78c.96.06,1.94.11,2.91.14.36.01.71-.03,1.06-.02l1.89.1c.63.06,1.26.12,1.89.18.56.05,1.12.11,1.68.16.71.07,1.43.19,2.12.43.21.07.17.12-.03.18-.2.07-.55.18-.95.25-.71.12-1.41.23-2.12.35-.71.12-1.42.09-2.14.08-.86-.05-1.76.06-2.65.11l-2.94.06h-1.82c-.92.02-1.85-.02-2.77,0-.72.03-1.45.09-2.21.04-.17-.02-.36-.03-.53-.09-.16-.05-.29-.11-.39-.17-.12-.08-.2-.17-.26-.26-.11-.17-.12-.36-.05-.59.03-.11.06-.21.1-.31.16-.3.54-.49.8-.56.3-.08.54-.13.82-.16.3-.05.56-.07.87-.1.3-.06.6-.03.9-.02l.94.03c.95.04,1.92.07,2.87.11v.05Z"/><path class="cls-1" d="M39.62,46.54c.55.08,1.1.13,1.66.19.2.03.41,0,.61.03.73.11,1.46.23,2.19.3.33.03.65.04.97.03.42,0,.83-.05,1.29.15.14.06.08.3-.05.56-.13.26-.29.55-.52.62-.38.1-.79.2-1.2.27-.41.06-.83.03-1.25-.02-.51-.08-1.03.07-1.54.1-.57.04-1.15-.01-1.72-.03-.36-.02-.71-.04-1.07-.06-.54-.02-1.08-.1-1.63-.09-.22,0-.43.03-.66.06-.23.02-.47.04-.72.04-.12-.01-.24-.01-.36-.04-.11-.03-.19-.06-.27-.11-.09-.07-.15-.15-.18-.23-.06-.17-.01-.36.14-.61.07-.12.14-.23.22-.33.29-.34.63-.61.67-.74.45-.3,1.13-.3,1.82-.25.53.04,1.07.08,1.61.12v.05Z"/><path class="cls-2" d="M62.5,70.73h.6c.97.05,1.93,0,2.89-.03l2.9-.08c1.93-.04,3.86-.06,5.8-.06l5.81-.1c1.94-.03,3.88-.01,5.83-.5l.62-.15c.71-.23.71-.79.01-1.04l-.61-.16c-1.93-.53-3.88-.57-5.82-.64l-5.84-.18c-1.95,0-3.9,0-5.85.02l-2.93.06c-.98.02-1.95.04-2.93.16l-.6.06c-.7.14-.58,2.56.12,2.64Z"/><path class="cls-2" d="M66.4,77.85l.43.02c1.38.03,2.76-.09,4.14-.13,1.38-.07,2.76-.1,4.14-.2l4.13-.32c1.38-.04,2.74-.37,4.1-.77l.43-.1c.49-.15.47-.42-.03-.53l-.44-.07c-1.39-.3-2.78-.53-4.15-.48l-4.12-.03c-1.37,0-2.74.06-4.11.09-1.37.06-2.74.03-4.11.16l-.42.05c-.5.08-.46,2.24.04,2.29Z"/><path class="cls-2" d="M69.65,85.87h.22c1.45.03,2.89-.14,4.34-.2.72-.02,1.44-.14,2.16-.22.72-.09,1.44-.14,2.16-.38.08-.02.15-.04.23-.09.25-.21.23-.76-.04-.95-.08-.05-.16-.06-.23-.07-.73-.18-1.46-.17-2.18-.2-.72-.02-1.45-.07-2.17-.03-1.45.07-2.9.03-4.34.18l-.22.02c-.26.03-.18,1.94.08,1.94Z"/><path class="cls-1" d="M30.27,15.51c.12.14-.08.3-.44.48-.11.06-.47.11-.53.07-.12-.07-.24-.14-.34-.21-.05-.05-.51-.82-.72-1.07-.18-.25-.34-.5-.38-.77-.13-.54-.3-1.08-.45-1.61-.03-.12-.04-.24-.03-.37.05-.45-.05-.86-.22-1.25-.03-.07-.03-.14-.14-.18-.16-.07-.53-1.14-.51-1.3.06-.39,0-.76.06-1.16,0-.06-.04-.1.05-.18.21-.19.13-.28.12-.4-.02-.16-.03-.32,0-.5.01-.09.11-.21.18-.32.06-.1.4-.2.44-.19.13.03.26-.09.39-.15.04-.02.1-.05.14-.06.07-.03,1.07.64,1.12.74.07,0,.68,1.32.74,1.47.05.07.01.17,0,.27,0,.04.47,1.09.47,1.14.03.24.16.44,0,.72-.03.05,0,.1,0,.14.12.38.12.79.14,1.2.01.21.08.4.11.6,0,.04-.02.08-.02.12,0,.05-.03.1-.02.14.1.47.1.96.17,1.43.02.11-.17.68-.14.8.01.07-.25.35-.2.4Z"/><path class="cls-1" d="M25.54,19.73c.2-.08.3.23.36.61.02.12-.05.45-.12.5-.12.09-.24.2-.37.28-.07.03-1.1.16-1.46.26-.34.08-.68.1-1.01.1-.68.03-1.33-.04-2-.07-.15,0-.29-.05-.43-.11-.48-.22-.99-.27-1.5-.26-.09,0-.17-.02-.26.07-.08.07-.46.1-.84.07-.38-.04-.76-.11-.85-.16-.42-.25-.85-.42-1.27-.62-.06-.03-.13,0-.18-.12-.11-.28-.25-.25-.38-.29-.19-.05-.37-.12-.55-.23-.09-.06-.17-.22-.25-.35-.07-.12.01-.5.04-.54.1-.11.05-.3.05-.47,0-.05,0-.13.01-.17.02-.1,1.19-.7,1.31-.68.01,0,.43-.02.87-.04.44-.02.9-.05.99-.07.1-.02.19.05.28.1.05,0,1.36-.03,1.41,0,.26.08.54.03.78.3.05.05.1.05.16.06.46.04.91.21,1.36.35.23.07.47.09.7.13.04,0,.08.05.12.07.05.03.1.07.15.08.55.11,1.08.38,1.64.45.13.02.69.4.84.41.08.01.3.36.38.33Z"/><path class="cls-1" d="M16.49,29.37c-.1.11-.25-.04-.41-.33-.05-.09-.12-.4-.1-.45.04-.1.08-.21.13-.29.03-.04.58-.43.75-.61.17-.16.34-.27.52-.36.37-.2.72-.44,1.05-.67.08-.05.16-.09.26-.09.34-.02.62-.17.86-.38.04-.03.09-.05.1-.15.01-.15.69-.64.81-.66.3-.04.57-.13.86-.2.04,0,.05-.06.14,0,.2.13.25.04.32,0,.11-.06.22-.11.36-.13.07-.01.2.05.32.09.1.04.31.32.32.37.03.12.17.22.27.32.03.04.08.09.1.12.06.07-.17,1.01-.25,1.06,0,0-.22.21-.44.43-.22.2-.45.42-.52.48-.05.05-.13.05-.21.06-.03.01-.75.61-.79.62-.18.07-.32.22-.58.14-.05-.02-.08.01-.11.03-.28.17-.62.23-.95.29-.17.03-.32.1-.48.15-.03,0-.07,0-.1,0-.04,0-.09-.01-.12,0-.37.13-.78.15-1.13.3-.08.03-.55-.04-.64,0-.05.02-.3-.16-.34-.11Z"/></svg>