<svg width="96" height="96" viewBox="0 0 96 96" fill="none" xmlns="http://www.w3.org/2000/svg">
<path d="M48.4707 45.0905C45.4282 44.9226 42.351 44.8756 39.2608 44.9414C38.1146 44.9188 37.0132 45.0937 35.8806 45.0882C31.8861 45.1073 27.865 45.222 23.8626 45.5364C22.0783 45.638 20.2992 45.8753 18.5463 46.1105C17.4222 46.2568 16.3002 46.4761 15.1684 46.5539C14.0366 46.6317 12.8675 46.6273 11.7076 46.5875C10.9789 46.5505 11.036 46.2348 11.5853 45.7521C12.3949 44.9939 13.3326 44.3854 14.3547 43.9547C14.6311 43.8566 14.9099 43.7379 15.1897 43.6557L16.0106 43.4329L17.7117 43.0151C18.8499 42.7457 19.987 42.4865 21.1364 42.2548C23.437 41.7742 25.7725 41.4794 28.1203 41.3734C30.9484 41.2359 33.815 40.5829 36.7246 40.3248C38.3141 40.1541 39.909 40.0723 41.5094 40.0328C43.1098 39.9932 44.7091 39.9639 46.3002 39.9597C48.2742 39.9718 50.2518 40.0276 52.2331 40.1271C55.2278 40.2583 58.2126 40.6118 61.2043 40.9505C63.5516 41.1589 65.8846 41.5053 68.1912 41.9877C68.7145 42.0773 69.2241 42.2337 69.7076 42.4531C71.5051 43.3667 71.8787 44.0959 71.7514 45.2041C71.7366 45.4555 71.7009 45.7053 71.6447 45.9508C71.4217 46.7153 70.4385 46.9921 69.1293 46.9404C68.6309 46.9351 68.1713 46.9082 67.6648 46.928C67.1873 46.9188 66.7111 46.8762 66.2395 46.8005C65.2886 46.7068 64.3561 46.5892 63.388 46.5091C62.4199 46.429 61.4357 46.399 60.4839 46.222L59.0247 46.0283L57.5311 45.8617C54.5793 45.538 51.5359 45.2869 48.4702 45.2308L48.4707 45.0905Z" fill="currentColor"/>
<path d="M74.0369 50.1505C75.2919 49.2592 76.3407 48.1087 77.1123 46.7768C77.3477 46.3324 77.4472 45.8287 77.3984 45.3282C77.3257 45.2367 77.3559 45.1102 77.3051 44.964L77.0766 44.4647C76.8933 44.1115 76.6858 43.7715 76.4554 43.4471C75.6736 42.4381 74.7929 41.5097 73.8266 40.6757C72.0445 39.0606 70.1293 37.5988 68.1013 36.3059C66.041 34.9734 63.912 33.75 61.7233 32.6409C59.7662 31.6673 57.7599 30.7609 55.7568 29.9172C54.4665 29.3842 53.1624 28.8808 51.8333 28.3693C50.5041 27.8578 49.1953 27.3955 47.893 27.0118C47.0851 26.8046 47.1873 26.6396 47.9692 26.4852C49.2649 26.3363 50.5763 26.401 51.8511 26.6767C54.702 27.3157 57.5112 28.1282 60.263 29.1097C62.9981 30.2208 65.6464 31.5348 68.1856 33.0407C69.7037 33.943 71.2698 34.8352 72.8208 35.814C74.4152 36.7819 75.9196 37.8908 77.3159 39.1275C78.1103 39.8467 78.8425 40.6317 79.5049 41.4741C80.2647 42.4266 80.8197 43.5256 81.1351 44.7025C81.184 45.046 81.2489 45.3862 81.2624 45.7204C81.276 46.0547 81.2371 46.3933 81.1959 46.7057C81.1548 47.018 81.0612 47.3348 81.0008 47.6345C80.9132 47.928 80.8089 48.2163 80.6884 48.4979C80.2346 49.5402 79.6256 50.5077 78.8822 51.3677C77.194 53.2768 75.2442 54.9375 73.0908 56.3005C69.9633 58.2992 66.6984 60.0744 63.3206 61.6128C60.7779 62.9223 58.1639 64.0883 55.4907 65.1053C54.8888 65.322 54.3005 65.5558 53.6577 65.7211C52.8119 65.9972 51.9132 66.0719 51.0334 65.9392C50.7458 65.8663 50.4798 65.7252 50.2582 65.5278C50.0366 65.3304 49.8658 65.0825 49.7603 64.8052C49.6255 64.5445 49.5176 64.2709 49.4383 63.9884C49.3977 63.7589 49.4149 63.5229 49.4885 63.3017C49.562 63.0805 49.6895 62.8812 49.8594 62.7216C50.3029 62.2982 50.833 61.976 51.4131 61.7774C53.5424 60.9358 55.7374 59.9301 57.9564 58.896C60.1754 57.8619 62.4956 56.8967 64.715 55.769C68.0087 54.235 71.1124 52.3221 73.9631 50.0692L74.0369 50.1505Z" fill="currentColor"/>
</svg>
