<?xml version="1.0" encoding="UTF-8"?><svg id="Layer_1" xmlns="http://www.w3.org/2000/svg" width="128" height="128" viewBox="0 0 128 128"><defs><style>.cls-1{fill:#231f20;stroke-width:0px;}</style></defs><path class="cls-1" d="M9.14,38.29c.33-1.46.66-2.9,1.29-4.41.24-.56.43-1.06.73-1.55.99-1.74,2.53-3.25,4.33-4.16.8-.39,1.6-.79,2.46-.96,1.08-.25,2.2-.32,3.27-.18.34.04.29.16.02.35-.27.18-.75.5-1.3.71-.49.18-.96.38-1.41.61-.23.1-.43.25-.65.34-.23.07-.44.19-.66.28-.86.4-1.65.9-2.4,1.52-.88.76-1.55,1.84-2.11,2.95-.64,1.17-1.01,2.51-1.34,3.92-.2.86-.38,1.73-.52,2.61-.22,1.33-.43,2.68-.53,4.02-.06,1.04-.03,2.07-.02,3.1,0,.23.02.45.01.67-.02.84-.16,1.09-.64,1.28-.11.04-.22.1-.33.12-.37.09-.68-.27-.8-.92-.35-1.91-.36-3.91-.12-5.89.15-1.48.39-2.95.66-4.43h.05Z"/><path class="cls-1" d="M99.44,87.51c.23-1,.42-2.01.57-3.04.05-.37.06-.75.11-1.13.2-1.32.33-2.66.51-4,.08-.59.09-1.19.15-1.79.08-.76.04-1.53.33-2.29.09-.24.09-.21.21,0,.06.1.16.24.29.42.11.17.18.38.23.6.33,1.56.52,3.14.19,4.72-.17.94-.14,1.93-.24,2.9-.11,1.06-.26,2.13-.44,3.19-.11.65-.25,1.3-.38,1.95-.22.98-.54,1.95-.87,2.91-.26.74-.48,1.51-.95,2.23-.11.16-.19.32-.34.47-.51.55-.85.56-1.15.29-.07-.06-.15-.12-.2-.19-.18-.26-.09-.55.09-.85.56-.9.9-2.15,1.21-3.44.11-.48.21-.97.3-1.47.12-.49.23-.99.33-1.5h.05Z"/><path class="cls-1" d="M101.47,31.69c.29.92.47,1.84.58,2.74.03.33.13.65.15.98.07,1.16.03,2.3,0,3.42-.04.5-.03,1-.04,1.49,0,.32,0,.63,0,.95-.04.32-.13.63-.22.94-.07.2-.22.17-.42,0-.2-.17-.51-.47-.64-.83-.19-1.27-.33-2.51-.18-3.78.06-.76-.11-1.53-.22-2.28-.13-.82-.26-1.65-.52-2.42-.06-.25-.15-.48-.25-.71-.1-.23-.18-.47-.31-.68-.33-.67-.77-1.28-1.35-1.73-.46-.33-1-.49-1.53-.6-.11-.04-.23-.04-.35-.05-.44-.07-.54-.23-.55-.75,0-.12-.01-.24,0-.36.01-.4.28-.66.72-.67,1.3-.05,2.71.65,3.66,1.71.7.79,1.2,1.69,1.53,2.61l-.04.02Z"/><path class="cls-1" d="M52.55,25.65c-.17-1.1-.45-5.17,1.09-5.75.39-.15,2.87,5.05,2.45,5.05s-3.53.7-3.53.7Z"/><path class="cls-1" d="M67.75,38.39c.42-.41,2.42-2.53,3.25-1.26s0,2.82,0,2.82l-3.25-1.57Z"/><path class="cls-1" d="M69.87,58.61c.43-.76.86-1.53,1.29-2.29.15-.29.29-.56.44-.85.55-.98,1.18-1.93,1.73-2.91.25-.43.47-.88.71-1.32.31-.56.63-1.11,1-1.64.11-.16.15-.12.15.07,0,.18-.02.52-.12.88-.33,1.28-.94,2.43-1.57,3.58-.39.68-.69,1.44-1.07,2.15l-1.25,2.33-.77,1.44c-.38.73-.78,1.45-1.12,2.19-.26.58-.47,1.16-.72,1.74-.05.13-.1.26-.16.38-.22.46-.37.58-.68.55-.07,0-.14,0-.21-.02-.22-.05-.29-.32-.19-.7.15-.55.33-1.1.54-1.65.22-.54.49-1.07.75-1.6.41-.78.82-1.56,1.24-2.34h.03Z"/><path class="cls-1" d="M79.52,75.74c.58-.82,1.15-1.65,1.7-2.5.19-.31.39-.62.58-.94.72-1.08,1.4-2.19,2.04-3.33.27-.51.54-1.02.78-1.54.31-.67.67-1.31,1.05-1.95.12-.2.16-.15.16.07,0,.21-.01.6-.12,1.02-.19.75-.49,1.44-.81,2.13-.32.69-.67,1.37-1.05,2.03-.46.79-.85,1.66-1.3,2.48-.5.9-1.05,1.77-1.61,2.63l-1.06,1.58c-.54.79-1.12,1.56-1.69,2.34-.43.6-.83,1.22-1.29,1.81-.1.13-.19.26-.3.39-.42.46-.63.53-.95.38-.07-.03-.15-.06-.22-.11-.22-.15-.2-.48.04-.83.7-1.06,1.45-2.15,2.27-3.22.6-.8,1.2-1.62,1.77-2.45l.03.02Z"/><path class="cls-1" d="M43.55,103.78l-1.86,3.31c-.22.41-.4.83-.64,1.23-.86,1.39-1.73,2.79-2.59,4.18-.38.62-.72,1.26-1.07,1.89-.47.79-.78,1.69-1.61,2.27-.3.15-.36.07-.52-.3-.08-.19-.15-.42-.21-.7-.03-.13-.07-.28-.06-.42.01-.13.04-.26.09-.38.36-.86.72-1.7,1.11-2.54.43-.82.88-1.62,1.39-2.41.62-.94.98-2.06,1.46-3.1.53-1.14,1.13-2.26,1.69-3.4l1.05-2.1c.52-1.07,1.09-2.12,1.55-3.2.36-.84.57-1.75.85-2.63.06-.19.1-.4.18-.58.28-.7.61-.8,1.39-.57.17.05.35.09.5.15.5.19.91.75.81,1.3-.28,1.64-.98,3.13-1.72,4.65-.55,1.12-1.16,2.23-1.74,3.36l-.06-.03Z"/><path class="cls-1" d="M57.9,102.51c-.09,1.07-.18,2.15-.24,3.22-.02.39.04.78,0,1.17-.11,1.38-.22,2.77-.37,4.16-.05.61-.04,1.23-.02,1.84.04.78-.04,1.57-.27,2.36-.08.25-.34.22-.66.02-.32-.2-.77-.56-.93-1-.32-.78-.39-1.57-.45-2.36-.06-.79-.09-1.58.02-2.39.14-.96-.05-1.95-.07-2.93-.02-1.08-.01-2.16,0-3.24l.02-2c0-1.01.05-2.03-.04-3.03-.06-.78-.31-1.54-.47-2.31-.04-.17-.1-.34-.12-.51-.04-.64.21-.85,1.03-.99.18-.03.36-.07.53-.09.56-.06,1.17.19,1.39.64.61,1.34.68,2.76.73,4.2.03,1.07,0,2.15-.02,3.22h-.08Z"/><path class="cls-1" d="M71.04,102.51c.54,1.17,1.09,2.33,1.69,3.48.21.42.51.79.72,1.22.75,1.5,1.51,3,2.26,4.5.34.66.74,1.29,1.15,1.91.48.81,1,1.62,1.27,2.58.08.3-.23.43-.69.41-.45-.02-1.07-.16-1.46-.55l-.99-1.07c-.31-.37-.57-.77-.85-1.17-.53-.8-1.05-1.62-1.45-2.53-.47-1.09-1.24-2.04-1.85-3.07-.67-1.13-1.31-2.29-1.93-3.46l-1.13-2.17c-.56-1.1-1.08-2.24-1.65-3.34-.45-.86-1.02-1.65-1.47-2.58-.09-.21-.21-.42-.29-.64-.16-.39-.15-.77-.01-1,.13-.24.37-.38.74-.48.17-.05.34-.1.51-.12.58-.06,1.13.21,1.39.53.77,1.14,1.58,2.61,2.35,4.1.58,1.13,1.17,2.26,1.76,3.4l-.06.04Z"/><path class="cls-1" d="M70.75,38.2c0-.12-.03-.24-.08-.37,0-.08-.05-.13-.08-.21-.02-.05.03-.06.02-.11,0-.05-.04-.04-.13-.09-.33-.19-1.06-.06-1.68.18-.29.1-.54.27-.79.44-.16.11-.31.24-.48.35-.17.11-.34.22-.62.2-.21-.06-.22-.1-.31-.38-.05-.14-.08-.31-.12-.5-.02-.17,0-.31.07-.41.53-.67,1.12-1.4,2.11-1.67.57-.15,1.13-.56,1.99-.55.44,0,1.01.2,1.35.46.32.22.6.51.81.84.26.4.45.83.55,1.25.18.65.15,1.28.15,1.89,0,.47.12.97.1,1.49,0,.11.02.24,0,.35-.11.41-.42.42-1.12.15-.16-.06-.32-.12-.48-.19-.52-.24-.91-.58-1.05-.81-.32-.67-.26-1.08-.25-1.5,0-.3.03-.58-.03-.79l.06-.03Z"/><path class="cls-1" d="M55.75,21.7c-.14-.26-.31-.42-.52-.53-.03.03-.06-.01-.1,0-.07,0-.1.08-.16.1-.21.08-.53.4-.79.69-.29.3-.53.66-.74,1.04-.17.34-.29.72-.34,1.08-.04.23-.09.46-.12.68-.05.22-.15.45-.18.67-.04.15-.16.24-.44.19-.27-.04-.75-.31-.93-.71-.12-.35-.18-.69-.2-1.02.01-.33.06-.64.13-.95.14-.61.39-1.19.75-1.72.23-.35.43-.66.65-.98.13-.17.23-.34.39-.51.15-.15.36-.41.59-.54.4-.32.91-.42,1.4-.44.67,0,1.25.21,1.77.51.52.34.91.78,1.24,1.21.48.67.74,1.4,1.04,2.1.24.54.58,1.04.81,1.63.05.13.13.25.16.39.13.51-.14.72-.95.8-.19.02-.37.04-.55.05-.6.01-1.17-.15-1.36-.37-.58-.67-.78-1.39-1.01-2.07-.17-.49-.36-.95-.57-1.23l.04-.05Z"/><path class="cls-1" d="M100.88,63.67c.08-5.62.04-11.24-.15-16.84-.08-2.8-.21-5.6-.43-8.37-.12-1.38-.25-2.76-.45-4.1-.1-.67-.21-1.33-.36-1.94-.06-.33-.16-.57-.24-.84-.04-.09-.09-.19-.1-.24-.03-.02-.04-.06-.06-.08.01.01-.18-.15-.34-.23-.15-.1-.37-.19-.56-.29-.41-.18-.86-.35-1.32-.5-.93-.3-1.92-.54-2.92-.76-2.01-.42-4.08-.73-6.16-.99-5.56-.67-11.2-.94-16.83-1.18-9.94-.41-19.9-.44-29.85-.15-4.97.15-9.95.38-14.9.79-2.47.2-4.94.44-7.38.83-1.22.18-2.42.41-3.6.67-.58.14-1.17.28-1.7.46-.27.09-.52.19-.75.29-.19.11-.28.14-.38.27-.09.11-.09.18-.19.41l-.2.71c-.11.51-.22,1.02-.3,1.56-.18,1.06-.3,2.15-.41,3.24-.21,2.18-.35,4.39-.46,6.59-.21,4.41-.29,8.82-.31,13.21,0,5.64.05,11.29.17,16.93.05,2.82.17,5.64.19,8.46.02,2.82.05,5.64.16,8.44.19,3.48-.1,3.08-.93.16-.39-1.46-.91-3.56-1.37-6.11-.23-1.28-.49-2.66-.66-4.14-.15-1.48-.26-3.05-.32-4.68-.47-11.58-.44-23.14.29-34.78.21-2.93.43-5.81,1.02-8.86.09-.39.16-.77.29-1.2.07-.22.1-.39.21-.65l.19-.44c.08-.16.13-.34.26-.45l.32-.4.39-.33c.24-.23.62-.39.82-.5l.64-.27.6-.2c1.56-.49,3.03-.73,4.51-.94,5.88-.75,11.68-1.17,17.52-1.4,13.95-.52,28.47-.77,42.75.03,3.88.23,7.77.55,11.65,1.05,1.94.26,3.88.55,5.83.99.97.21,1.95.47,2.93.79.49.16.98.35,1.48.58.25.12.5.24.75.4.26.14.48.31.82.58.23.31.54.61.66.95.15.31.25.59.32.85.18.55.28,1.05.39,1.56.2,1.02.35,2.02.47,3.02.25,2,.41,3.99.54,5.98.26,3.97.38,7.94.4,11.91.07,9.66-.21,19.32-.92,28.95-.14,1.87-.29,3.74-.47,5.61l-.29,2.8-.15,1.4-.21,1.71-.2.62-.05.16v.04s-.02,0-.02,0c-.03-.03.06.07-.07-.06v.02s-.07.05-.07.05l-.24.17c-.39.18-.93.17-1.41.21l-1.1.05-1.02.06c-1.36.09-2.72.16-4.08.19-2.72.07-5.43.14-8.14.21-5.42.11-10.83.22-16.21.32-11.26.2-22.29.53-33.43.58-2.45.01-4.85.04-7.33.02-9.17-.11-12.13-.54-14.04-1.51-.43-.22-1-.47-1.23-.69-.37-.37.34-.5,1.98-.58,1.64-.08,4.24-.11,7.57-.11,9.91.01,20.11-.2,30.46-.3,10.35-.12,20.85-.26,31.36-.46,2.84-.06,5.67-.13,8.51-.19l2.13-.06,2.13.02h1.06s.99-.06.99-.06c0,0,.01,0,.03,0-.03-.02,0,0,0,0h0s.02-.23.02-.23l.09-.92.17-1.84.3-3.7c.18-2.47.32-4.95.44-7.42.22-4.96.37-9.92.43-14.89l.07-.02Z"/><path class="cls-1" d="M72.1,54.76c.97-2.03,2.01-4.02,3.1-5.98l1.64-2.9c.04-.09.19-.21.13-.31l-.13-.13-.07-.06-.3-.23c-1.23-.9-2.62-1.66-3.98-2.46-1.96-1.14-4-2.17-6.07-3.12-1.04-.48-2.09-.92-3.15-1.34-.53-.21-1.07-.39-1.6-.57l-1.37-.43c-.25-.17-.41.13-.55.3-.29.38-.59.83-.87,1.26-1.34,2.09-2.51,4.34-3.57,6.58-1.33,2.9-2.53,5.85-3.73,8.76-.38.9-.51.79-.73-.14-.08-.46-.26-1.15-.2-1.92.04-.78.18-1.67.47-2.58.22-.66.44-1.31.68-1.96.27-.64.54-1.26.83-1.89.57-1.25,1.18-2.48,1.82-3.69.64-1.21,1.31-2.41,2.04-3.59.36-.59.74-1.18,1.16-1.77l.37-.5c.2-.25.39-.5.62-.7.22-.22.46-.39.75-.41h.11s.03-.02.03-.02h0s.02.08-.01-.08h.01s.05,0,.05,0h.21s.43.03.43.03l.68.19.34.1c.11.03.15.05.23.08l.87.32,1.71.68c3.75,1.51,7.6,3.1,11.21,5.17.99.58,1.95,1.2,2.9,1.91.31.24.74.54.95.85l.39.47.2.23h.01s0,.02,0,.02h0c-.2.05-.06.02-.1.03v.04s.03.05.03.07l.03.14c.07.36-.13.78-.33,1.18l-.32.6-.22.39c-1.1,1.94-2.16,3.87-3.16,5.85-1.22,2.43-2.37,4.91-3.39,7.43-.36.89-.71,1.79-1.05,2.7l-.5,1.36-.62,1.82-.5.82-.12.2-.03.05h0s0,.02,0,.02h0c.06.15-.08-.2-.07-.17h0s-.02,0-.03,0h-.1s-.4.01-.4.01c-.28.04-.65-.2-.99-.38l-1.03-.58c-.96-.54-1.92-1.07-2.89-1.57-2.83-1.46-5.71-2.7-8.63-3.75-.64-.23-1.28-.42-1.93-.63-2.4-.77-3.09-1.01-3.51-1.84-.09-.18-.24-.37-.29-.55-.2-.58,1.02-.96,3.01-.55,2.92.6,5.73,1.68,8.47,2.91,1.38.61,2.72,1.3,4.06,2.02l1.99,1.09.99.56c.09.05.03.01.05.02,0,0,0,0,0,.01-.01-.01,0,0,0,0h0s.11-.32.11-.32l.48-1.33c.33-.89.67-1.77,1.03-2.65.71-1.76,1.47-3.49,2.27-5.2l.06.02Z"/><path class="cls-1" d="M64.2,48.05c.55.35,1.11.69,1.66,1.04.2.13.43.2.63.32.72.44,1.44.88,2.2,1.26.33.17.69.29,1.04.41.45.15.88.36,1.29.64.26.18-.37.88-.96.89-.26-.02-.52-.02-.77-.07-.24-.07-.47-.16-.71-.25-.46-.18-.92-.4-1.35-.67-.52-.32-1.13-.47-1.68-.73-.61-.28-1.21-.59-1.8-.92-.36-.21-.72-.41-1.08-.62-.55-.3-1.08-.65-1.64-.91-.44-.2-.91-.33-1.35-.52-.1-.04-.2-.07-.29-.12-.34-.19-.38-.37-.21-.82.04-.1.07-.21.12-.3.15-.33.44-.51.75-.48.45.05.89.14,1.31.27.41.14.79.36,1.17.57.56.32,1.13.65,1.69.97l-.02.04Z"/><path class="cls-1" d="M65.64,44.18c.54.35,1.08.7,1.62,1.04.2.12.42.2.61.33.66.51,1.31,1.03,1.98,1.51.3.21.61.39.93.56.2.12.42.19.6.34.17.16.33.35.49.55.09.13,0,.25-.21.38-.21.12-.56.31-.86.31-.93-.24-1.73-.69-2.5-1.23-.45-.35-1.03-.48-1.53-.76-.55-.31-1.1-.62-1.64-.93-.34-.19-.68-.38-1.02-.55-.52-.26-1.04-.55-1.59-.75-.43-.14-.9-.17-1.34-.28-.1-.02-.2-.02-.29-.06-.35-.12-.4-.3-.27-.85.03-.12.05-.25.09-.37.12-.41.39-.69.7-.72.46-.05.9-.02,1.33.06.41.11.81.28,1.21.46.59.27,1.15.6,1.71.91l-.02.05Z"/><path class="cls-1" d="M78.99,70.68c-.49-.37-1-.73-1.53-1.05-.19-.12-.41-.18-.6-.3-.69-.4-1.36-.88-2.09-1.22-.32-.16-.66-.27-.99-.38-.43-.13-.87-.25-1.28-.47-.13-.07-.08-.22.08-.37.16-.14.43-.31.7-.3.96.06,1.92.18,2.81.57.53.22,1.12.34,1.67.55.6.24,1.19.51,1.77.8.35.18.71.37,1.06.55.54.27,1.04.6,1.59.84.43.18.92.25,1.38.39.1.03.21.04.31.08.36.14.34.41.04,1.03-.07.14-.13.28-.2.41-.23.43-.63.78-.94.78-.45-.01-.85-.1-1.23-.24-.37-.15-.71-.38-1.05-.6-.5-.34-1.01-.69-1.51-1.04l.02-.05Z"/><path class="cls-1" d="M75.03,74.91c-.74-.41-1.49-.81-2.24-1.2-.27-.14-.57-.23-.84-.38-.96-.51-1.93-1.02-2.88-1.52-.43-.22-.87-.41-1.31-.59-.56-.24-1.16-.38-1.64-.85-.15-.13-.08-.24.13-.36.11-.06.26-.13.43-.2.18-.08.36-.11.53-.06,1.21.32,2.44.61,3.54,1.25.66.37,1.43.56,2.14.84.78.33,1.56.65,2.34.98l1.44.61c.73.3,1.45.63,2.2.87.58.17,1.2.25,1.79.39.13.03.27.04.39.08.47.15.56.36.44.95-.03.14-.05.27-.08.41-.12.45-.45.73-.84.73-.58,0-1.14-.07-1.7-.19-.54-.14-1.06-.38-1.58-.61-.77-.35-1.53-.75-2.29-1.12l.02-.05Z"/><path class="cls-1" d="M83.08,67.6c-.28-.25-.57-.51-.86-.74-.11-.08-.24-.11-.35-.2-.37-.32-.76-.65-1.13-.96-.17-.14-.36-.22-.55-.3-.12-.05-.25-.08-.37-.14-.11-.08-.2-.21-.29-.36-.05-.1.03-.3.2-.52.16-.22.42-.53.61-.61.58.03,1.13.15,1.59.53.25.26.62.29.93.44.34.17.66.36.99.55.2.12.4.24.6.35.31.16.6.38.93.48.26.09.59,0,.87.04.06,0,.13-.01.19,0,.21.07.2.26-.06.89l-.18.43c-.21.48-.48.83-.7.91-.65.28-1.09.09-1.53-.14-.32-.16-.61-.42-.91-.63l.02-.05Z"/><path class="cls-1" d="M72.83,79.07c.79.45,1.58.9,2.33,1.41l1.07.74s.1.09.17.14c.09.05.1-.07.15-.12.04-.05.03,0,.11-.15l.32-.57,1.29-2.29,1.81-3.39c2.2-3.94,4.44-7.86,6.58-11.82l.69-1.32.19-.38c.08-.11.03-.24-.04-.34-.15-.26-1.04-.95-1.83-1.45-1.03-.67-2.17-1.22-3.26-1.83l-1.64-.94c-.56-.3-1.11-.61-1.65-.95-.68-.41-.59-.42.14-.47.74-.08,2.13-.1,3.6.33.32.1.65.19.97.31l.92.42c.61.29,1.22.59,1.83.93.61.34,1.21.7,1.81,1.14.17.13.27.2.49.4.27.22.47.45.68.69.44.48.64,1.07.64,1.66-.06.29-.15.57-.23.87-.02.15-.12.29-.19.43l-.16.32-.48.87-.99,1.71c-.67,1.13-1.35,2.26-2.04,3.38-1.66,2.68-3.12,5.62-4.7,8.42l-2.63,4.62c-.18.27-.57,1.08-.95,1.54l-.29.4c-.1.12-.22.16-.32.24-.29.11-.57.04-.86-.05-.29-.09-.59-.29-.88-.46l-.75-.47-1.11-.68c-1.81-1.11-3.72-2.1-5.69-2.96-2.98-1.31-6.07-2.45-9.19-3.35l-.89-.24c-.4-.1-.79-.21-1.18-.31l-.78-.41-.2-.1-.1-.05h-.02s-.01-.02-.01-.02h0s0,0,0,0c-.04.02.31-.14.16-.08h0s-.02-.04-.02-.05l-.08-.36c-.1-.24,0-.56.13-.89.13-.33.28-.67.43-1.01l1.27-2.81c.23-.5.43-1,.67-1.5.43-.93.77-1.51,1.12-1.87.33-.36.62-.53.99-.61.17-.04.34-.11.48-.12.48-.04.54.95.12,2.46-.49,1.38-1.04,2.74-1.62,4.1l-.44,1.02-.05.13s0,.01,0,.02v.02s0,.04,0,.04c0,.04.04.05.08.04h.02s0-.01,0-.01l.26.07,1.25.37c.84.25,1.67.53,2.51.81,3.41,1.17,6.77,2.58,10,4.32l-.02.06Z"/><path class="cls-1" d="M101.2,22.13c.08.17-.11.33-.4.5-.09.05-.38.07-.44.03-.1-.09-.21-.19-.29-.28-.02-.03-.15-.29-.29-.59-.07-.15-.15-.31-.22-.45-.04-.14-.08-.27-.11-.36-.11-.33-.15-.67-.17-1.01-.04-.69-.09-1.38-.09-2.08,0-.15.02-.31.07-.46.16-.52.2-1.04.19-1.57,0-.09.02-.18-.05-.27-.06-.08-.08-.48-.02-.87.06-.4.15-.79.2-.88.25-.42.44-.85.66-1.27.03-.06.02-.13.13-.17.25-.08.25-.23.29-.36.07-.18.15-.36.27-.53.06-.08.2-.14.32-.21.11-.06.41.07.44.11.08.11.24.08.38.11.05,0,.1.02.14.04.07.03.38,1.2.36,1.31,0,0-.01.11-.02.26-.01.15-.02.35-.04.55-.02.41-.03.84-.02.92.01.09-.05.17-.1.26,0,.04-.01,1.26-.03,1.31-.07.24-.02.5-.25.73-.04.05-.04.1-.04.15-.02.43-.14.86-.23,1.29-.04.22-.03.44-.05.67,0,.04-.03.08-.05.12-.02.05-.04.1-.04.15,0,.53-.12,1.06-.04,1.59,0,.06-.04.24-.08.42-.07.18-.13.37-.13.44,0,.08-.27.36-.23.43Z"/><path class="cls-1" d="M105.72,23.64c.07.13-.18.16-.58.14-.13,0-.49-.1-.53-.15-.09-.09-.18-.19-.24-.27-.02-.04-.18-.8-.17-1.04-.02-.24.03-.47.1-.68.14-.44.28-.88.45-1.31.04-.1.1-.18.18-.25.28-.25.44-.56.56-.89.02-.06.06-.1.02-.19-.09-.16.42-.98.55-1.04.3-.17.56-.36.84-.53.04-.02.04-.08.14-.05.23.06.26-.03.33-.09.1-.09.21-.16.34-.21.07-.02.2,0,.32.03.1.02.34.26.35.29.04.11.19.18.3.26.04.03.08.07.11.09.05.06.08.93.04.98-.02,0-.42.87-.44.99-.01.06-.08.08-.14.11-.03.02-.27.74-.29.76-.11.12-.11.29-.36.33-.05,0-.06.04-.07.07-.1.25-.3.45-.46.67-.08.11-.12.25-.18.37-.01.02-.05.03-.07.05-.03.02-.06.04-.07.07-.11.3-.33.57-.37.91,0,.08-.34.35-.37.43-.01.05-.35.12-.32.17Z"/><path class="cls-1" d="M107.91,27.44c-.14.13-.35,0-.58-.22-.07-.07-.17-.32-.14-.39.06-.12.13-.24.2-.34.02-.03.25-.22.51-.41.26-.19.58-.35.74-.45.3-.19.63-.3.96-.41.68-.2,1.36-.41,2.06-.54.15-.03.31-.05.47-.03.55.04,1.08-.02,1.61-.11.09-.01.18-.01.27-.09.13-.15,1.62-.21,1.81-.15.47.14.93.27,1.39.42.06.02.14,0,.19.1.11.23.26.21.4.24.19.04.39.11.57.21.09.05.16.19.24.3.07.1-.04.42-.07.45-.1.09-.06.25-.08.39,0,.05-.01.11-.02.14-.03.08-1.15.46-1.25.45-.03-.02-1.54,0-1.71.03-.09.02-.18-.04-.27-.07-.04-.03-1.24.11-1.29.12-.25-.03-.49.06-.75-.1-.05-.03-.1-.02-.15-.01-.43.05-.86.03-1.3.04-.22,0-.44.07-.66.09-.04,0-.08-.01-.13-.02-.05,0-.11-.02-.16,0-.51.11-1.05.14-1.54.34-.12.03-.72.05-.86.09-.08.02-.41-.14-.47-.08Z"/></svg>