<svg width="2287" height="882" viewBox="0 0 2287 882" fill="none" xmlns="http://www.w3.org/2000/svg">
<path d="M348.099 113.303C380.628 61.0632 456.673 61.0633 489.201 113.303L491.347 116.75C510.148 146.943 546.078 161.826 580.721 153.77L584.676 152.85C644.616 138.912 698.388 192.684 684.45 252.624L683.53 256.579C675.475 291.223 690.357 327.153 720.55 345.953L723.997 348.099C776.237 380.628 776.237 456.673 723.997 489.201L720.551 491.347C690.357 510.148 675.475 546.078 683.53 580.721L684.45 584.676C698.388 644.616 644.616 698.388 584.676 684.45L580.721 683.53C546.078 675.475 510.148 690.357 491.347 720.55L489.201 723.997C456.673 776.237 380.628 776.237 348.099 723.997L345.953 720.551C327.153 690.357 291.223 675.475 256.579 683.53L252.624 684.45C192.684 698.388 138.912 644.616 152.85 584.676L153.77 580.721C161.826 546.078 146.943 510.148 116.75 491.347L113.303 489.201C61.0633 456.673 61.0632 380.628 113.303 348.099L116.75 345.953C146.943 327.153 161.826 291.223 153.77 256.579L152.85 252.624C138.912 192.684 192.684 138.912 252.624 152.85L256.579 153.77C291.223 161.826 327.153 146.943 345.953 116.75L348.099 113.303Z" fill="#BC492D"/>
<path d="M304.795 595.339L286.898 542.161C304.795 535.002 322.18 525.798 338.543 515.061C316.044 473.132 307.863 417.397 316.555 353.992C329.339 263.998 373.313 221.047 431.604 221.047C495.52 221.047 530.802 269.623 518.53 352.97C509.837 412.284 479.158 470.064 433.138 515.572C447.967 525.798 464.841 530.912 484.782 530.912H500.634L491.43 595.339H471.999C433.65 595.339 400.925 583.067 375.358 561.591C353.882 575.909 329.85 587.158 304.795 595.339ZM386.096 355.526C379.96 397.455 383.539 435.293 394.789 464.95C424.446 430.18 444.387 389.274 450.523 346.322C455.637 306.95 446.944 285.474 428.025 285.474C408.594 285.474 392.743 307.973 386.096 355.526Z" fill="#FFF3F0"/>
<path d="M1000.23 720.326C944.353 720.326 902.177 678.871 902.177 624.079C902.177 569.286 944.353 527.831 1000.23 527.831C1046.73 527.831 1083.86 557.03 1092.15 598.845H1059.34C1051.77 574.333 1028.7 557.751 1000.23 557.751C962.376 557.751 934.259 586.229 934.259 624.079C934.259 661.929 962.376 690.406 1000.23 690.406C1028.7 690.406 1051.77 673.824 1059.34 649.312H1092.15C1083.86 691.127 1046.73 720.326 1000.23 720.326ZM1104.56 716V456.457H1135.57V560.995C1149.98 539.727 1173.06 527.831 1201.89 527.831C1246.59 527.831 1276.51 557.39 1276.51 602.45V716H1245.51V612.183C1245.51 579.38 1224.6 557.751 1191.8 557.751C1157.92 557.751 1135.57 579.74 1135.57 612.904V716H1104.56ZM1379.99 720.326C1327.36 720.326 1288.07 678.871 1288.07 624.079C1288.07 569.286 1327.36 527.831 1379.99 527.831C1410.63 527.831 1435.87 542.25 1451.37 565.321V532.157H1482.37V716H1451.37V682.836C1435.87 705.907 1410.63 720.326 1379.99 720.326ZM1385.76 690.406C1423.25 690.406 1451.37 661.929 1451.37 624.079C1451.37 586.229 1423.25 557.751 1385.76 557.751C1347.91 557.751 1319.79 586.229 1319.79 624.079C1319.79 661.929 1347.91 690.406 1385.76 690.406ZM1506.27 716V532.157H1537.27V557.03C1550.61 538.285 1571.51 527.831 1597.47 527.831C1626.67 527.831 1649.38 541.89 1659.83 564.96C1673.17 541.169 1696.24 527.831 1726.52 527.831C1767.97 527.831 1795.37 555.228 1795.37 597.403V716H1764.37V606.055C1764.37 576.856 1745.62 557.751 1716.79 557.751C1686.51 557.751 1666.32 577.217 1666.32 606.776V716H1635.32V606.055C1635.32 576.856 1616.57 557.751 1587.74 557.751C1557.46 557.751 1537.27 577.217 1537.27 606.776V716H1506.27ZM1816.78 784.49V532.157H1847.78V565.321C1863.29 542.25 1888.52 527.831 1919.16 527.831C1971.79 527.831 2011.44 569.286 2011.44 624.079C2011.44 678.871 1971.79 720.326 1919.16 720.326C1888.52 720.326 1863.29 705.907 1847.78 682.836V784.49H1816.78ZM1913.39 690.406C1951.24 690.406 1979.36 661.929 1979.36 624.079C1979.36 586.229 1951.24 557.751 1913.39 557.751C1875.9 557.751 1847.78 586.229 1847.78 624.079C1847.78 661.929 1875.9 690.406 1913.39 690.406ZM2082.56 720.326C2039.67 720.326 2011.55 697.616 2011.55 663.731H2043.27C2043.27 681.034 2059.13 692.209 2082.92 692.209C2105.27 692.209 2120.05 681.755 2120.05 666.975C2120.05 627.323 2014.43 648.23 2014.43 583.345C2014.43 549.82 2041.11 527.831 2081.12 527.831C2122.21 527.831 2148.89 549.46 2148.89 582.263H2117.17C2117.17 566.402 2102.75 555.949 2080.76 555.949C2059.85 555.949 2046.15 565.681 2046.15 579.74C2046.15 618.311 2151.77 597.764 2151.77 663.731C2151.77 697.616 2124.38 720.326 2082.56 720.326Z" fill="#BC492D"/>
<path d="M1763.77 436.997V253.154H1794.77V280.911C1809.19 260.363 1832.26 248.828 1861.1 248.828C1905.8 248.828 1935.72 278.387 1935.72 323.447V436.997H1904.72V333.18C1904.72 300.376 1883.81 278.748 1851.01 278.748C1817.12 278.748 1794.77 300.737 1794.77 333.901V436.997H1763.77Z" fill="#BC492D"/>
<path d="M1656.3 441.322C1599.71 441.322 1557.53 399.868 1557.53 345.075C1557.53 290.283 1599.71 248.828 1655.22 248.828C1711.09 248.828 1752.91 290.283 1752.91 345.075C1752.91 349.401 1752.55 354.087 1752.19 358.052H1590.7C1596.1 390.495 1622.06 412.845 1656.66 412.845C1682.26 412.845 1704.61 400.589 1715.06 382.204H1749.67C1735.25 417.531 1699.56 441.322 1656.3 441.322ZM1655.22 277.306C1622.42 277.306 1597.18 298.934 1591.06 330.296H1720.11C1714.7 299.655 1688.74 277.306 1655.22 277.306Z" fill="#BC492D"/>
<path d="M1472.59 436.992V253.149H1503.59V288.116C1517.65 264.324 1540.72 250.266 1569.56 250.266H1575.33V282.348H1569.56C1528.47 282.348 1503.59 306.86 1503.59 344.71V436.992H1472.59Z" fill="#BC492D"/>
<path d="M1354.49 441.325C1311.6 441.325 1282.76 412.487 1282.76 368.869V253.156H1313.76V359.857C1313.76 390.858 1333.58 411.405 1364.23 411.405C1396.31 411.405 1417.94 390.498 1417.94 359.136V253.156H1448.94V436.999H1417.94V410.324C1403.88 430.15 1382.25 441.325 1354.49 441.325Z" fill="#BC492D"/>
<path d="M1159.01 441.322C1106.38 441.322 1067.09 399.868 1067.09 345.075C1067.09 290.283 1106.38 248.828 1159.01 248.828C1189.65 248.828 1214.88 263.247 1230.38 286.318V253.154H1261.38V436.997H1230.38V403.833C1214.88 426.903 1189.65 441.322 1159.01 441.322ZM1164.78 411.403C1202.26 411.403 1230.38 382.925 1230.38 345.075C1230.38 307.225 1202.26 278.748 1164.78 278.748C1126.92 278.748 1098.81 307.225 1098.81 345.075C1098.81 382.925 1126.92 411.403 1164.78 411.403Z" fill="#BC492D"/>
<path d="M916.54 440.598L907 413.5C924.285 405.912 945.245 391.883 960 380.5C939.343 344.666 925.814 296.838 933.824 239.925C944.364 166.991 977.247 132 1019.41 132C1066.2 132 1089.81 170.785 1080.53 236.552C1072.95 290.515 1041.39 344.95 1000.5 385C1014.83 398.912 1035.12 410 1057.04 410H1068L1064.51 440.598H1051.02C1019.83 440.598 997.314 424.736 977.5 404.5C959.794 417.569 936.775 433.009 916.54 440.598ZM965.5 236.552C959.176 282.083 969.088 332.411 983 361.5C1014.2 326.93 1044.7 281.24 1051.02 236.552C1056.93 194.816 1041.33 161 1019.41 161C998.326 161 972.245 188.07 965.5 236.552Z" fill="#BC492D"/>
</svg>
