<svg width="128" height="128" viewBox="0 0 128 128" fill="none" xmlns="http://www.w3.org/2000/svg">
<path d="M87.48 36.14C102.04 37.71 95.32 28.38 92.68 25.05L105.32 36.3601L87.47 36.14H87.48Z" fill="#231F20"/>
<path d="M75.31 21.48L76.61 21.81C77.04 21.92 77.47 22.04 77.91 22.06L80.53 22.37L81.5 22.47C81.89 22.52 82.61 22.57 82.98 22.81C83.08 22.87 83.17 22.94 83.24 23.04L83.35 23.32C83.4 23.39 83.39 23.54 83.37 23.7L83.33 24.15C83.64 25.89 84.38 27.7 85.1 29.46C85.48 30.38 85.92 31.27 86.35 32.16L87.2 33.88C87.43 34.48 87.66 35.08 87.73 35.76C87.77 36.18 87.6 36.17 87.23 35.95C86.85 35.74 86.25 35.35 85.85 34.74C84.71 32.45 83.56 30.11 82.7 27.58C82.39 26.61 81.94 25.59 81.75 24.5C81.75 24.46 81.73 24.41 81.74 24.37C81.74 24.33 81.79 24.26 81.73 24.25C81.64 24.23 81.55 24.21 81.46 24.2L81.22 24.17L80.9 24.13L80.25 24.06L78.95 23.93C78.08 23.85 77.21 23.75 76.33 23.78C75.25 23.81 74.17 23.67 73.09 23.6C71.46 23.5 69.82 23.33 68.19 23.27C66.93 23.22 65.68 23.33 64.43 23.36C64.15 23.36 63.88 23.38 63.61 23.37C62.58 23.33 62.26 23.14 62.07 22.54C62.03 22.4 61.97 22.27 61.95 22.13C61.88 21.67 62.31 21.32 63.07 21.19C65.33 20.78 67.68 20.86 70.05 20.94C71.81 21.01 73.56 21.26 75.32 21.42V21.48H75.31Z" fill="#231F20"/>
<path d="M34.2401 107.28C34.3801 108.34 34.5401 109.4 34.7401 110.45C34.8401 110.97 34.9401 111.49 35.0601 111.99C35.1001 112.22 35.2201 112.53 35.2601 112.67C35.2901 112.77 35.3001 112.82 35.3201 112.89C35.3401 113.01 35.4601 113 35.5601 112.95C35.6001 112.95 35.5901 112.93 35.6601 112.92L35.9601 112.9L36.5501 112.87C39.3501 112.77 42.1501 112.66 44.9401 112.56C46.1801 112.51 47.4201 112.39 48.6501 112.27L49.8301 112.14C50.2301 112.11 50.6201 112.1 51.0201 112.09C51.8101 112.06 52.6101 112.08 53.4301 112.23C53.9401 112.32 53.8901 112.46 53.5101 112.78C53.3201 112.94 53.0501 113.16 52.7101 113.41C52.3701 113.63 51.9701 113.81 51.5201 113.92L50.3301 114.19C49.9301 114.28 49.5201 114.29 49.1201 114.34L46.6901 114.56C45.0701 114.69 43.4401 114.76 41.7901 114.76C39.8301 114.76 37.8101 115.05 35.8101 115.19C35.3801 115.22 34.9001 115.29 34.5101 115.19C34.4101 115.17 34.3001 115.18 34.2101 115.14C34.1301 115.06 34.0601 114.98 33.9901 114.91C33.8501 114.76 33.7401 114.57 33.6201 114.4C33.4601 113.98 33.3201 113.51 33.2401 113.18L33.0501 112.34C32.8001 111.23 32.6001 110.14 32.4301 109.04C32.2201 107.69 32.0501 106.34 31.8901 104.98C31.6501 102.93 31.5001 100.87 31.3301 98.8301C31.2001 97.2401 30.9801 95.6901 30.9901 94.1001C30.9901 93.7501 30.9701 93.4101 30.9901 93.0601C31.0301 91.7501 31.3501 91.3501 31.7301 91.1001C31.8201 91.0401 31.9101 90.9701 32.0001 90.9401C32.2801 90.8401 32.5001 91.3801 32.6901 92.3101C32.8301 93.6801 33.0701 95.0801 33.2101 96.5001C33.3201 97.9301 33.4401 99.3701 33.5501 100.81C33.7401 102.96 33.9601 105.12 34.2901 107.26H34.2401V107.28Z" fill="#231F20"/>
<path d="M52.59 73.1801C52.05 75.4301 51.88 77.7701 52.07 80.1001C52.13 80.9501 52.33 81.7801 52.47 82.6201C53.07 85.5501 54.23 88.4001 56.03 90.8801C56.42 91.4401 56.87 91.9501 57.32 92.4601C57.55 92.7101 57.8 92.9401 58.04 93.1801C58.27 93.4301 58.5 93.6801 58.75 93.9101C59.37 94.5201 60.05 95.0801 60.71 95.6601C61.05 95.9401 61.36 96.2701 61.68 96.5801C62 96.8901 62.35 97.1701 62.68 97.4701C63.1 97.8501 63 97.8601 62.51 97.7601C62.03 97.6401 61.07 97.5 60.05 97.09C59.21 96.64 58.41 96.1201 57.64 95.5501C56.83 95.0201 56.13 94.3501 55.51 93.6101C54.22 92.1701 53.12 90.5401 52.31 88.7701C51.36 86.6501 50.49 84.3901 50.11 82.0501C49.69 79.4901 49.71 76.8801 50.17 74.3501C50.43 72.7901 50.88 71.2601 51.46 69.8001C52.34 67.5801 53.55 65.5101 54.99 63.6501C56.09 62.1901 57.28 60.8301 58.65 59.6201C58.94 59.3401 59.24 59.0801 59.56 58.8401C60.15 58.3701 60.61 58.1601 60.95 58.0601C61.3 57.9601 61.54 57.9901 61.8 58.1001C61.92 58.1501 62.05 58.1901 62.14 58.2601C62.43 58.4801 62.09 59.0601 61.33 59.7601C59.07 61.8101 56.85 64.0501 55.23 66.7501C54 68.7201 53.12 70.9101 52.63 73.1901H52.58L52.59 73.1801Z" fill="#231F20"/>
<path d="M88.99 92.88C90.61 91.64 91.96 90.04 93.16 88.3C93.57 87.66 93.92 87.01 94.25 86.33C95.46 83.97 96.14 81.29 96.3 78.56C96.38 77.35 96.3 76.12 96.16 74.92C96.09 74.15 95.97 73.37 95.84 72.6C95.68 71.84 95.69 71.04 95.57 70.25C95.52 69.76 95.65 69.78 95.96 70.13C96.24 70.49 96.86 71.14 97.16 72.04C97.38 72.84 97.57 73.66 97.71 74.49C97.85 75.32 97.9 76.16 97.92 77C97.96 78.68 97.83 80.38 97.45 82.04C97 84.01 96.48 86.1 95.46 87.94C94.87 88.95 94.27 89.89 93.56 90.78C92.88 91.68 92.11 92.53 91.28 93.32C90.27 94.3 89.12 95.13 87.91 95.83C86.07 96.9 84.05 97.61 82.02 98.05C80.44 98.39 78.88 98.72 77.29 98.82C76.94 98.83 76.6 98.86 76.24 98.86C74.93 98.81 74.52 98.65 74.25 98.31C74.19 98.23 74.11 98.15 74.08 98.08C73.97 97.84 74.5 97.59 75.42 97.45C76.11 97.37 76.79 97.2 77.48 97.08C78.17 97.01 78.85 96.85 79.54 96.75C80.9 96.47 82.27 96.17 83.57 95.71C85.52 95.09 87.36 94.15 88.94 92.85L88.97 92.88H88.99Z" fill="#231F20"/>
<path d="M89.8799 96.48C90.0399 96.71 90.1599 96.96 90.3399 97.17C92.0599 99.18 93.8799 101.11 95.6099 103.13L100.83 109.17L106.06 115.24L108.69 118.28C109.63 119.24 110.54 120.23 111.52 121.15L112.21 121.68C113.13 122.17 114.3 121.13 113.94 120.17L113.51 119.42C112.74 118.33 111.91 117.29 111.12 116.21L108.58 113.12L103.5 106.92C101.81 104.85 100.08 102.79 98.2999 100.78C96.5099 98.78 94.7699 96.72 92.8399 94.82C92.6399 94.62 92.3899 94.48 92.1699 94.3C91.3199 93.76 89.3999 95.61 89.8699 96.47L89.8799 96.48Z" fill="#242021"/>
<path d="M73.19 20.91C75.96 20.83 78.72 20.75 81.5 20.72L82.26 20.7C82.57 20.7 82.87 20.72 83.16 20.76C83.72 20.88 84.3 20.88 84.53 21.43C84.89 21.83 85.03 22.5 85.21 23.09L85.51 24.23L86.54 28.27C87.07 30.22 87.67 32.16 88.21 34.09L88.42 34.84L88.49 35.1C88.51 35.17 88.52 35.24 88.55 35.31C88.61 35.33 88.68 35.31 88.75 35.31H88.91L89.42 35.28L90.59 35.24C90.98 35.26 91.37 35.15 91.76 35.12C92.15 35.06 92.54 35.1 92.93 35.1C94.49 35.12 96.04 35.22 97.58 35.41C98.35 35.5 99.12 35.6 99.88 35.7L100.29 35.76L100.53 35.8L101.02 35.89L102.07 36.09C102.25 36.12 102.44 36.16 102.63 36.19C102.79 36.23 102.67 36.11 102.63 36.06L102.49 35.86C102.37 35.68 102.21 35.51 102.06 35.33C101.87 35.11 101.64 34.86 101.41 34.64C101.14 34.38 101.06 34.31 100.45 33.77C99.45 32.9 98.45 32.02 97.46 31.16C95.95 29.81 94.37 28.49 92.99 26.93C92.65 26.54 92.32 26.14 92 25.72C91.69 25.3 91.35 24.91 91.1 24.44C90.82 24 90.55 23.55 90.31 23.08C90.06 22.62 89.82 22.16 89.62 21.68C89.11 20.48 89.36 20.58 90.21 21.3C90.62 21.67 91.26 22.14 91.98 22.69C92.75 23.21 93.6 23.83 94.43 24.56C95.36 25.3 96.2 26.12 97.11 26.91C98.01 27.7 98.94 28.48 99.88 29.26C100.83 30.04 101.76 30.86 102.67 31.74L103.1 32.15C103.32 32.35 103.53 32.57 103.73 32.78L104.92 34.04C105.11 34.25 105.33 34.46 105.5 34.66L105.98 35.26L106.95 36.46C107.07 36.87 107.25 37.32 107.33 37.7C107.24 37.97 107.19 38.23 107.08 38.52C106.94 38.72 106.82 38.87 106.54 39.02C106.41 39.1 106.21 39.14 106.01 39.2C105.82 39.26 105.58 39.31 105.27 39.31C104.65 39.31 103.81 39.14 103.06 39.03L100.78 38.69L97.91 38.3C96.36 38.11 94.79 38 93.21 37.93L92.02 37.91C91.62 37.87 91.22 37.8 90.83 37.79L89.64 37.85L89.01 37.89L87.98 37.98C87.8 37.98 87.6 37.99 87.44 37.96L86.99 37.83L86.93 37.81C86.83 37.96 87.06 37.6 87.04 37.64H87.03L87 37.62L86.91 37.56L86.73 37.43C86.6 37.35 86.5 37.21 86.38 37.1C86.08 36.47 85.84 35.53 85.74 35.23C85.49 34.34 85.24 33.46 84.99 32.57C84.27 29.87 83.53 27.16 82.75 24.5L82.57 23.87C82.52 23.75 82.53 23.56 82.41 23.5H81.99H81.88H81.65L81.13 23.54C79.74 23.62 78.34 23.71 76.94 23.76C73.5 23.9 70.05 24.01 66.6 24.09C61.38 24.22 56.13 24.22 50.94 24.17C46.9 24.13 42.93 24.19 38.88 23.86C37.99 23.8 37.11 23.72 36.21 23.6C32.86 23.07 31.8 22.35 31.45 21.27C31.37 21.03 31.25 20.77 31.25 20.56C31.25 20.21 31.61 20.03 32.2 19.99C32.49 19.99 32.87 19.98 33.31 19.99C33.74 20.02 34.24 20.08 34.8 20.16C38.15 20.62 41.73 20.77 45.37 20.9C49.01 21.02 52.73 21.07 56.46 21.07C62 21.07 67.59 20.99 73.16 20.79V20.87L73.19 20.91Z" fill="#231F20"/>
<path d="M106.15 65.07C106.07 68.12 106.06 71.18 106.12 74.25L106.27 77.6C106.36 81.55 106.38 85.52 106.4 89.49C106.44 91.25 106.48 93.02 106.52 94.77C106.52 95.89 106.52 97.02 106.52 98.15C106.54 99.28 106.28 100.41 106.03 101.52C105.86 102.22 105.75 102.12 105.46 101.52C105.2 100.92 104.46 99.83 104.36 98.55C103.98 94.02 103.81 89.5 103.85 84.89C103.85 82.13 103.61 79.27 103.5 76.45C103.41 73.34 103.34 70.23 103.37 67.1C103.37 65.18 103.44 63.26 103.48 61.34C103.58 58.43 103.78 55.52 103.99 52.63C104.11 50.38 104.23 48.18 104.35 45.95C104.38 45.46 104.41 44.98 104.49 44.49C104.75 42.67 105.1 42.14 105.84 41.87C106.01 41.81 106.19 41.72 106.35 41.7C106.9 41.62 107.24 42.43 107.26 43.76C107.18 47.69 106.78 51.74 106.56 55.85C106.36 58.89 106.26 61.97 106.22 65.04H106.15V65.07Z" fill="#231F20"/>
<path d="M32.93 85.36C33.09 93.45 33.19 101.57 33.58 109.61C33.62 110.34 33.67 111.07 33.76 111.79L33.9 112.86L33.98 113.44C34.01 113.58 34.01 113.88 34.24 113.77L35.54 113.6C45.92 112.32 56.34 111.36 66.8 111.01C71.44 110.85 76.11 110.73 80.74 110.83C83.71 110.91 86.7 110.98 89.67 111.4C92.63 111.81 95.64 112.37 98.4 113.7C100.01 114.79 99.74 114.66 98.09 114.7C96.44 114.74 93.62 114.81 90.34 114.49C78.66 113.37 66.65 114.02 54.61 114.64C51 114.84 47.33 115.2 43.65 115.64C41.81 115.87 39.96 116.11 38.12 116.34L35.36 116.71L34.49 116.83C34.1 116.89 33.73 116.91 33.35 116.95C32.95 117.03 32.66 116.91 32.34 116.86C32.21 116.82 32.05 116.75 31.94 116.62C31.82 116.51 31.73 116.38 31.65 116.24C31.27 115.64 31.16 114.71 31.08 113.89L31.03 113.38L31 112.99L30.95 112.21L30.79 109.12C30.69 107.07 30.62 105.02 30.56 102.98L30.28 90.72C30.19 85.7 30.09 80.67 30 75.65C29.84 68.04 29.71 60.4 29.39 52.86C29.14 47 28.71 41.26 28.26 35.48C28.15 34.21 28.05 32.97 27.94 31.68C27.59 26.93 27.6 25.42 28.29 24.33C28.43 24.08 28.56 23.76 28.7 23.62C29.12 23.12 29.92 25.01 30.3 28.51C31.51 38.87 31.98 49.82 32.33 60.81C32.61 68.97 32.78 77.17 32.98 85.34H32.91L32.93 85.36Z" fill="#231F20"/>
<path d="M59.5099 117.63C62.1699 117.58 64.8299 117.54 67.4899 117.55C68.4599 117.55 69.4299 117.48 70.3999 117.5C73.8199 117.56 77.2399 117.77 80.6499 117.98C82.1599 118.06 83.6799 118.14 85.1899 118.18C87.1199 118.29 89.0699 118.34 90.9499 118.96C91.5399 119.13 91.4499 119.24 90.9199 119.45C90.5799 119.58 90.1999 119.73 89.8299 119.87C89.6099 119.95 89.3599 120.05 89.1099 120.1C88.8599 120.14 88.5899 120.17 88.3099 120.17C86.3499 120.26 84.3999 120.15 82.4499 120.06C80.4999 119.98 78.5399 119.87 76.5699 119.75C74.2099 119.58 71.7599 119.75 69.3399 119.74C66.6799 119.75 64.0299 119.78 61.3699 119.85C59.7299 119.89 58.0999 119.94 56.4599 120.02C53.9799 120.14 51.4899 120.25 49.0399 120.48C47.1299 120.66 45.2799 120.98 43.3999 121.26C42.9899 121.32 42.5799 121.36 42.1599 121.39C40.5999 121.48 40.0899 121.35 39.7099 120.87C39.6199 120.76 39.5099 120.65 39.4599 120.54C39.2699 120.17 39.8799 119.78 40.9999 119.47C41.8299 119.27 42.6699 118.98 43.5299 118.86C44.3899 118.72 45.2599 118.6 46.1399 118.49C47.8999 118.28 49.6899 118.12 51.4799 117.99C54.1499 117.8 56.8299 117.69 59.5099 117.58V117.64V117.63Z" fill="#231F20"/>
<path d="M82.74 99.59C80.91 100.09 79.03 100.24 77.18 100.3C76.72 100.3 76.25 100.38 75.79 100.33L74.39 100.22L73 100.11C72.54 100.07 72.08 99.94 71.62 99.85C67.95 99.16 64.43 97.6 61.49 95.29C60.48 94.38 59.38 93.56 58.52 92.51C57.55 91.55 56.8 90.41 56.04 89.29C53.51 85.22 52.35 80.41 52.48 75.71C52.58 70.98 54.15 66.38 56.78 62.48C58.04 60.82 59.39 59.2 61.05 57.92C62.68 56.63 64.47 55.52 66.38 54.75C68.81 53.72 71.4 53.02 74.03 52.83L76 52.76C76.66 52.77 77.31 52.82 77.96 52.86C78.62 52.86 79.26 53.07 79.89 53.24C80.53 53.39 81.15 53.58 81.77 53.78C83.3 54.3 83.05 54.34 81.68 54.5C81.32 54.55 80.91 54.61 80.46 54.67C79.99 54.79 79.46 54.9 78.9 55.08C78.34 55.22 77.75 55.28 77.12 55.38C76.81 55.42 76.49 55.46 76.16 55.48C75.83 55.53 75.5 55.58 75.16 55.62C72.76 55.92 70.42 56.44 68.23 57.31C66.02 58.17 64.04 59.46 62.29 60.97C58.79 64.01 56.4 68.42 55.6 73.22C54.47 78.97 56.4 85.33 60.16 89.91C62.23 92.45 64.92 94.48 67.96 95.76C71 97.05 74.37 97.49 77.7 97.28C81.81 97.14 85.84 95.73 89.02 93.19C93.89 89.34 96.49 82.92 96.33 76.71C96.28 74.29 95.83 71.91 94.99 69.7C94.14 67.49 92.96 65.45 91.52 63.62C90.89 62.81 90.17 62.1 89.43 61.39C88.04 60.07 87.01 59.33 86.33 58.71C86 58.37 85.74 58.11 85.53 57.87C85.32 57.63 85.16 57.39 85.03 57.17C84.91 56.97 84.72 56.75 84.65 56.61C84.54 56.37 84.88 56.37 85.68 56.48C86.48 56.57 87.69 56.93 89.07 57.74C93.16 60.13 96.6 64.21 98.15 69.03C99.78 73.82 99.91 79.14 98.51 84.1C98.01 85.95 97.25 87.73 96.29 89.41C95.34 91.09 94.17 92.66 92.78 94.03C91.4 95.4 89.86 96.62 88.15 97.54C86.46 98.49 84.65 99.22 82.79 99.67L82.76 99.6L82.74 99.59Z" fill="#231F20"/>
<path d="M44.9299 31.28L48.9699 31.34C49.4599 31.34 49.9499 31.28 50.4399 31.29C52.1799 31.32 53.9199 31.38 55.6599 31.38C56.4299 31.39 57.2099 31.38 57.9699 31.34C58.9499 31.24 59.9499 31.34 60.9399 31.54C61.2499 31.61 61.2099 31.77 60.9599 32.01C60.7099 32.24 60.2499 32.64 59.6999 32.83C57.7299 33.34 55.7399 33.46 53.6999 33.33C52.4899 33.25 51.2399 33.44 49.9999 33.49C48.6399 33.55 47.2799 33.57 45.9099 33.57H43.3899C42.1199 33.6 40.8399 33.57 39.5699 33.61C38.5799 33.64 37.6099 33.81 36.5899 33.84C36.3699 33.85 36.1499 33.88 35.8999 33.86C35.0599 33.74 34.6799 33.39 34.7299 32.81C34.7299 32.68 34.7299 32.54 34.7599 32.42C34.8899 32.01 35.2599 31.73 35.7199 31.61C37.2899 31.29 39.0799 31.29 40.8699 31.25C42.2099 31.24 43.5699 31.23 44.9199 31.22V31.28H44.9299Z" fill="#231F20"/>
<path d="M41.9801 40.78C42.9401 40.84 43.9201 40.89 44.8901 40.92C45.2501 40.93 45.6001 40.89 45.9501 40.9L47.8401 41C48.4701 41.06 49.1001 41.12 49.7301 41.18C50.2901 41.23 50.8501 41.29 51.4101 41.34C52.1201 41.41 52.8401 41.53 53.5301 41.77C53.7401 41.84 53.7001 41.89 53.5001 41.95C53.3001 42.02 52.9501 42.13 52.5501 42.2C51.8401 42.32 51.1401 42.43 50.4301 42.55C49.7201 42.67 49.0101 42.64 48.2901 42.63C47.4301 42.58 46.5301 42.69 45.6401 42.74L42.7001 42.8H40.8801C39.9601 42.82 39.0301 42.78 38.1101 42.8C37.3901 42.83 36.6601 42.89 35.9001 42.84C35.7301 42.82 35.5401 42.81 35.3701 42.75C35.2101 42.7 35.0801 42.64 34.9801 42.58C34.8601 42.5 34.7801 42.41 34.7201 42.32C34.6101 42.15 34.6001 41.96 34.6701 41.73C34.7001 41.62 34.7301 41.52 34.7701 41.42C34.9301 41.12 35.3101 40.93 35.5701 40.86C35.8701 40.78 36.1101 40.73 36.3901 40.7C36.6901 40.65 36.9501 40.63 37.2601 40.6C37.5601 40.54 37.8601 40.57 38.1601 40.58L39.1001 40.61C40.0501 40.65 41.0201 40.68 41.9701 40.72V40.77L41.9801 40.78Z" fill="#231F20"/>
<path d="M39.62 46.54C40.17 46.62 40.72 46.67 41.28 46.73C41.48 46.76 41.69 46.73 41.89 46.76C42.62 46.87 43.35 46.99 44.08 47.06C44.41 47.09 44.73 47.1 45.05 47.09C45.47 47.09 45.88 47.04 46.34 47.24C46.48 47.3 46.42 47.54 46.29 47.8C46.16 48.06 46 48.35 45.77 48.42C45.39 48.52 44.98 48.62 44.57 48.69C44.16 48.75 43.74 48.72 43.32 48.67C42.81 48.59 42.29 48.74 41.78 48.77C41.21 48.81 40.63 48.76 40.06 48.74C39.7 48.72 39.35 48.7 38.99 48.68C38.45 48.66 37.91 48.58 37.36 48.59C37.14 48.59 36.93 48.62 36.7 48.65C36.47 48.67 36.23 48.69 35.98 48.69C35.86 48.68 35.74 48.68 35.62 48.65C35.51 48.62 35.43 48.59 35.35 48.54C35.26 48.47 35.2 48.39 35.17 48.31C35.11 48.14 35.16 47.95 35.31 47.7C35.38 47.58 35.45 47.47 35.53 47.37C35.82 47.03 36.16 46.76 36.2 46.63C36.65 46.33 37.33 46.33 38.02 46.38C38.55 46.42 39.09 46.46 39.63 46.5V46.55L39.62 46.54Z" fill="#231F20"/>
<path d="M62.5 70.73H63.1C64.07 70.78 65.03 70.73 65.99 70.7L68.89 70.62C70.82 70.58 72.75 70.56 74.69 70.56L80.5 70.46C82.44 70.43 84.38 70.45 86.33 69.96L86.95 69.81C87.66 69.58 87.66 69.02 86.96 68.77L86.35 68.61C84.42 68.08 82.47 68.04 80.53 67.97L74.69 67.79C72.74 67.79 70.79 67.79 68.84 67.81L65.91 67.87C64.93 67.89 63.96 67.91 62.98 68.03L62.38 68.09C61.68 68.23 61.8 70.65 62.5 70.73Z" fill="#242021"/>
<path d="M66.4 77.85L66.83 77.87C68.21 77.9 69.59 77.78 70.97 77.74C72.35 77.67 73.73 77.64 75.11 77.54L79.24 77.22C80.62 77.18 81.98 76.85 83.34 76.45L83.77 76.35C84.26 76.2 84.24 75.93 83.74 75.82L83.3 75.75C81.91 75.45 80.52 75.22 79.15 75.27L75.03 75.24C73.66 75.24 72.29 75.3 70.92 75.33C69.55 75.39 68.18 75.36 66.81 75.49L66.39 75.54C65.89 75.62 65.93 77.78 66.43 77.83L66.4 77.85Z" fill="#242021"/>
<path d="M69.65 85.87H69.87C71.32 85.9 72.76 85.73 74.21 85.67C74.93 85.65 75.65 85.53 76.37 85.45C77.09 85.36 77.81 85.31 78.53 85.07C78.61 85.05 78.68 85.03 78.76 84.98C79.01 84.77 78.99 84.22 78.72 84.03C78.64 83.98 78.5599 83.97 78.49 83.96C77.76 83.78 77.03 83.79 76.31 83.76C75.59 83.74 74.86 83.69 74.14 83.73C72.69 83.8 71.24 83.76 69.8 83.91L69.58 83.93C69.32 83.96 69.4 85.87 69.66 85.87H69.65Z" fill="#242021"/>
<path d="M30.2701 15.51C30.3901 15.65 30.1901 15.81 29.8301 15.99C29.7201 16.05 29.3601 16.1 29.3001 16.06C29.1801 15.99 29.0601 15.92 28.9601 15.85C28.9101 15.8 28.4501 15.03 28.2401 14.78C28.0601 14.53 27.9001 14.28 27.8601 14.01C27.7301 13.47 27.5601 12.93 27.4101 12.4C27.3801 12.28 27.3701 12.16 27.3801 12.03C27.4301 11.58 27.3301 11.17 27.1601 10.78C27.1301 10.71 27.1301 10.64 27.0201 10.6C26.8601 10.53 26.4901 9.45997 26.5101 9.29997C26.5701 8.90997 26.5101 8.53997 26.5701 8.13997C26.5701 8.07997 26.5301 8.03997 26.6201 7.95997C26.8301 7.76997 26.7501 7.67997 26.7401 7.55997C26.7201 7.39997 26.7101 7.23997 26.7401 7.05997C26.7501 6.96997 26.8501 6.84997 26.9201 6.73997C26.9801 6.63997 27.3201 6.53997 27.3601 6.54997C27.4901 6.57997 27.6201 6.45997 27.7501 6.39997C27.7901 6.37997 27.8501 6.34997 27.8901 6.33997C27.9601 6.30997 28.9601 6.97997 29.0101 7.07997C29.0801 7.07997 29.6901 8.39997 29.7501 8.54997C29.8001 8.61997 29.7601 8.71997 29.7501 8.81997C29.7501 8.85997 30.2201 9.90997 30.2201 9.95997C30.2501 10.2 30.3801 10.4 30.2201 10.68C30.1901 10.73 30.2201 10.78 30.2201 10.82C30.3401 11.2 30.3401 11.61 30.3601 12.02C30.3701 12.23 30.4401 12.42 30.4701 12.62C30.4701 12.66 30.4501 12.7 30.4501 12.74C30.4501 12.79 30.4201 12.84 30.4301 12.88C30.5301 13.35 30.5301 13.84 30.6001 14.31C30.6201 14.42 30.4301 14.99 30.4601 15.11C30.4701 15.18 30.2101 15.46 30.2601 15.51H30.2701Z" fill="#231F20"/>
<path d="M25.54 19.73C25.74 19.65 25.84 19.96 25.9 20.34C25.92 20.46 25.85 20.79 25.78 20.84C25.66 20.93 25.54 21.04 25.41 21.12C25.34 21.15 24.31 21.28 23.95 21.38C23.61 21.46 23.27 21.48 22.94 21.48C22.26 21.51 21.61 21.44 20.94 21.41C20.79 21.41 20.65 21.36 20.51 21.3C20.03 21.08 19.52 21.03 19.01 21.04C18.92 21.04 18.84 21.02 18.75 21.11C18.67 21.18 18.29 21.21 17.91 21.18C17.53 21.14 17.15 21.07 17.06 21.02C16.64 20.77 16.21 20.6 15.79 20.4C15.73 20.37 15.66 20.4 15.61 20.28C15.5 20 15.36 20.03 15.23 19.99C15.04 19.94 14.86 19.87 14.68 19.76C14.59 19.7 14.51 19.54 14.43 19.41C14.36 19.29 14.44 18.91 14.47 18.87C14.57 18.76 14.52 18.57 14.52 18.4C14.52 18.35 14.52 18.27 14.53 18.23C14.55 18.13 15.72 17.53 15.84 17.55C15.85 17.55 16.27 17.53 16.71 17.51C17.15 17.49 17.61 17.46 17.7 17.44C17.8 17.42 17.89 17.49 17.98 17.54C18.03 17.54 19.34 17.51 19.39 17.54C19.65 17.62 19.93 17.57 20.17 17.84C20.22 17.89 20.27 17.89 20.33 17.9C20.79 17.94 21.24 18.11 21.69 18.25C21.92 18.32 22.16 18.34 22.39 18.38C22.43 18.38 22.47 18.43 22.51 18.45C22.56 18.48 22.61 18.52 22.66 18.53C23.21 18.64 23.74 18.91 24.3 18.98C24.43 19 24.99 19.38 25.14 19.39C25.22 19.4 25.44 19.75 25.52 19.72L25.54 19.73Z" fill="#231F20"/>
<path d="M16.4901 29.3701C16.3901 29.4801 16.2401 29.3301 16.0801 29.0401C16.0301 28.9501 15.9601 28.6401 15.9801 28.5901C16.0201 28.4901 16.0601 28.3801 16.1101 28.3001C16.1401 28.2601 16.6901 27.8701 16.8601 27.6901C17.0301 27.5301 17.2001 27.4201 17.3801 27.3301C17.7501 27.1301 18.1001 26.8901 18.4301 26.6601C18.5101 26.6101 18.5901 26.5701 18.6901 26.5701C19.0301 26.5501 19.3101 26.4001 19.5501 26.1901C19.5901 26.1601 19.6401 26.1401 19.6501 26.0401C19.6601 25.8901 20.3401 25.4001 20.4601 25.3801C20.7601 25.3401 21.0301 25.2501 21.3201 25.1801C21.3601 25.1801 21.3701 25.1201 21.4601 25.1801C21.6601 25.3101 21.7101 25.2201 21.7801 25.1801C21.8901 25.1201 22.0001 25.0701 22.1401 25.0501C22.2101 25.0401 22.3401 25.1001 22.4601 25.1401C22.5601 25.1801 22.7701 25.4601 22.7801 25.5101C22.8101 25.6301 22.9501 25.7301 23.0501 25.8301C23.0801 25.8701 23.1301 25.9201 23.1501 25.9501C23.2101 26.0201 22.9801 26.9601 22.9001 27.0101C22.9001 27.0101 22.6801 27.2201 22.4601 27.4401C22.2401 27.6401 22.0101 27.8601 21.9401 27.9201C21.8901 27.9701 21.8101 27.9701 21.7301 27.9801C21.7001 27.9901 20.9801 28.5901 20.9401 28.6001C20.7601 28.6701 20.6201 28.8201 20.3601 28.7401C20.3101 28.7201 20.2801 28.7501 20.2501 28.7701C19.9701 28.9401 19.6301 29.0001 19.3001 29.0601C19.1301 29.0901 18.9801 29.1601 18.8201 29.2101C18.7901 29.2101 18.7501 29.2101 18.7201 29.2101C18.6801 29.2101 18.6301 29.2001 18.6001 29.2101C18.2301 29.3401 17.8201 29.3601 17.4701 29.5101C17.3901 29.5401 16.9201 29.4701 16.8301 29.5101C16.7801 29.5301 16.5301 29.3501 16.4901 29.4001V29.3701Z" fill="#231F20"/>
</svg>
