<svg width="2643" height="903" viewBox="0 0 2643 903" fill="none" xmlns="http://www.w3.org/2000/svg">
<g clip-path="url(#clip0_295_333)">
<path class="name" d="M1220.36 768.084C1155.34 768.084 1106.26 719.845 1106.26 656.085C1106.26 592.324 1155.34 544.085 1220.36 544.085C1274.47 544.085 1317.68 578.062 1327.32 626.721H1289.15C1280.34 598.197 1253.5 578.901 1220.36 578.901C1176.31 578.901 1143.59 612.04 1143.59 656.085C1143.59 700.129 1176.31 733.268 1220.36 733.268C1253.5 733.268 1280.34 713.972 1289.15 685.448H1327.32C1317.68 734.107 1274.47 768.084 1220.36 768.084ZM1341.77 763.051V461.028H1377.85V582.676C1394.63 557.927 1421.47 544.085 1455.03 544.085C1507.05 544.085 1541.86 578.482 1541.86 630.916V763.051H1505.79V642.242C1505.79 604.07 1481.46 578.901 1443.29 578.901C1403.85 578.901 1377.85 604.489 1377.85 643.081V763.051H1341.77ZM1662.28 768.084C1601.04 768.084 1555.31 719.845 1555.31 656.085C1555.31 592.324 1601.04 544.085 1662.28 544.085C1697.94 544.085 1727.3 560.864 1745.34 587.71V549.118H1781.41V763.051H1745.34V724.459C1727.3 751.305 1697.94 768.084 1662.28 768.084ZM1668.99 733.268C1712.62 733.268 1745.34 700.129 1745.34 656.085C1745.34 612.04 1712.62 578.901 1668.99 578.901C1624.95 578.901 1592.23 612.04 1592.23 656.085C1592.23 700.129 1624.95 733.268 1668.99 733.268ZM1809.22 763.051V549.118H1845.3V578.062C1860.82 556.249 1885.15 544.085 1915.35 544.085C1949.33 544.085 1975.75 560.444 1987.92 587.291C2003.44 559.605 2030.29 544.085 2065.52 544.085C2113.76 544.085 2145.64 575.965 2145.64 625.043V763.051H2109.57V635.111C2109.57 601.133 2087.75 578.901 2054.2 578.901C2018.96 578.901 1995.47 601.553 1995.47 635.95V763.051H1959.39V635.111C1959.39 601.133 1937.58 578.901 1904.02 578.901C1868.79 578.901 1845.3 601.553 1845.3 635.95V763.051H1809.22ZM2170.56 842.751V549.118H2206.64V587.71C2224.67 560.864 2254.04 544.085 2289.69 544.085C2350.94 544.085 2397.08 592.324 2397.08 656.085C2397.08 719.845 2350.94 768.084 2289.69 768.084C2254.04 768.084 2224.67 751.305 2206.64 724.459V842.751H2170.56ZM2282.98 733.268C2327.02 733.268 2359.74 700.129 2359.74 656.085C2359.74 612.04 2327.02 578.901 2282.98 578.901C2239.35 578.901 2206.64 612.04 2206.64 656.085C2206.64 700.129 2239.35 733.268 2282.98 733.268ZM2479.84 768.084C2429.92 768.084 2397.2 741.658 2397.2 702.227H2434.12C2434.12 722.362 2452.57 735.365 2480.26 735.365C2506.27 735.365 2523.46 723.201 2523.46 706.002C2523.46 659.86 2400.56 684.189 2400.56 608.684C2400.56 569.673 2431.6 544.085 2478.16 544.085C2525.98 544.085 2557.02 569.253 2557.02 607.425H2520.11C2520.11 588.968 2503.33 576.804 2477.74 576.804C2453.41 576.804 2437.47 588.129 2437.47 604.489C2437.47 649.373 2560.38 625.463 2560.38 702.227C2560.38 741.658 2528.5 768.084 2479.84 768.084Z" fill="#083825"/>
<path class="name" d="M940.94 461L930.453 432.056C947.652 424.506 963.592 414.858 978.273 403.532C957.719 367.876 950.169 317.959 958.139 261.33C968.625 188.76 1001.34 153.944 1043.29 153.944C1089.85 153.944 1113.34 192.536 1104.12 257.974C1096.57 311.667 1068.46 364.521 1027.77 404.371C1042.03 418.213 1060.49 426.184 1082.3 426.184H1093.21L1088.18 461H1074.75C1043.71 461 1017.7 449.674 997.989 429.539C980.371 442.543 961.075 453.449 940.94 461ZM995.891 261.749C989.599 307.052 994.213 346.903 1008.06 375.846C1039.1 341.449 1060.91 298.663 1067.2 254.199C1073.07 212.671 1063.01 188.76 1041.19 188.76C1020.22 188.76 1002.6 213.509 995.891 261.749ZM1218.37 466.034C1157.13 466.034 1111.41 417.794 1111.41 354.034C1111.41 290.273 1157.13 242.034 1218.37 242.034C1254.03 242.034 1283.39 258.813 1301.43 285.659V247.067H1337.51V461H1301.43V422.408C1283.39 449.255 1254.03 466.034 1218.37 466.034ZM1225.09 431.217C1268.71 431.217 1301.43 398.079 1301.43 354.034C1301.43 309.989 1268.71 276.85 1225.09 276.85C1181.04 276.85 1148.32 309.989 1148.32 354.034C1148.32 398.079 1181.04 431.217 1225.09 431.217ZM1445.85 466.034C1395.94 466.034 1362.38 432.476 1362.38 381.719V247.067H1398.45V371.232C1398.45 407.307 1421.52 431.217 1457.18 431.217C1494.51 431.217 1519.68 406.888 1519.68 370.393V247.067H1555.76V461H1519.68V429.959C1503.32 453.03 1478.15 466.034 1445.85 466.034ZM1583.28 461V247.067H1619.35V287.757C1635.71 260.071 1662.56 243.712 1696.12 243.712H1702.83V281.045H1696.12C1648.3 281.045 1619.35 309.569 1619.35 353.614V461H1583.28ZM1797.06 466.034C1731.2 466.034 1682.12 417.794 1682.12 354.034C1682.12 290.273 1731.2 242.034 1795.8 242.034C1860.82 242.034 1909.48 290.273 1909.48 354.034C1909.48 359.067 1909.06 364.521 1908.64 369.135H1720.71C1727 406.888 1757.21 432.895 1797.48 432.895C1827.26 432.895 1853.27 418.633 1865.43 397.24H1905.7C1888.92 438.348 1847.39 466.034 1797.06 466.034ZM1795.8 275.172C1757.63 275.172 1728.26 300.341 1721.13 336.835H1871.3C1865.01 301.18 1834.81 275.172 1795.8 275.172ZM1922.12 461V247.067H1958.19V279.367C1974.97 255.457 2001.82 242.034 2035.38 242.034C2087.39 242.034 2122.21 276.431 2122.21 328.865V461H2086.13V340.191C2086.13 302.019 2061.8 276.85 2023.63 276.85C1984.2 276.85 1958.19 302.438 1958.19 341.03V461H1922.12Z" fill="#083825"/>
<path class="badge" d="M344.144 150.015C376.302 98.3693 451.483 98.3693 483.642 150.015L485.763 153.423C504.35 183.273 539.872 197.987 574.122 190.022L578.032 189.113C637.291 175.334 690.452 228.494 676.672 287.753L675.763 291.663C667.798 325.913 682.512 361.435 712.362 380.022L715.77 382.144C767.416 414.302 767.416 489.483 715.77 521.642L712.362 523.763C682.512 542.35 667.798 577.872 675.763 612.122L676.672 616.032C690.452 675.291 637.291 728.452 578.032 714.672L574.122 713.763C539.872 705.798 504.35 720.512 485.763 750.362L483.642 753.77C451.483 805.416 376.302 805.416 344.144 753.77L342.022 750.362C323.435 720.512 287.913 705.798 253.663 713.763L249.753 714.672C190.494 728.452 137.334 675.291 151.113 616.032L152.022 612.122C159.987 577.872 145.273 542.35 115.423 523.763L112.015 521.642C60.3693 489.483 60.3693 414.302 112.015 382.144L115.423 380.022C145.273 361.435 159.987 325.913 152.022 291.663L151.113 287.753C137.334 228.494 190.494 175.333 249.753 189.113L253.663 190.022C287.913 197.987 323.435 183.273 342.022 153.423L344.144 150.015Z" fill="#083825"/>
<path class="loop" d="M301.326 626.57L283.633 573.996C301.326 566.919 318.514 557.82 334.69 547.204C312.447 505.751 304.359 450.65 312.953 387.966C325.591 298.995 369.065 256.531 426.694 256.531C489.884 256.531 524.765 304.555 512.632 386.955C504.038 445.595 473.707 502.718 428.211 547.709C442.871 557.82 459.553 562.875 479.268 562.875H494.939L485.84 626.57H466.63C428.716 626.57 396.363 614.438 371.087 593.206C349.856 607.36 326.096 618.482 301.326 626.57ZM381.703 389.482C375.637 430.935 379.176 468.343 390.297 497.663C419.617 463.288 439.332 422.846 445.398 380.383C450.454 341.458 441.86 320.226 423.156 320.226C403.946 320.226 388.275 342.469 381.703 389.482Z" fill="#FFE5E0"/>
</g>
<defs>
<clipPath id="clip0_295_333">
<rect width="2643" height="903" fill="white"/>
</clipPath>
</defs>
</svg>
