<svg width="2500" height="470" viewBox="0 0 2500 470" fill="none" xmlns="http://www.w3.org/2000/svg">
<path class="name" d="M1265.87 353.326C1209.99 353.326 1167.82 311.871 1167.82 257.079C1167.82 202.286 1209.99 160.831 1265.87 160.831C1312.37 160.831 1349.5 190.03 1357.79 231.845H1324.99C1317.42 207.333 1294.34 190.751 1265.87 190.751C1228.02 190.751 1199.9 219.229 1199.9 257.079C1199.9 294.929 1228.02 323.406 1265.87 323.406C1294.34 323.406 1317.42 306.824 1324.99 282.312H1357.79C1349.5 324.127 1312.37 353.326 1265.87 353.326ZM1370.21 349V89.4571H1401.21V193.995C1415.63 172.727 1438.7 160.831 1467.53 160.831C1512.23 160.831 1542.15 190.39 1542.15 235.45V349H1511.15V245.183C1511.15 212.38 1490.24 190.751 1457.44 190.751C1423.56 190.751 1401.21 212.74 1401.21 245.904V349H1370.21ZM1645.63 353.326C1593 353.326 1553.71 311.871 1553.71 257.079C1553.71 202.286 1593 160.831 1645.63 160.831C1676.27 160.831 1701.51 175.25 1717.01 198.321V165.157H1748.01V349H1717.01V315.836C1701.51 338.907 1676.27 353.326 1645.63 353.326ZM1651.4 323.406C1688.89 323.406 1717.01 294.929 1717.01 257.079C1717.01 219.229 1688.89 190.751 1651.4 190.751C1613.55 190.751 1585.43 219.229 1585.43 257.079C1585.43 294.929 1613.55 323.406 1651.4 323.406ZM1771.91 349V165.157H1802.91V190.03C1816.25 171.285 1837.15 160.831 1863.11 160.831C1892.31 160.831 1915.02 174.89 1925.47 197.96C1938.81 174.169 1961.88 160.831 1992.16 160.831C2033.61 160.831 2061.01 188.228 2061.01 230.403V349H2030.01V239.055C2030.01 209.856 2011.26 190.751 1982.43 190.751C1952.15 190.751 1931.96 210.217 1931.96 239.776V349H1900.96V239.055C1900.96 209.856 1882.21 190.751 1853.38 190.751C1823.1 190.751 1802.91 210.217 1802.91 239.776V349H1771.91ZM2082.42 417.49V165.157H2113.43V198.321C2128.93 175.25 2154.16 160.831 2184.8 160.831C2237.43 160.831 2277.08 202.286 2277.08 257.079C2277.08 311.871 2237.43 353.326 2184.8 353.326C2154.16 353.326 2128.93 338.907 2113.43 315.836V417.49H2082.42ZM2179.03 323.406C2216.88 323.406 2245 294.929 2245 257.079C2245 219.229 2216.88 190.751 2179.03 190.751C2141.54 190.751 2113.43 219.229 2113.43 257.079C2113.43 294.929 2141.54 323.406 2179.03 323.406ZM2348.2 353.326C2305.31 353.326 2277.19 330.616 2277.19 296.731H2308.91C2308.91 314.034 2324.77 325.209 2348.56 325.209C2370.91 325.209 2385.69 314.755 2385.69 299.975C2385.69 260.323 2280.07 281.23 2280.07 216.345C2280.07 182.82 2306.75 160.831 2346.76 160.831C2387.85 160.831 2414.53 182.46 2414.53 215.263H2382.81C2382.81 199.402 2368.39 188.949 2346.4 188.949C2325.49 188.949 2311.79 198.681 2311.79 212.74C2311.79 251.311 2417.41 230.764 2417.41 296.731C2417.41 330.616 2390.02 353.326 2348.2 353.326Z" fill="#0F485B"/>
<path class="name" d="M82.5965 349L73.5846 324.127C88.3642 317.639 102.062 309.348 114.679 299.615C97.0156 268.974 90.527 226.078 97.3761 177.413C106.388 115.051 134.505 85.1314 170.553 85.1314C210.566 85.1314 230.752 118.295 222.822 174.529C216.333 220.67 192.181 266.09 157.215 300.336C169.471 312.231 185.332 319.08 204.077 319.08H213.449L209.124 349H197.588C170.913 349 148.564 339.267 131.621 321.964C116.481 333.139 99.8994 342.511 82.5965 349ZM129.819 177.774C124.412 216.705 128.377 250.95 140.273 275.823C166.948 246.264 185.693 209.496 191.1 171.285C196.147 135.598 187.495 115.051 168.75 115.051C150.727 115.051 135.587 136.319 129.819 177.774ZM321.009 353.326C268.38 353.326 229.088 311.871 229.088 257.079C229.088 202.286 268.38 160.831 321.009 160.831C351.65 160.831 376.883 175.25 392.384 198.321V165.157H423.385V349H392.384V315.836C376.883 338.907 351.65 353.326 321.009 353.326ZM326.777 323.406C364.266 323.406 392.384 294.929 392.384 257.079C392.384 219.229 364.266 190.751 326.777 190.751C288.927 190.751 260.81 219.229 260.81 257.079C260.81 294.929 288.927 323.406 326.777 323.406ZM516.494 353.326C473.598 353.326 444.76 324.488 444.76 280.87V165.157H475.761V271.858C475.761 302.859 495.587 323.406 526.227 323.406C558.31 323.406 579.938 302.499 579.938 271.137V165.157H610.939V349H579.938V322.325C565.88 342.151 544.251 353.326 516.494 353.326ZM634.59 349V165.157H665.591V200.123C679.649 176.332 702.72 162.273 731.558 162.273H737.326V194.356H731.558C690.464 194.356 665.591 218.868 665.591 256.718V349H634.59ZM818.3 353.326C761.706 353.326 719.53 311.871 719.53 257.079C719.53 202.286 761.706 160.831 817.219 160.831C873.093 160.831 914.908 202.286 914.908 257.079C914.908 261.404 914.548 266.09 914.187 270.056H752.694C758.101 302.499 784.055 324.848 818.661 324.848C844.255 324.848 866.604 312.592 877.058 294.208H911.664C897.245 329.534 861.558 353.326 818.3 353.326ZM817.219 189.309C784.416 189.309 759.182 210.938 753.054 242.299H882.105C876.698 211.659 850.743 189.309 817.219 189.309ZM925.773 349V165.157H956.774V192.914C971.193 172.367 994.263 160.831 1023.1 160.831C1067.8 160.831 1097.72 190.39 1097.72 235.45V349H1066.72V245.183C1066.72 212.38 1045.81 190.751 1013.01 190.751C979.123 190.751 956.774 212.74 956.774 245.904V349H925.773Z" fill="#0F485B"/>
</svg>
