<svg width="2500" height="470" viewBox="0 0 2500 470" fill="none" xmlns="http://www.w3.org/2000/svg">
<path d="M1265.87 353.326C1209.99 353.326 1167.82 311.871 1167.82 257.079C1167.82 202.286 1209.99 160.831 1265.87 160.831C1312.37 160.831 1349.5 190.03 1357.79 231.845H1324.99C1317.42 207.333 1294.34 190.751 1265.87 190.751C1228.02 190.751 1199.9 219.229 1199.9 257.079C1199.9 294.929 1228.02 323.406 1265.87 323.406C1294.34 323.406 1317.42 306.824 1324.99 282.312H1357.79C1349.5 324.127 1312.37 353.326 1265.87 353.326ZM1370.21 349V89.4571H1401.21V193.995C1415.63 172.727 1438.7 160.831 1467.53 160.831C1512.23 160.831 1542.15 190.39 1542.15 235.45V349H1511.15V245.183C1511.15 212.38 1490.24 190.751 1457.44 190.751C1423.56 190.751 1401.21 212.74 1401.21 245.904V349H1370.21ZM1645.63 353.326C1593 353.326 1553.71 311.871 1553.71 257.079C1553.71 202.286 1593 160.831 1645.63 160.831C1676.27 160.831 1701.51 175.25 1717.01 198.321V165.157H1748.01V349H1717.01V315.836C1701.51 338.907 1676.27 353.326 1645.63 353.326ZM1651.4 323.406C1688.89 323.406 1717.01 294.929 1717.01 257.079C1717.01 219.229 1688.89 190.751 1651.4 190.751C1613.55 190.751 1585.43 219.229 1585.43 257.079C1585.43 294.929 1613.55 323.406 1651.4 323.406ZM1771.91 349V165.157H1802.91V190.03C1816.25 171.285 1837.15 160.831 1863.11 160.831C1892.31 160.831 1915.02 174.89 1925.47 197.96C1938.81 174.169 1961.88 160.831 1992.16 160.831C2033.61 160.831 2061.01 188.228 2061.01 230.403V349H2030.01V239.055C2030.01 209.856 2011.26 190.751 1982.43 190.751C1952.15 190.751 1931.96 210.217 1931.96 239.776V349H1900.96V239.055C1900.96 209.856 1882.21 190.751 1853.38 190.751C1823.1 190.751 1802.91 210.217 1802.91 239.776V349H1771.91ZM2082.42 417.49V165.157H2113.43V198.321C2128.93 175.25 2154.16 160.831 2184.8 160.831C2237.43 160.831 2277.08 202.286 2277.08 257.079C2277.08 311.871 2237.43 353.326 2184.8 353.326C2154.16 353.326 2128.93 338.907 2113.43 315.836V417.49H2082.42ZM2179.03 323.406C2216.88 323.406 2245 294.929 2245 257.079C2245 219.229 2216.88 190.751 2179.03 190.751C2141.54 190.751 2113.43 219.229 2113.43 257.079C2113.43 294.929 2141.54 323.406 2179.03 323.406ZM2348.2 353.326C2305.31 353.326 2277.19 330.616 2277.19 296.731H2308.91C2308.91 314.034 2324.77 325.209 2348.56 325.209C2370.91 325.209 2385.69 314.755 2385.69 299.975C2385.69 260.323 2280.07 281.23 2280.07 216.345C2280.07 182.82 2306.75 160.831 2346.76 160.831C2387.85 160.831 2414.53 182.46 2414.53 215.263H2382.81C2382.81 199.402 2368.39 188.949 2346.4 188.949C2325.49 188.949 2311.79 198.681 2311.79 212.74C2311.79 251.311 2417.41 230.764 2417.41 296.731C2417.41 330.616 2390.02 353.326 2348.2 353.326Z" fill="var(--color-primary)"/>
<path d="M925.773 349.001V165.158H956.774V192.914C971.193 172.367 994.264 160.832 1023.1 160.832C1067.8 160.832 1097.72 190.391 1097.72 235.451V349.001H1066.72V245.183C1066.72 212.38 1045.81 190.752 1013.01 190.752C979.124 190.752 956.774 212.741 956.774 245.904V349.001H925.773Z" fill="var(--color-primary)"/>
<path d="M818.302 353.326C761.707 353.326 719.531 311.872 719.531 257.079C719.531 202.287 761.707 160.832 817.22 160.832C873.094 160.832 914.909 202.287 914.909 257.079C914.909 261.405 914.549 266.091 914.188 270.056H752.695C758.102 302.499 784.057 324.849 818.662 324.849C844.256 324.849 866.606 312.593 877.059 294.208H911.665C897.246 329.535 861.559 353.326 818.302 353.326ZM817.22 189.31C784.417 189.31 759.184 210.938 753.056 242.3H882.106C876.699 211.659 850.745 189.31 817.22 189.31Z" fill="var(--color-primary)"/>
<path d="M634.594 349V165.157H665.595V200.123C679.653 176.332 702.724 162.273 731.562 162.273H737.329V194.356H731.562C690.468 194.356 665.595 218.868 665.595 256.718V349H634.594Z" fill="var(--color-primary)"/>
<path d="M516.493 353.325C473.596 353.325 444.758 324.487 444.758 280.869V165.156H475.759V271.857C475.759 302.858 495.585 323.405 526.225 323.405C558.308 323.405 579.936 302.498 579.936 271.136V165.156H610.937V348.999H579.936V322.324C565.878 342.15 544.249 353.325 516.493 353.325Z" fill="var(--color-primary)"/>
<path d="M321.007 353.326C268.378 353.326 229.086 311.872 229.086 257.079C229.086 202.287 268.378 160.832 321.007 160.832C351.648 160.832 376.881 175.251 392.382 198.322V165.158H423.383V349.001H392.382V315.837C376.881 338.907 351.648 353.326 321.007 353.326ZM326.775 323.407C364.265 323.407 392.382 294.929 392.382 257.079C392.382 219.229 364.265 190.752 326.775 190.752C288.925 190.752 260.808 219.229 260.808 257.079C260.808 294.929 288.925 323.407 326.775 323.407Z" fill="var(--color-primary)"/>
<path d="M78.5395 352.598L69 325.5C86.2848 317.912 107.245 303.883 122 292.5C101.343 256.666 87.8143 208.838 95.8244 151.925C106.364 78.9912 139.247 44 181.405 44C228.201 44 251.809 82.7855 242.535 148.552C234.946 202.515 203.393 256.95 162.5 297C176.834 310.912 197.117 322 219.039 322H230L226.515 352.598H213.024C181.827 352.598 159.314 336.736 139.5 316.5C121.794 329.569 98.7754 345.009 78.5395 352.598ZM127.5 148.552C121.176 194.083 131.088 244.411 145 273.5C176.197 238.93 206.7 193.24 213.024 148.552C218.926 106.816 203.328 73 181.405 73C160.326 73 134.245 100.07 127.5 148.552Z" fill="var(--color-primary)"/>
</svg>
