<svg width="128" height="128" viewBox="0 0 128 128" fill="none" xmlns="http://www.w3.org/2000/svg">
<path d="M67.5041 31.3508C67.3724 31.4825 68.4257 34.0061 62.4569 41.9059C58.3095 47.4139 53.1527 55.6868 48.9833 60.9314C48.9833 60.9314 71.4101 74.4051 70.8396 76.775C69.3474 82.8097 51.3971 104.161 51.0899 104.644C50.7827 105.127 43.2778 108.748 43.2778 108.748L61.6231 78.1575L39.1523 62.5114C39.1523 62.5114 67.4821 31.3947 67.5041 31.3728V31.3508Z" fill="#231F20"/>
<path d="M90.8742 75.7658C91.0717 75.6999 91.5544 75.5024 91.2033 75.3488C91.1375 75.283 91.0717 75.2172 90.9839 75.1513L90.8522 75.0416L90.0622 74.5369C88.7456 73.7689 87.4728 72.8911 86.1123 72.2108C83.3912 70.7844 80.6702 69.402 78.0369 67.7781L74.46 65.7593L71.9584 64.3329C70.9709 63.7843 69.9834 63.1479 69.0179 62.5115C68.5571 62.2043 68.3596 61.8313 68.0962 61.4802L67.7012 60.9535C67.6135 60.778 67.5915 60.6024 67.5257 60.4269L67.4818 60.2952V60.2294H67.4599C66.7796 60.3391 68.3815 60.0538 68.2279 60.0758V60.0319C68.2279 60.0319 68.2279 59.8563 68.2279 59.7685V59.2419L68.2718 58.0569C68.4254 57.618 68.5571 57.1572 68.9082 56.7403C69.6543 55.8625 70.4443 55.0067 71.2342 54.1728L72.88 52.4612L78.5197 46.6679L89.7111 35.0815L90.3695 34.4012L90.7425 33.9623L91.3569 33.2601L91.7739 32.7554L91.9714 32.514C91.9714 32.514 92.1469 32.3385 92.0153 32.2726C91.6642 32.0312 91.2472 31.8996 90.8522 31.746L89.5575 31.2413L87.1217 30.2099C84.269 29.003 81.4163 27.7302 78.7172 26.1722C75.9961 24.6142 73.3409 22.9025 71.1904 20.5106C70.0712 18.7551 70.5101 18.7112 72.4851 18.7331C73.4945 18.7112 74.7233 18.9087 76.1717 19.1281C77.5761 19.4134 79.0463 19.9401 80.5385 20.6862C83.501 22.1784 86.5293 23.5389 89.6014 24.8994L91.9275 25.9089C93.2222 26.4575 95.0874 27.1816 96.4699 27.8838C97.8963 28.6738 98.7301 29.6174 98.796 30.6707L98.7521 30.9121V31.0438H98.7301C99.2349 30.956 98.8618 31.0218 98.9715 30.9999V31.0218V31.0657L98.9935 31.4387C98.9935 31.7021 99.0813 31.8996 98.9715 32.2287C98.7302 32.8432 98.6643 33.4357 98.1157 34.094C97.3257 35.1254 96.448 36.1567 95.5921 37.1662L93.9025 39.1411L91.1375 42.3011C89.2503 44.3638 87.2315 46.2949 85.2345 48.2479C82.8207 50.574 80.4727 53.0537 78.1686 55.5553L75.7986 58.1666L75.2719 58.803C75.1183 58.9347 75.4036 58.9786 75.4694 59.0663L75.8205 59.2858L76.5886 59.7685L81.3943 62.5774C83.1279 63.5649 84.8615 64.5962 86.5293 65.7154C88.2189 66.7906 89.9086 67.9098 91.6642 68.8973L94.6047 70.6309C95.9213 71.4428 97.3257 72.2328 98.4449 73.1105L99.0154 73.6372L99.3885 74.1639C99.6079 74.4491 99.8054 74.7344 99.8713 74.9977L99.959 75.2172C100.069 75.2172 99.0812 75.261 99.4982 75.2172V75.2611V75.3269L99.4543 75.4366L99.3007 75.8535C99.0593 76.3802 99.0813 77.0605 98.2693 77.6529C97.5671 78.2454 96.7332 78.816 95.9433 79.3865L93.683 80.9226L90.4353 83.0951C89.4039 83.907 88.3506 84.675 87.2753 85.3773C80.736 89.788 73.9553 93.8257 67.4599 98.1926C62.3908 101.528 57.6509 105.171 52.6696 108.528C51.5724 109.274 50.541 110.042 49.3999 110.767C47.3152 112.127 45.8669 112.873 44.7039 113.158C44.1333 113.312 43.6506 113.4 43.1897 113.378C42.7289 113.334 42.29 113.202 41.895 113.071C41.522 112.939 41.127 112.873 40.8856 112.741C40.1395 112.434 41.105 110.174 43.87 107.826C52.1868 100.979 61.4691 94.5718 70.8392 88.23C74.3284 85.882 77.8394 83.534 81.3285 81.1859L84.0496 79.584L85.4101 78.7721C85.9148 78.5746 86.3976 78.3552 86.8803 78.1357L89.5136 76.4021L90.545 75.7219C90.6767 75.6341 90.6328 75.678 90.6767 75.656L90.8083 75.7438L90.8742 75.7658Z" fill="#231F20"/>
<path d="M44.573 60.6902C44.573 60.6902 44.4633 60.8658 44.6608 60.8219C44.5949 61.0852 44.3974 60.8439 45.8018 61.8752L49.0057 64.1135C51.1781 65.6057 53.3945 67.076 55.6108 68.5462C57.4541 69.7531 59.3852 70.7845 61.2066 72.0353L63.0938 73.3081C64.0154 73.8567 64.7176 74.5808 65.354 75.2392C65.7051 75.5464 65.9684 75.8755 66.1879 76.2266C66.2976 76.4022 66.3854 76.5778 66.4512 76.7533C66.517 76.8411 66.4512 76.9508 66.539 77.0605L66.4512 77.3458L65.6832 79.6499L62.5671 83.9071L60.3069 87.089C58.8147 89.2175 57.3883 91.4119 55.9619 93.6283C54.0748 96.481 52.3412 99.4654 50.5857 102.406C48.3035 106.136 46.1749 110.196 42.3127 112.807C40.8205 113.378 41.1278 113.378 41.1058 111.908C41.0619 111.14 41.1936 110.218 41.2375 109.055C41.3911 107.958 41.7641 106.839 42.3127 105.741C46.8113 98.3682 51.0465 90.4903 56.7519 83.2707C57.8053 81.8663 58.8586 80.4618 59.9338 79.0355L60.1752 78.7063C60.1752 78.7063 60.4385 78.4649 60.263 78.3991C60.0655 78.2455 59.8241 78.0919 59.6047 77.9602L56.0497 75.8755L48.2596 71.1795L44.3755 68.7437L42.4444 67.471L40.2061 65.9349C39.3942 65.3424 38.9114 64.5743 38.1653 64.0257C37.88 63.6088 37.5289 63.2358 37.3314 62.7969C37.0681 62.358 37.2217 61.8313 37.3314 61.4144C37.5728 60.5147 38.2092 59.5711 39.0211 58.6933L41.1497 56.3453L42.7516 54.6556C46.6796 50.5521 50.7393 46.6241 54.4917 42.4767C57.4103 39.2728 59.9997 35.8934 62.611 32.5141C63.1815 31.768 63.7301 31.0219 64.2788 30.2758C66.517 27.6205 67.6581 27.1158 69.0406 27.2255C69.3698 27.2475 69.6989 27.2255 69.9842 27.2914C70.862 27.5108 70.6864 29.2005 69.4795 31.6363C65.4418 38.4828 59.868 44.5175 54.36 50.5301C52.2973 52.7245 50.2126 54.919 48.1279 57.1134L45.0996 60.383L44.9241 60.5805H44.9021H44.8582C44.8582 60.5805 44.7924 60.6683 44.7485 60.7122H44.551L44.573 60.6902Z" fill="#231F20"/>
<path d="M31.4978 18.165C31.5229 21.4924 26.7515 22.3588 25.1945 19.5964C22.633 15.0635 31.3723 12.7281 31.4978 18.1022C31.4978 18.1147 31.4978 18.1399 31.4978 18.165Z" fill="#231F20"/>
<path d="M14.7732 66.2055C14.7983 69.5329 10.0269 70.3993 8.46993 67.6369C5.90843 63.1041 14.6476 60.7686 14.7732 66.1427C14.7732 66.1553 14.7732 66.1804 14.7732 66.2055Z" fill="#231F20"/>
<path d="M120.541 43.3092C120.554 45.3935 117.565 45.9335 116.586 44.2132C114.979 41.3755 120.466 39.9064 120.541 43.2715C120.541 43.2715 120.541 43.2966 120.541 43.3092Z" fill="#231F20"/>
<path d="M100.451 107.347C100.464 109.431 97.4753 109.971 96.4959 108.251C94.8887 105.413 100.376 103.944 100.451 107.309C100.451 107.309 100.451 107.334 100.451 107.347Z" fill="#231F20"/>
<path d="M40.9277 30.9975C40.9402 33.0819 37.9518 33.6218 36.9724 31.9016C35.3652 29.0639 40.8523 27.5948 40.9277 30.9599C40.9277 30.9599 40.9277 30.985 40.9277 30.9975Z" fill="#231F20"/>
</svg>
