<svg width="3109" height="1735" viewBox="0 0 3109 1735" fill="none" xmlns="http://www.w3.org/2000/svg">
<path d="M1584.88 1226.03C1519.86 1226.03 1470.78 1177.79 1470.78 1114.03C1470.78 1050.27 1519.86 1002.03 1584.88 1002.03C1638.99 1002.03 1682.19 1036.01 1691.84 1084.67H1653.67C1644.86 1056.15 1618.01 1036.85 1584.88 1036.85C1540.83 1036.85 1508.11 1069.99 1508.11 1114.03C1508.11 1158.08 1540.83 1191.22 1584.88 1191.22C1618.01 1191.22 1644.86 1171.92 1653.67 1143.4H1691.84C1682.19 1192.06 1638.99 1226.03 1584.88 1226.03ZM1706.29 1221V918.978H1742.37V1040.63C1759.15 1015.88 1785.99 1002.03 1819.55 1002.03C1871.56 1002.03 1906.38 1036.43 1906.38 1088.87V1221H1870.31V1100.19C1870.31 1062.02 1845.98 1036.85 1807.8 1036.85C1768.37 1036.85 1742.37 1062.44 1742.37 1101.03V1221H1706.29ZM2026.8 1226.03C1965.56 1226.03 1919.83 1177.79 1919.83 1114.03C1919.83 1050.27 1965.56 1002.03 2026.8 1002.03C2062.46 1002.03 2091.82 1018.81 2109.86 1045.66V1007.07H2145.93V1221H2109.86V1182.41C2091.82 1209.25 2062.46 1226.03 2026.8 1226.03ZM2033.51 1191.22C2077.14 1191.22 2109.86 1158.08 2109.86 1114.03C2109.86 1069.99 2077.14 1036.85 2033.51 1036.85C1989.47 1036.85 1956.75 1069.99 1956.75 1114.03C1956.75 1158.08 1989.47 1191.22 2033.51 1191.22ZM2173.74 1221V1007.07H2209.82V1036.01C2225.34 1014.2 2249.67 1002.03 2279.87 1002.03C2313.85 1002.03 2340.27 1018.39 2352.44 1045.24C2367.96 1017.55 2394.8 1002.03 2430.04 1002.03C2478.28 1002.03 2510.16 1033.91 2510.16 1082.99V1221H2474.09V1093.06C2474.09 1059.08 2452.27 1036.85 2418.71 1036.85C2383.48 1036.85 2359.99 1059.5 2359.99 1093.9V1221H2323.91V1093.06C2323.91 1059.08 2302.1 1036.85 2268.54 1036.85C2233.31 1036.85 2209.82 1059.5 2209.82 1093.9V1221H2173.74ZM2535.08 1300.7V1007.07H2571.15V1045.66C2589.19 1018.81 2618.56 1002.03 2654.21 1002.03C2715.45 1002.03 2761.6 1050.27 2761.6 1114.03C2761.6 1177.79 2715.45 1226.03 2654.21 1226.03C2618.56 1226.03 2589.19 1209.25 2571.15 1182.41V1300.7H2535.08ZM2647.5 1191.22C2691.54 1191.22 2724.26 1158.08 2724.26 1114.03C2724.26 1069.99 2691.54 1036.85 2647.5 1036.85C2603.87 1036.85 2571.15 1069.99 2571.15 1114.03C2571.15 1158.08 2603.87 1191.22 2647.5 1191.22ZM2844.36 1226.03C2794.44 1226.03 2761.72 1199.61 2761.72 1160.18H2798.64C2798.64 1180.31 2817.09 1193.31 2844.78 1193.31C2870.78 1193.31 2887.98 1181.15 2887.98 1163.95C2887.98 1117.81 2765.08 1142.14 2765.08 1066.63C2765.08 1027.62 2796.12 1002.03 2842.68 1002.03C2890.5 1002.03 2921.54 1027.2 2921.54 1065.37H2884.63C2884.63 1046.92 2867.85 1034.75 2842.26 1034.75C2817.93 1034.75 2801.99 1046.08 2801.99 1062.44C2801.99 1107.32 2924.9 1083.41 2924.9 1160.18C2924.9 1199.61 2893.02 1226.03 2844.36 1226.03Z" fill="#083825"/>
<path d="M1473.36 869L1460.62 833.842C1481.51 824.671 1500.88 812.951 1518.71 799.194C1493.74 755.883 1484.57 695.249 1494.25 626.462C1506.99 538.312 1546.74 496.021 1597.69 496.021C1654.25 496.021 1682.78 542.898 1671.57 622.385C1662.4 687.606 1628.26 751.807 1578.84 800.213C1596.16 817.027 1618.58 826.709 1645.08 826.709H1658.32L1652.21 869H1635.9C1598.2 869 1566.61 855.243 1542.66 830.785C1521.26 846.58 1497.82 859.828 1473.36 869ZM1540.11 626.971C1532.47 682.001 1538.07 730.407 1554.89 765.565C1592.59 723.783 1619.09 671.81 1626.73 617.8C1633.87 567.356 1621.64 538.312 1595.14 538.312C1569.66 538.312 1548.26 568.375 1540.11 626.971ZM1810.36 875.114C1735.97 875.114 1680.43 816.518 1680.43 739.069C1680.43 661.62 1735.97 603.023 1810.36 603.023C1853.67 603.023 1889.34 623.404 1911.25 656.015V609.137H1955.07V869H1911.25V822.123C1889.34 854.733 1853.67 875.114 1810.36 875.114ZM1818.51 832.823C1871.5 832.823 1911.25 792.57 1911.25 739.069C1911.25 685.568 1871.5 645.314 1818.51 645.314C1765.01 645.314 1725.27 685.568 1725.27 739.069C1725.27 792.57 1765.01 832.823 1818.51 832.823ZM2086.68 875.114C2026.04 875.114 1985.28 834.352 1985.28 772.698V609.137H2029.1V759.96C2029.1 803.78 2057.13 832.823 2100.44 832.823C2145.78 832.823 2176.36 803.27 2176.36 758.941V609.137H2220.18V869H2176.36V831.294C2156.48 859.319 2125.91 875.114 2086.68 875.114ZM2253.61 869V609.137H2297.43V658.562C2317.3 624.933 2349.91 605.061 2390.67 605.061H2398.82V650.41H2390.67C2332.58 650.41 2297.43 685.058 2297.43 738.559V869H2253.61ZM2513.28 875.114C2433.29 875.114 2373.67 816.518 2373.67 739.069C2373.67 661.62 2433.29 603.023 2511.75 603.023C2590.73 603.023 2649.84 661.62 2649.84 739.069C2649.84 745.183 2649.33 751.807 2648.82 757.412H2420.55C2428.19 803.27 2464.88 834.861 2513.79 834.861C2549.97 834.861 2581.56 817.537 2596.34 791.551H2645.25C2624.87 841.485 2574.43 875.114 2513.28 875.114ZM2511.75 643.276C2465.39 643.276 2429.72 673.848 2421.06 718.178H2603.47C2595.83 674.867 2559.14 643.276 2511.75 643.276ZM2665.2 869V609.137H2709.01V648.372C2729.4 619.328 2762.01 603.023 2802.77 603.023C2865.95 603.023 2908.24 644.805 2908.24 708.497V869H2864.42V722.254C2864.42 675.886 2834.87 645.314 2788.5 645.314C2740.61 645.314 2709.01 676.396 2709.01 723.273V869H2665.2Z" fill="#083825"/>
<path d="M601.911 406.179C651.055 327.255 765.945 327.255 815.089 406.179L818.331 411.387C846.735 457.003 901.018 479.488 953.359 467.317L959.334 465.927C1049.89 444.87 1131.13 526.108 1110.07 616.666L1108.68 622.641C1096.51 674.982 1119 729.265 1164.61 757.669L1169.82 760.911C1248.75 810.055 1248.75 924.945 1169.82 974.089L1164.61 977.331C1119 1005.74 1096.51 1060.02 1108.68 1112.36L1110.07 1118.33C1131.13 1208.89 1049.89 1290.13 959.334 1269.07L953.359 1267.68C901.018 1255.51 846.735 1278 818.331 1323.61L815.089 1328.82C765.945 1407.75 651.055 1407.75 601.911 1328.82L598.669 1323.61C570.265 1278 515.982 1255.51 463.641 1267.68L457.666 1269.07C367.108 1290.13 285.87 1208.89 306.927 1118.33L308.317 1112.36C320.488 1060.02 298.003 1005.74 252.387 977.331L247.179 974.089C168.255 924.945 168.255 810.055 247.179 760.911L252.387 757.669C298.003 729.265 320.488 674.982 308.317 622.641L306.927 616.666C285.87 526.108 367.108 444.87 457.666 465.927L463.641 467.317C515.982 479.488 570.265 457.003 598.669 411.387L601.911 406.179Z" fill="#083825"/>
<path d="M536.48 1134.44L509.441 1054.1C536.48 1043.29 562.745 1029.38 587.466 1013.16C553.475 949.813 541.115 865.608 554.247 769.816C573.56 633.853 639.997 568.961 728.064 568.961C824.629 568.961 877.933 642.35 859.392 768.271C846.259 857.883 799.908 945.178 730.382 1013.93C752.785 1029.38 778.278 1037.11 808.406 1037.11H832.354L818.449 1134.44H789.093C731.154 1134.44 681.713 1115.9 643.087 1083.46C610.641 1105.09 574.333 1122.08 536.48 1134.44ZM659.31 772.133C650.04 835.48 655.447 892.646 672.443 937.452C717.249 884.921 747.377 823.12 756.647 758.228C764.373 698.744 751.24 666.298 722.656 666.298C693.301 666.298 669.353 700.289 659.31 772.133Z" fill="#FFE5E0"/>
</svg>
