<svg width="2000" height="2000" viewBox="0 0 2000 2000" fill="none" xmlns="http://www.w3.org/2000/svg">
<g clip-path="url(#clip0_380_83)">
<path d="M816.145 204.267C900.914 68.1303 1099.09 68.1304 1183.85 204.267L1189.45 213.25C1238.44 291.933 1332.08 330.717 1422.36 309.724L1432.66 307.327C1588.87 271.004 1729 411.133 1692.67 567.337L1690.28 577.643C1669.28 667.925 1708.07 761.558 1786.75 810.552L1795.73 816.145C1931.87 900.914 1931.87 1099.09 1795.73 1183.85L1786.75 1189.45C1708.07 1238.44 1669.28 1332.08 1690.28 1422.36L1692.67 1432.66C1729 1588.87 1588.87 1729 1432.66 1692.67L1422.36 1690.28C1332.07 1669.28 1238.44 1708.07 1189.45 1786.75L1183.85 1795.73C1099.09 1931.87 900.914 1931.87 816.145 1795.73L810.552 1786.75C761.558 1708.07 667.925 1669.28 577.643 1690.28L567.336 1692.67C411.133 1729 271.004 1588.87 307.327 1432.66L309.724 1422.36C330.717 1332.07 291.933 1238.44 213.249 1189.45L204.267 1183.85C68.1303 1099.09 68.1304 900.914 204.267 816.145L213.25 810.552C291.933 761.558 330.717 667.925 309.724 577.643L307.327 567.336C271.004 411.133 411.133 271.004 567.337 307.327L577.643 309.724C667.925 330.717 761.558 291.933 810.552 213.249L816.145 204.267Z" fill="#BC492D"/>
<path d="M703.279 1460.45L656.641 1321.87C703.279 1303.21 748.584 1279.23 791.225 1251.24C732.594 1141.98 711.274 996.734 733.927 831.502C767.24 596.978 881.836 485.047 1033.74 485.047C1200.31 485.047 1292.25 611.636 1260.27 828.837C1237.62 983.409 1157.67 1133.98 1037.74 1252.58C1076.38 1279.23 1120.36 1292.55 1172.33 1292.55H1213.63L1189.65 1460.45H1139.01C1039.07 1460.45 953.792 1428.47 887.166 1372.5C831.2 1409.81 768.572 1439.13 703.279 1460.45ZM915.149 835.499C899.159 944.766 908.487 1043.37 937.802 1120.66C1015.09 1030.05 1067.06 923.445 1083.05 811.514C1096.37 708.91 1073.72 652.944 1024.42 652.944C973.78 652.944 932.472 711.575 915.149 835.499Z" fill="#FFF3F0"/>
</g>
<defs>
<clipPath id="clip0_380_83">
<rect width="2000" height="2000" fill="white"/>
</clipPath>
</defs>
</svg>
