<svg width="500" height="500" viewBox="0 0 500 500" fill="none" xmlns="http://www.w3.org/2000/svg">
<g clip-path="url(#clip0_294_330)">
<path d="M199.816 32.6856C222.97 -4.49932 277.1 -4.49933 300.254 32.6856L301.782 35.139C315.164 56.631 340.74 67.2246 365.399 61.4904L368.215 60.8357C410.881 50.9144 449.156 89.1898 439.235 131.856L438.58 134.671C432.846 159.331 443.439 184.906 464.931 198.289L467.385 199.816C504.57 222.97 504.57 277.1 467.385 300.254L464.931 301.782C443.439 315.164 432.846 340.74 438.58 365.399L439.235 368.214C449.156 410.881 410.881 449.156 368.215 439.235L365.399 438.58C340.74 432.846 315.164 443.439 301.782 464.931L300.254 467.385C277.1 504.57 222.97 504.57 199.816 467.385L198.289 464.931C184.906 443.439 159.331 432.846 134.671 438.58L131.856 439.235C89.1898 449.156 50.9144 410.881 60.8357 368.215L61.4903 365.399C67.2246 340.74 56.631 315.164 35.139 301.782L32.6856 300.254C-4.49932 277.1 -4.49933 222.97 32.6856 199.816L35.139 198.289C56.631 184.906 67.2246 159.331 61.4904 134.671L60.8357 131.856C50.9144 89.1898 89.1898 50.9144 131.856 60.8357L134.671 61.4903C159.331 67.2246 184.906 56.631 198.289 35.139L199.816 32.6856Z" fill="#083825"/>
<path d="M168.989 375.801L156.25 337.948C168.989 332.852 181.364 326.301 193.011 318.657C176.996 288.812 171.173 249.139 177.36 204.007C186.459 139.948 217.761 109.375 259.253 109.375C304.749 109.375 329.863 143.952 321.128 203.279C314.941 245.5 293.102 286.628 260.345 319.021C270.9 326.301 282.911 329.94 297.106 329.94H308.389L301.838 375.801H288.007C260.709 375.801 237.415 367.065 219.217 351.779C203.93 361.97 186.823 369.977 168.989 375.801ZM226.86 205.099C222.492 234.944 225.04 261.878 233.048 282.988C254.158 258.238 268.353 229.121 272.72 198.547C276.36 170.522 270.172 155.235 256.705 155.235C242.875 155.235 231.592 171.25 226.86 205.099Z" fill="#FFE5E0"/>
</g>
<defs>
<clipPath id="clip0_294_330">
<rect width="500" height="500" fill="white"/>
</clipPath>
</defs>
</svg>
