<?xml version="1.0" encoding="UTF-8"?><svg id="Layer_1" xmlns="http://www.w3.org/2000/svg" width="128" height="128" viewBox="0 0 128 128"><defs><style>.cls-1{fill:#231f20;stroke-width:0px;}</style></defs><path class="cls-1" d="M18.32,38.17c.45-.62,1-1.27,1.71-1.81.68-.46,1.36-.83,2.05-1.1.5-.22.98-.43,1.48-.59,1.78-.5,3.56-.79,5.32-1.02.78-.11,1.56-.25,2.32-.39.49-.1.98-.2,1.48-.21.25-.02.5-.03.75-.02.25-.01.51.09.77.13.32.09.3.19.08.49-.16.21-.32.42-.46.6-.2.21-.44.37-.71.47-.96.4-1.96.46-2.93.65-.98.16-1.96.3-2.95.42-1.19.15-2.34.6-3.44,1.02-1.18.48-2.38,1.01-3.05,1.9-.47.57-.88,1.26-1.25,1.99-.55,1.1-1.03,2.27-1.36,3.47-.25.94-.39,1.89-.56,2.83-.05.2-.08.41-.13.61-.22.76-.41.97-.88,1.06-.11.02-.22.06-.32.06-.34.03-.59-.36-.64-.99-.23-1.88.09-3.77.75-5.59.49-1.36,1.06-2.7,1.93-4.01l.05.03Z"/><path class="cls-1" d="M18.15,92.25c-.56-.98-.99-2.05-1.25-3.13-.1-.39-.24-.77-.32-1.16-.23-1.4-.32-2.77-.34-4.12-.01-.6-.06-1.19-.12-1.78-.05-.37-.09-.75-.06-1.13,0-.38.04-.76.16-1.15.07-.25.08-.22.24-.04.08.09.22.21.39.37.15.15.28.34.37.55.38.74.41,1.51.56,2.26.12.76.21,1.5.21,2.27.02.91.31,1.8.55,2.66.25.96.62,1.85,1.03,2.75.27.55.56,1.09.91,1.59.53.76,1.12,1.51,1.83,2.11.54.48,1.21.77,1.79,1.16l.4.24c.48.33.58.52.52.93-.01.09-.02.19-.04.27-.07.28-.42.4-.91.31-.7-.18-1.47-.36-2.09-.79-.64-.4-1.22-.9-1.76-1.44-.81-.8-1.5-1.72-2.09-2.7l.04-.03Z"/><path class="cls-1" d="M98.81,92.31l.35-.62c.1-.18.21-.34.3-.53.19-.37.36-.77.51-1.19.11-.3.14-.63.25-.94.36-1.11.62-2.28.9-3.46.12-.52.18-1.06.24-1.59.04-.34.09-.68.2-1.02.13-.33.29-.66.4-1,.08-.21.12-.17.21.02.07.14.14.28.2.4.09.16.22.36.31.56.09.18.13.36.15.54.03.18.07.36.08.53,0,.35,0,.71,0,1.06-.02.71-.09,1.42-.31,2.12-.24.84-.27,1.74-.47,2.62-.23.96-.53,1.93-.99,2.88l-.83,1.57c-.41.81-1.12,1.74-2.07,2.24-.72.4-1.45.66-2.17.81-.16.03-.31.08-.47.08-.6.01-.78-.15-.91-.67-.03-.12-.06-.24-.08-.35-.05-.4.17-.74.54-.92.55-.29,1.09-.45,1.51-.68.43-.22.71-.33.92-.56.34-.29.77-1.06,1.19-1.92l.05.02Z"/><path class="cls-1" d="M99.64,34.31c.4.43.73.91,1.02,1.4.1.18.25.33.33.52.34.65.44,1.39.58,2.06.07.3.1.61.16.9.07.38.12.76.07,1.15-.01.12-.13.12-.28.05-.15-.07-.37-.21-.48-.4-.18-.33-.36-.65-.54-.98-.17-.32-.24-.66-.33-1.01-.11-.42-.38-.77-.58-1.14-.23-.41-.49-.8-.8-1.16-.19-.22-.39-.44-.62-.62-.34-.29-.71-.55-1.12-.75-.31-.17-.68-.18-.99-.33-.07-.02-.15-.04-.22-.07-.26-.12-.32-.24-.32-.52,0-.06,0-.12,0-.18.02-.19.18-.33.44-.37.77-.19,1.59-.06,2.28.33.51.3.98.68,1.39,1.1l-.03.03Z"/><path class="cls-1" d="M47.95,111.88s4.34-6.03,10.72-5.84c4.45.13,9.42,4.31,9.99,6.42.33,1.23-20.7-.58-20.7-.58Z"/><path class="cls-1" d="M58.48,100.45v-.9s-.03-.39-.03-.39c0-.06-.03-.09.02-.11.29-.07.65-.27.81-.33.1-.06.19-.14.22-.15.04-.07.03-.05.04-.05l-.15.06s.08-.04.08-.09c0-.01.02.05.04.03.05.05.13.1.2.12.07.02.14.02.29.08.12.04.25.07.38.1l.19.03s0,0,.02,0v.04c-.03.06-.05.16-.07.26-.04.28,0,.6-.04.91-.12,1.14-.23,2.29-.35,3.43-.05.51-.04,1.03-.04,1.54,0,.33-.05.66-.11,1-.05.17-.05.34-.16.5-.1.16-.23.33-.38.47-.22.17-.12.15-.21-.04-.05-.1-.2-.24-.37-.39-.08-.08-.2-.16-.27-.24-.05-.08-.1-.17-.13-.25-.09-.31-.23-.63-.3-.95-.02-.32-.04-.64-.04-.97-.01-.65,0-1.31.11-1.98.15-.8.03-1.63.07-2.48.01-.23.03-.46.05-.72.01-.13.03-.25.06-.42,0-.06.04-.2.08-.31.02-.06.06-.14.09-.21l.06-.1.03-.05s.08-.1.14-.14c.64-.47,1.12-.19,1.41.08l-1.18-.18c.13-.07.31-.13.49-.13.17,0,.38.06.42.09.15.07.3.2.39.31.06.08.13.22.15.27.05.12.07.22.09.29.04.16.06.29.07.42.03.25.05.49.07.73.04.58.05,1.14.07,1.7.03.85,0,1.7.06,2.54.05.65.22,1.3.32,1.96.02.15.06.29.07.44,0,.55-.24.72-.84.79-.14.02-.28.04-.42.04-.46.01-.84-.23-1.02-.6-.42-1.1-.44-2.25-.48-3.43-.02-.87,0-1.75-.05-2.6h.06Z"/><path class="cls-1" d="M48.49,57.66c-3.19,2.33-6.19,5.01-9.04,7.74-.32.3-.71.63-.93,1.01-.54.94.08,1.78.84,2.3,1.33.92,2.89,1.57,4.34,2.28,2.05.99,4.11,1.94,6.14,2.96.69.35,1.54.18,1.95-.51.37-.63.18-1.6-.51-1.95-3.18-1.61-6.48-2.99-9.6-4.72-.24-.13-.48-.27-.72-.42-.07-.05-.16-.13-.24-.16-.02,0,.27.26.09.05l.19.24c.28.6.24,1.09-.1,1.48-.04.19-.15.15-.06.09.05-.04.09-.1.13-.14.16-.15.31-.31.47-.46,1.21-1.17,2.47-2.29,3.74-3.4.85-.74,1.71-1.48,2.57-2.2.81-.67,1.44-1.19,2.19-1.73.62-.45.93-1.24.51-1.95-.36-.61-1.33-.97-1.95-.51h0Z"/><path class="cls-1" d="M54.23,81c4.36-8.71,8.98-17.28,13.44-25.93.84-1.63-1.62-3.07-2.46-1.44-4.46,8.65-9.08,17.22-13.44,25.93-.82,1.64,1.64,3.08,2.46,1.44h0Z"/><path class="cls-1" d="M71.4,61.37c1.69,1.37,3.36,2.76,5.01,4.18.77.67,1.54,1.34,2.29,2.03.24.23.49.46.72.7.08.08.15.19.24.26.15.12-.19-.28-.12-.15-.09-.16-.22-.71-.11-.98l.37-.63c.28-.24-.35.12-.42.16-.2.11-.4.21-.61.32-.45.23-.9.46-1.35.69-.89.45-1.79.89-2.69,1.33-1.93.94-3.85,1.88-5.75,2.88-1.63.85-.19,3.31,1.44,2.46,2.19-1.14,4.41-2.22,6.62-3.3,1.03-.5,2.05-1.01,3.06-1.54.95-.5,2.43-1.03,2.07-2.39-.22-.83-1.13-1.5-1.73-2.05-1.08-.99-2.2-1.94-3.32-2.89-1.23-1.04-2.47-2.07-3.72-3.09-.6-.48-1.43-.58-2.02,0-.5.5-.6,1.53,0,2.02h0Z"/><path class="cls-1" d="M87.99,58.21c-.15,0-.11-.27.04-.29,1.58-.18,6.19-.25,7.7-3.79,1.42-3.31,2.01-7.76,2.01-7.76,0,0-.46,5.23,2.45,9.16,1.25,1.68,4.35,2.13,7.09,2.4,0,0-9.7.39-9.7,11.51,0,0,0-10.86-9.6-11.22Z"/><path class="cls-1" d="M107.56,38.92c-.12,0-.09-.21.03-.22,1.24-.14,4.85-.2,6.04-2.98,1.11-2.6,1.58-6.09,1.58-6.09,0,0-.36,4.11,1.92,7.18.98,1.32,3.41,1.67,5.56,1.88,0,0-7.61.31-7.61,9.03,0,0,0-8.52-7.53-8.81Z"/><path class="cls-1" d="M105.85,71.46c-.11,0-.08-.19.03-.21,1.15-.13,4.5-.18,5.6-2.76,1.03-2.41,1.46-5.64,1.46-5.64,0,0-.34,3.8,1.78,6.66.91,1.22,3.16,1.55,5.15,1.74,0,0-7.05.29-7.05,8.37,0,0,0-7.89-6.98-8.16Z"/><path class="cls-1" d="M18.63,40.96c-.6,2.99-.87,6.19-1.09,9.35-.2,3.18-.3,6.37-.35,9.57-.08,6.4.05,12.82.42,19.21.14,2.33.33,4.66.58,6.96.13,1.15.27,2.3.44,3.43.17,1.11.38,2.27.66,3.18l.09.28s.04.07.05.11c.05.08.06.11.19.21.2.18.59.39.98.57.81.35,1.75.64,2.7.87,1.92.46,3.93.79,5.96,1.04,4.05.51,8.16.8,12.28,1.01,8.24.39,16.51.44,24.77.27,7.33-.17,14.71-.56,21.93-1.24,2.32-.23,4.64-.5,6.91-.87,1.13-.19,2.27-.41,3.29-.71.57-.2.71-.22.81-.45,0-.02.16-.34.22-.57.09-.24.16-.5.23-.77.58-2.15.86-4.49,1.22-6.77.36-2.3.57-4.62.85-6.93.29-1.44.31-2.07.35-2.04.04.04.12.74.38,1.99.27,1.25.43,3.03.58,5.19.06,1.08.13,2.26.11,3.51-.05,1.25-.15,2.58-.36,3.97-.11.62-.2,1.24-.36,1.89-.06.31-.16.65-.27,1-.06.18-.09.32-.17.53-.09.18-.25.56-.39.81-.37.44-.79.87-1.35,1.1-.31.15-.45.19-.63.26-.18.07-.35.12-.51.17-.67.2-1.29.34-1.91.47-2.47.5-4.86.79-7.28,1.07-4.82.51-9.62.88-14.43,1.08-9.63.4-19.28.45-28.97.05-5.8-.25-11.71-.52-17.68-1.22-1.49-.18-2.99-.39-4.49-.67-1.5-.29-3-.61-4.55-1.21-.77-.32-1.56-.62-2.38-1.41-.2-.22-.42-.45-.54-.72-.15-.26-.28-.54-.33-.73-.16-.43-.27-.83-.35-1.22-.36-1.55-.56-3.04-.75-4.53-.74-6.54-1-13.05-1.14-19.57-.11-6.52-.05-13.04.41-19.57.16-2.09.35-4.19.66-6.29.16-1.05.35-2.1.59-3.16.28-1.07.53-2.1,1.14-3.23.2-.3.43-.59.7-.8.26-.22.5-.35.75-.5.5-.26.99-.47,1.47-.63.97-.33,1.94-.57,2.9-.77,1.93-.4,3.85-.64,5.77-.86,6.07-.65,12.15-.87,18.22-1.02,6.07-.14,12.12-.14,18.13-.12,9.35.06,18.51.09,27.78.56,2.05.12,4.03.2,6.16.49l.37.06c.13.02.23.03.44.08.18.05.36.09.54.13.17.07.33.13.49.21.59.39.97.99,1.2,1.6.35,1,.45,1.7.56,2.41.19,1.38.22,2.47.22,3.37-.03,1.8-.26,2.84-.65,3.66-.17.37-.37.87-.56,1.07-.33.32-.53-.24-.76-1.59-.24-1.34-.43-3.5-.9-6.1-.16-.91-.49-2.04-.61-1.98-.04-.05-.12-.05-.18-.06l-.48-.07c-.48-.06-.98-.11-1.49-.16-2.03-.17-4.12-.28-6.21-.37-4.2-.19-8.45-.31-12.73-.41-8.57-.19-17.26-.3-25.96-.14-5.79.11-11.59.29-17.35.69-2.88.21-5.75.47-8.55.88-1.4.21-2.79.46-4.09.79-.64.17-1.29.36-1.81.58-.14.05-.26.11-.37.17-.13.06-.22.11-.3.17-.22.13-.14.13-.18.13-.06.16-.2.39-.28.63l-.27.81c-.15.59-.31,1.18-.43,1.81h-.07Z"/><path class="cls-1" d="M53.12,114.03l-1.07-.04c-.53-.02-1.14-.05-1.69-.11-.55-.07-1.11-.12-1.54-.27-.44-.14-.73-.35-.95-.57-1.1-.96-.05-2.8,1.4-4.27l.81-.81c.25-.22.38-.35.58-.51.38-.31.78-.6,1.21-.85.76-.45,1.56-.81,2.48-1.08.91-.24,1.73-.32,2.55-.39.81-.06,1.6-.09,2.38-.12.73-.04,1.66-.07,2.49,0,1.5.13,2.94.52,4.29,1.08.87.35,1.72.78,2.47,1.36.38.29.73.61,1.06.97.33.35.55.81.76,1.25.22.58.02.56-.51.39-.26-.09-.63-.17-1.06-.24-.41-.09-.81-.23-1.21-.42-1.44-.65-2.95-1.21-4.5-1.42-.77-.12-1.52-.27-2.28-.28h-.58s-.68,0-.68,0h-1.34c-1.05.01-2.13.13-2.98.4-.83.28-1.7.83-2.49,1.41l-.65.5c-.09.07-.17.13-.26.21-.17.15-.35.31-.51.52-.08.1-.17.21-.2.34.05.11.19.1.29.14.22.05.47.09.73.12l.67.07,1.11.1c.74.07,1.49.09,2.23.12,2.26.07,4.54.14,6.78.07,1.75-.05,3.45-.27,5.17-.45.38-.04.75-.1,1.13-.13,1.41-.11,1.86.02,2.21.67.08.14.18.28.23.43.17.47-.38.98-1.43,1.18-3.1.62-6.39.77-9.69.81-2.45.05-4.91-.09-7.39-.1v-.07Z"/><path class="cls-1" d="M5.55,26.56c-.16.05-.22-.16-.25-.49,0-.11.07-.4.12-.44.1-.07.19-.14.29-.18.06-.02.86-.06,1.14-.1.27-.04.53-.02.78.01.52.05,1.03.11,1.54.21.11.02.22.06.32.12.35.21.73.3,1.13.34.07,0,.13.03.21-.03.13-.09,1.18.1,1.3.19.29.24.6.42.91.62.04.03.1.02.12.11.05.22.16.22.26.26.14.06.27.13.4.23.06.05.1.18.15.28.04.1-.06.37-.09.4-.09.08-.07.22-.09.35,0,.04-.02.09-.03.13-.02.07-.97.39-1.06.37-.02,0-1.23-.08-1.41-.09-.08,0-.13-.07-.2-.12-.03-.02-1.02-.13-1.06-.15-.19-.08-.41-.06-.56-.29-.03-.04-.07-.05-.11-.05-.34-.07-.67-.23-.99-.37-.17-.07-.35-.1-.52-.15-.03,0-.06-.04-.08-.06-.04-.03-.07-.06-.11-.07-.41-.12-.79-.34-1.21-.42-.1-.02-.5-.33-.61-.34-.06-.01-.21-.29-.27-.27Z"/><path class="cls-1" d="M20.15,26.18c.13.16-.06.35-.41.56-.11.07-.48.14-.54.1-.13-.08-.25-.17-.35-.26-.06-.05-.54-1.06-.71-1.41-.17-.34-.27-.69-.34-1.05-.16-.72-.28-1.46-.3-2.2,0-.16,0-.33.06-.49.17-.56.19-1.11.17-1.68,0-.09.02-.19-.07-.29-.16-.17,0-1.71.11-1.89.13-.23.25-.45.36-.68.13-.22.26-.43.4-.66.04-.06.02-.14.16-.17.31-.07.3-.22.37-.36.08-.19.19-.37.35-.54.09-.08.28-.12.42-.17.14-.05.47.12.5.16.09.12.28.11.43.15.05.01.12.03.16.05.11.06.5,1.3.48,1.4,0,0-.02.11-.03.26-.01.15-.02.35-.04.56-.03.41-.08.83-.07.92,0,.09-.08.17-.13.25-.04.04-.04,1.27-.05,1.31-.07.25,0,.5-.26.74-.05.05-.04.1-.05.15,0,.44-.13.87-.2,1.31-.04.23,0,.45-.02.68,0,.04-.03.08-.05.12-.02.05-.05.1-.05.16,0,.53-.12,1.09-.02,1.62.01.12-.15.75-.11.89.01.08-.23.39-.17.46Z"/><path class="cls-1" d="M6.03,36.7c-.05.14-.28.06-.56-.07-.09-.04-.29-.23-.3-.3-.01-.12-.03-.25-.03-.37,0-.03.05-.28.17-.52.11-.24.27-.47.35-.6.14-.25.34-.44.55-.62.43-.36.86-.72,1.34-1.02.1-.07.22-.12.35-.14.43-.09.81-.27,1.19-.47.06-.03.13-.05.17-.15.05-.18,1.16-.57,1.33-.54.4.03.79.09,1.17.16.05,0,.11-.02.17.07.14.2.25.16.36.18.16.01.31.05.47.11.08.03.16.14.24.21.07.07.05.34.03.37-.06.09,0,.21.01.32,0,.04,0,.09,0,.12-.02.05-.72.72-.78.77-.02,0-.98.44-1.13.51-.05.04-.13,0-.2-.01-.04-.02-.79.4-.82.42-.18.03-.3.17-.54.07-.05-.02-.08,0-.11.02-.27.14-.58.2-.88.3-.15.05-.28.15-.42.22-.03.01-.06,0-.1,0-.04,0-.08,0-.11.03-.31.21-.69.35-.94.63-.07.05-.5.19-.58.26-.04.04-.38-.04-.4.02Z"/></svg>