<svg width="1738" height="903" viewBox="0 0 1738 903" fill="none" xmlns="http://www.w3.org/2000/svg">
<path d="M338.357 741.084C273.338 741.084 224.259 692.845 224.259 629.085C224.259 565.324 273.338 517.085 338.357 517.085C392.469 517.085 435.675 551.062 445.323 599.721H407.151C398.342 571.197 371.495 551.901 338.357 551.901C294.312 551.901 261.593 585.04 261.593 629.085C261.593 673.129 294.312 706.268 338.357 706.268C371.495 706.268 398.342 686.972 407.151 658.448H445.323C435.675 707.107 392.469 741.084 338.357 741.084ZM459.772 736.051V434.028H495.847V555.676C512.626 530.927 539.472 517.085 573.03 517.085C625.045 517.085 659.862 551.482 659.862 603.916V736.051H623.787V615.242C623.787 577.07 599.457 551.901 561.285 551.901C521.854 551.901 495.847 577.489 495.847 616.081V736.051H459.772ZM780.281 741.084C719.037 741.084 673.315 692.845 673.315 629.085C673.315 565.324 719.037 517.085 780.281 517.085C815.936 517.085 845.299 533.864 863.337 560.71V522.118H899.412V736.051H863.337V697.459C845.299 724.305 815.936 741.084 780.281 741.084ZM786.992 706.268C830.618 706.268 863.337 673.129 863.337 629.085C863.337 585.04 830.618 551.901 786.992 551.901C742.947 551.901 710.228 585.04 710.228 629.085C710.228 673.129 742.947 706.268 786.992 706.268ZM927.222 736.051V522.118H963.297V551.062C978.817 529.249 1003.15 517.085 1033.35 517.085C1067.33 517.085 1093.75 533.444 1105.92 560.291C1121.44 532.605 1148.29 517.085 1183.52 517.085C1231.76 517.085 1263.64 548.965 1263.64 598.043V736.051H1227.57V608.111C1227.57 574.133 1205.75 551.901 1172.2 551.901C1136.96 551.901 1113.47 574.553 1113.47 608.95V736.051H1077.39V608.111C1077.39 574.133 1055.58 551.901 1022.02 551.901C986.787 551.901 963.297 574.553 963.297 608.95V736.051H927.222ZM1288.56 815.751V522.118H1324.64V560.71C1342.67 533.864 1372.04 517.085 1407.69 517.085C1468.94 517.085 1515.08 565.324 1515.08 629.085C1515.08 692.845 1468.94 741.084 1407.69 741.084C1372.04 741.084 1342.67 724.305 1324.64 697.459V815.751H1288.56ZM1400.98 706.268C1445.02 706.268 1477.74 673.129 1477.74 629.085C1477.74 585.04 1445.02 551.901 1400.98 551.901C1357.35 551.901 1324.64 585.04 1324.64 629.085C1324.64 673.129 1357.35 706.268 1400.98 706.268ZM1597.84 741.084C1547.92 741.084 1515.2 714.658 1515.2 675.227H1552.12C1552.12 695.362 1570.57 708.365 1598.26 708.365C1624.27 708.365 1641.46 696.201 1641.46 679.002C1641.46 632.86 1518.56 657.189 1518.56 581.684C1518.56 542.673 1549.6 517.085 1596.16 517.085C1643.98 517.085 1675.02 542.253 1675.02 580.425H1638.11C1638.11 561.968 1621.33 549.804 1595.74 549.804C1571.41 549.804 1555.47 561.129 1555.47 577.489C1555.47 622.373 1678.38 598.463 1678.38 675.227C1678.38 714.658 1646.5 741.084 1597.84 741.084Z" fill="#083825"/>
<path d="M58.9401 434L48.4532 405.056C65.6517 397.506 81.5917 387.858 96.2734 376.532C75.7191 340.876 68.1685 290.959 76.1386 234.33C86.6255 161.76 119.345 126.944 161.292 126.944C207.854 126.944 231.345 165.536 222.116 230.974C214.565 284.667 186.461 337.521 145.771 377.371C160.034 391.213 178.491 399.184 200.303 399.184H211.21L206.176 434H192.753C161.712 434 135.704 422.674 115.989 402.539C98.3708 415.543 79.0749 426.449 58.9401 434ZM113.891 234.749C107.599 280.052 112.213 319.903 126.056 348.846C157.097 314.449 178.91 271.663 185.202 227.199C191.075 185.671 181.007 161.76 159.195 161.76C138.221 161.76 120.603 186.509 113.891 234.749ZM336.374 439.034C275.131 439.034 229.408 390.794 229.408 327.034C229.408 263.273 275.131 215.034 336.374 215.034C372.029 215.034 401.393 231.813 419.43 258.659V220.067H455.505V434H419.43V395.408C401.393 422.255 372.029 439.034 336.374 439.034ZM343.086 404.217C386.711 404.217 419.43 371.079 419.43 327.034C419.43 282.989 386.711 249.85 343.086 249.85C299.041 249.85 266.322 282.989 266.322 327.034C266.322 371.079 299.041 404.217 343.086 404.217ZM563.854 439.034C513.937 439.034 480.379 405.476 480.379 354.719V220.067H516.453V344.232C516.453 380.307 539.525 404.217 575.18 404.217C612.513 404.217 637.682 379.888 637.682 343.393V220.067H673.757V434H637.682V402.959C621.322 426.03 596.154 439.034 563.854 439.034ZM701.278 434V220.067H737.353V260.757C753.713 233.071 780.559 216.712 814.117 216.712H820.829V254.045H814.117C766.297 254.045 737.353 282.569 737.353 326.614V434H701.278ZM915.057 439.034C849.199 439.034 800.121 390.794 800.121 327.034C800.121 263.273 849.199 215.034 913.798 215.034C978.817 215.034 1027.48 263.273 1027.48 327.034C1027.48 332.067 1027.06 337.521 1026.64 342.135H838.712C845.004 379.888 875.207 405.895 915.476 405.895C945.259 405.895 971.267 391.633 983.431 370.24H1023.7C1006.92 411.348 965.394 439.034 915.057 439.034ZM913.798 248.172C875.626 248.172 846.263 273.341 839.132 309.835H989.304C983.012 274.18 952.81 248.172 913.798 248.172ZM1040.12 434V220.067H1076.19V252.367C1092.97 228.457 1119.82 215.034 1153.38 215.034C1205.39 215.034 1240.21 249.431 1240.21 301.865V434H1204.13V313.191C1204.13 275.019 1179.8 249.85 1141.63 249.85C1102.2 249.85 1076.19 275.438 1076.19 314.03V434H1040.12Z" fill="#083825"/>
</svg>
