<svg width="113" height="113" viewBox="0 0 113 113" fill="none" xmlns="http://www.w3.org/2000/svg">
<path d="M18.7799 6.08385C18.8025 5.90872 18.8632 5.74068 18.9577 5.59152C19.0522 5.44235 19.1782 5.31567 19.3269 5.22038C19.4755 5.12508 19.6432 5.06348 19.8182 5.0399C19.9932 5.01631 20.1713 5.03131 20.3399 5.08385C23.5899 6.31385 17.7199 10.2038 18.7799 6.08385Z" stroke="#231F20" stroke-miterlimit="10"/>
<path d="M28.5201 8.98387C28.5446 8.81064 28.6061 8.64472 28.7004 8.49735C28.7947 8.34998 28.9196 8.22462 29.0666 8.12977C29.2137 8.03493 29.3794 7.97281 29.5525 7.94763C29.7256 7.92246 29.9022 7.93482 30.0701 7.98387C33.3301 9.21387 27.4601 13.1039 28.5201 8.98387Z" fill="#231F20"/>
<path d="M95.1499 98.6739C95.042 98.8112 94.9058 98.9237 94.7506 99.0038C94.5955 99.0839 94.4249 99.1298 94.2504 99.1384C94.076 99.1469 93.9018 99.1179 93.7395 99.0533C93.5772 98.9887 93.4307 98.89 93.3099 98.7638C91.0499 96.1038 98.0799 95.6139 95.1499 98.6739Z" stroke="#231F20" stroke-miterlimit="10"/>
<path d="M96.54 11.6339C96.6564 11.7634 96.7439 11.9161 96.7969 12.082C96.8498 12.2479 96.8669 12.4231 96.8471 12.5961C96.8272 12.7691 96.7709 12.9359 96.6817 13.0855C96.5926 13.2351 96.4727 13.3641 96.33 13.4639C93.35 15.2439 93.99 8.23385 96.54 11.6339Z" stroke="#231F20" stroke-miterlimit="10"/>
<path d="M83.8299 94.0738C83.7419 94.1821 83.6322 94.2709 83.5078 94.3343C83.3834 94.3977 83.2471 94.4343 83.1077 94.4419C82.9682 94.4494 82.8288 94.4277 82.6983 94.3781C82.5678 94.3284 82.4491 94.252 82.3499 94.1538C80.5699 92.0238 86.1499 91.6338 83.8299 94.0738Z" fill="#231F20"/>
<path d="M90.4002 15.4538C90.4918 15.5587 90.5605 15.6817 90.6019 15.8147C90.6432 15.9477 90.6563 16.088 90.6403 16.2264C90.6243 16.3648 90.5795 16.4983 90.5089 16.6184C90.4383 16.7385 90.3434 16.8425 90.2302 16.9238C87.8502 18.3438 88.3602 12.7338 90.4002 15.4538Z" fill="#231F20"/>
<path d="M35.09 19.1438C34.9837 17.674 35.1052 16.1966 35.45 14.7638C35.8158 13.3724 36.3462 12.0296 37.03 10.7638C38.4267 8.3113 40.284 6.15172 42.5 4.40382C44.0866 3.10023 45.8596 2.04181 47.76 1.26382C51.138 -0.00116467 54.7964 -0.324191 58.3438 0.329287C61.8913 0.982764 65.1944 2.58817 67.9 4.97382C70.3119 7.06235 72.0517 9.81812 72.9 12.8938C73.4055 14.8512 73.5979 16.8763 73.47 18.8938C73.4144 19.9147 73.2227 20.9237 72.9 21.8938C72.61 22.8938 72.25 23.7338 71.9 24.6138C71.53 25.7138 71.32 25.5538 71.18 24.4738C71.1183 22.8061 71.1617 21.1361 71.31 19.4738C71.3995 17.6532 71.2346 15.8289 70.82 14.0538C70.388 12.3397 69.6383 10.7217 68.61 9.28382C66.1921 5.9413 62.6412 3.59204 58.6193 2.67395C54.5974 1.75586 50.3788 2.33159 46.75 4.29382C44.5253 5.51349 42.5481 7.13802 40.92 9.08382C39.2616 10.9899 38.1035 13.2787 37.55 15.7438C37.2599 17.2533 37.2599 18.8043 37.55 20.3138C37.8101 21.8558 38.3024 23.3494 39.01 24.7438C40.0921 26.8368 41.7553 28.5729 43.8 29.7438C45.8958 30.9096 48.2051 31.6408 50.59 31.8938C54.3189 32.2098 58.073 32.0451 61.76 31.4038C62.17 31.4038 62.59 31.2938 63.03 31.2538C63.47 31.2138 64.43 31.1338 64.86 31.6538C64.9188 31.7087 64.9724 31.769 65.02 31.8338C65.44 32.4138 65.56 32.6338 65.74 32.9238C65.92 33.2138 66.06 33.4638 66.18 33.7038C66.3976 34.0976 66.5816 34.5091 66.73 34.9338C66.8369 35.2229 66.9009 35.5262 66.92 35.8338C66.9112 36.0788 66.8674 36.3212 66.79 36.5538C66.7486 36.7376 66.6848 36.9156 66.6 37.0838C66.39 37.3738 65.6 36.5238 64.38 34.6538L63.89 33.9438L63.64 33.5838C63.54 33.4538 63.56 33.5038 63.52 33.4538C63.48 33.4038 63.35 33.4538 63.28 33.4538L62.28 33.5838L59.93 33.9038C58.3041 34.113 56.6687 34.2399 55.03 34.2838C51.5776 34.4403 48.1283 33.9136 44.88 32.7338C42.0901 31.6775 39.6825 29.8064 37.97 27.3638C37.1173 26.1319 36.4439 24.7851 35.97 23.3638C35.7416 22.6782 35.5513 21.9805 35.4 21.2738C35.31 20.9238 35.26 20.5638 35.19 20.2138L35.06 19.1038L35.09 19.1438Z" fill="#231F20"/>
<path d="M28.2199 61.2838C26.1396 60.1701 23.8194 59.5797 21.4599 59.5638C19.066 59.537 16.6894 59.9716 14.4599 60.8438C12.818 61.5006 11.2683 62.3678 9.84987 63.4238C7.27798 65.1757 5.2728 67.6396 4.07987 70.5138C3.51981 71.9393 3.25118 73.4627 3.28987 74.9938C3.35383 76.5444 3.69242 78.0714 4.28987 79.5038C4.57849 80.1468 4.91267 80.7684 5.28987 81.3638C5.6252 81.9693 6.01694 82.5419 6.45987 83.0738C7.37356 84.1168 8.42683 85.0288 9.58987 85.7838C11.0977 86.7554 12.7334 87.5127 14.4499 88.0338C16.1644 88.5873 17.9416 88.9233 19.7399 89.0338C20.8599 89.0338 20.7399 89.3238 19.7999 89.7638C18.1352 90.4238 16.3141 90.5837 14.5599 90.2238C12.561 89.7789 10.6443 89.023 8.87987 87.9838C7.02378 86.9644 5.4102 85.5555 4.14987 83.8538C2.93488 82.1459 2.04035 80.2315 1.50987 78.2038C0.985352 76.1434 0.954517 73.9883 1.41987 71.9138C1.99216 69.4528 3.10583 67.1503 4.67987 65.1738C7.19026 62.0732 10.5297 59.7495 14.3094 58.473C18.0891 57.1966 22.1537 57.02 26.0299 57.9638C26.8394 58.1935 27.6314 58.4809 28.3999 58.8238C29.1608 59.1799 29.893 59.5944 30.5899 60.0638C31.9796 60.9948 33.2231 62.1272 34.2799 63.4238C35.9031 65.3548 37.0993 67.6075 37.7899 70.0338C38.1301 71.252 38.3116 72.5091 38.3299 73.7738C38.3148 75.0424 38.1161 76.3021 37.7399 77.5138C37.2682 79.3703 36.552 81.156 35.6099 82.8238C34.6445 84.4797 33.4341 85.98 32.0199 87.2738C31.7496 87.5306 31.4926 87.8009 31.2499 88.0838C31.1399 88.2238 31.0699 88.3238 31.0999 88.4738C31.1173 88.5359 31.1408 88.5962 31.1699 88.6538C31.2056 88.7603 31.2561 88.8613 31.3199 88.9538C31.4201 89.1307 31.541 89.2952 31.6799 89.4438C31.93 89.6885 32.1937 89.9189 32.4699 90.1338C32.7021 90.3014 32.9136 90.4961 33.0999 90.7138C33.2445 90.907 33.3622 91.1189 33.4499 91.3438C33.5281 91.5147 33.5787 91.697 33.5999 91.8838C33.5999 92.1038 33.3299 92.0638 32.8099 92.0338C32.4648 92.0149 32.126 91.9336 31.8099 91.7938C31.2595 91.5854 30.7488 91.2844 30.2999 90.9038C29.8828 90.5419 29.5427 90.0998 29.2999 89.6038C29.1456 89.2867 29.0346 88.9504 28.9699 88.6038C28.9203 88.2468 28.9581 87.883 29.0799 87.5438C29.2108 87.2034 29.4003 86.8887 29.6399 86.6138C29.8199 86.4138 29.9799 86.2238 30.1399 86.0738L31.0299 85.1738C32.138 84.0906 33.0904 82.8588 33.8599 81.5138C34.6387 80.1186 35.2368 78.63 35.6399 77.0838C35.7299 76.6938 35.8499 76.2838 35.9199 75.9038C35.9942 75.5371 36.0476 75.1665 36.0799 74.7938C36.1403 74.0338 36.1202 73.2695 36.0199 72.5138C35.667 70.1874 34.7693 67.9773 33.3999 66.0638C32.0727 64.1018 30.288 62.4921 28.1999 61.3738L28.2199 61.2838Z" fill="#231F20"/>
<path d="M85.81 43.3138C87.4015 44.1678 89.0771 44.8548 90.81 45.3638C91.99 45.7238 93.47 46.3638 94.73 46.0438C95.1447 45.97 95.5276 45.7732 95.829 45.479C96.1304 45.1847 96.3363 44.8066 96.42 44.3938C96.8528 42.421 97.1039 40.4126 97.17 38.3938C97.24 37.4838 95.05 37.8838 94.99 38.6538C94.9 39.8238 94.78 40.9938 94.62 42.1638C94.55 42.7038 94.48 43.2338 94.39 43.7638C94.33 44.1238 93.98 44.9238 94.39 44.7638C93.92 44.9938 91.98 44.1238 91.49 43.9638C90.1087 43.5093 88.7702 42.9337 87.49 42.2438C86.84 41.8938 84.85 42.8238 85.77 43.3238L85.81 43.3138Z" fill="#231F20"/>
<path d="M49.7601 90.2838C47.863 90.4541 46.0247 91.0305 44.3701 91.9738C43.3001 92.4838 40.9701 93.4638 40.9101 94.8938C40.8501 96.3238 42.7901 97.6238 43.7201 98.3538C44.7032 99.1387 45.7352 99.8601 46.8101 100.514C47.5701 100.974 50.0701 99.8038 49.5301 99.5138C47.7206 98.5166 46.0693 97.2562 44.6301 95.7738C43.7901 94.7738 43.5001 94.2138 44.6301 93.4338C45.7839 92.5421 47.1412 91.951 48.5801 91.7138C49.4701 91.7138 51.7101 90.3438 49.7801 90.3638L49.7601 90.2838Z" fill="#231F20"/>
<path d="M31.7401 36.8839C32.5902 35.2592 33.0458 33.4573 33.0701 31.6239C33.1701 30.2939 33.3101 28.5039 31.7601 28.0339C29.2201 27.2539 25.6801 29.1139 23.4401 30.1939C22.1901 30.7939 23.3001 31.9439 24.3501 31.4339C26.0801 30.6039 28.2501 29.4339 30.2101 29.4339C31.4801 29.4339 31.0701 31.1939 30.9801 32.1039C30.96 33.5323 30.6362 34.9402 30.0301 36.2339C29.3201 37.3139 31.2101 37.6639 31.7401 36.8639V36.8839Z" fill="#231F20"/>
<path d="M90.5202 50.8538C93.3203 50.7165 96.1194 51.145 98.7502 52.1138C101.391 53.0525 103.797 54.5538 105.8 56.5138C107.254 57.9557 108.433 59.65 109.28 61.5138C110.807 64.7157 111.495 68.253 111.28 71.7938C111.15 73.5709 110.706 75.3111 109.97 76.9338C109.219 78.547 108.155 79.995 106.84 81.1938C104.503 83.271 101.606 84.6136 98.5102 85.0538C94.5968 85.7073 90.5781 84.9715 87.1502 82.9738C86.1502 82.3238 86.4302 82.1738 87.4702 82.2838C88.5102 82.3938 90.3002 82.6938 92.3102 83.0138C95.8541 83.7043 99.5266 83.2198 102.77 81.6338C104.328 80.8337 105.693 79.7042 106.77 78.3238C107.85 76.9013 108.604 75.2594 108.98 73.5138C109.98 69.2638 108.6 64.4438 106.24 60.6538C104.836 58.6129 103.007 56.8996 100.879 55.631C98.7505 54.3625 96.3735 53.5686 93.9102 53.3038C90.8485 52.8544 87.7223 53.3025 84.9102 54.5938C82.8132 55.5856 81.0386 57.1488 79.7902 59.1038C78.576 61.1071 77.8053 63.3474 77.5302 65.6738C77.1002 69.2838 78.4302 72.6738 80.0602 75.9838L80.6102 77.0838L80.7502 77.6238V77.7638C80.6902 77.7638 80.8802 77.7638 80.6202 77.7638V77.8738L80.5702 78.1438C80.5389 78.3357 80.4559 78.5155 80.3302 78.6638L79.9702 79.1438C77.9702 81.6838 76.7402 82.1438 75.8602 81.9338C75.6615 81.9117 75.4685 81.8541 75.2902 81.7638C75.0902 81.6138 75.2402 81.3738 75.5602 80.9738C75.8802 80.5738 76.3702 79.9738 77.0702 79.1638C77.4102 78.7638 77.7402 78.3438 78.0702 77.9138L78.1902 77.7438V77.6838C78.1939 77.6505 78.1939 77.617 78.1902 77.5838C78.1902 77.5838 78.1902 77.5838 78.1902 77.5038L78.2802 77.5138C78.2002 77.4138 77.7802 76.5138 77.5002 75.9338C77.2202 75.3538 76.9002 74.6038 76.6302 73.9338C76.0532 72.5025 75.6438 71.0092 75.4102 69.4838C74.99 66.2999 75.4536 63.0619 76.7502 60.1238C77.8928 57.3932 79.83 55.0693 82.3102 53.4538C84.7762 51.9045 87.601 51.0192 90.5102 50.8838L90.5202 50.8538Z" fill="#231F20"/>
<path d="M19.93 52.7138C21.2521 44.7354 25.0721 37.3824 30.84 31.7138C31.33 31.2238 29.04 31.4938 28.61 31.9138C22.7594 37.6449 18.8707 45.0793 17.5 53.1538C17.41 53.6938 19.83 53.2938 19.93 52.7138Z" fill="#231F20"/>
<path d="M72.1498 93.3038C64.3643 96.6341 55.6607 97.1434 47.5398 94.7438C46.5398 94.4838 44.1298 95.8838 45.7698 96.3438C54.8824 98.9326 64.6102 98.2859 73.2999 94.5138C75.1499 93.7238 73.4698 92.7338 72.1498 93.2938V93.3038Z" fill="#231F20"/>
<path d="M76.4097 27.8439C82.7997 31.3339 87.9497 35.7638 91.3097 42.3138C91.6297 42.9438 93.7797 42.1838 93.5397 41.7238C90.1497 35.1138 84.9597 30.5738 78.5397 27.0438C77.9397 26.7138 76.0597 27.6239 76.4497 27.8439H76.4097Z" fill="#231F20"/>
<path d="M69.8499 95.1438C63.2044 97.6008 55.9525 97.8948 49.1299 95.9838C48.4199 95.7938 46.5699 96.8538 47.7999 97.1838C55.3638 99.2336 63.382 98.8417 70.7099 96.0638C72.1399 95.5538 70.8399 94.7838 69.8499 95.1438Z" fill="#231F20"/>
<path d="M18.7101 51.3238C20.4501 44.1038 24.6001 37.8638 29.7101 32.5438C30.0501 32.1938 28.4301 32.3838 28.1401 32.6938C23.0001 38.0538 18.7701 44.3438 17.0101 51.6338C16.9301 51.9838 18.6201 51.7538 18.7301 51.3238H18.7101Z" fill="#231F20"/>
<path d="M78.4001 27.8538C84.1901 31.0738 88.4001 35.8538 91.7201 41.5138C92.0201 42.0238 93.5101 41.5138 93.1401 40.8838C89.7201 35.1738 85.4601 30.3038 79.6001 27.0438C79.0901 26.7538 77.7001 27.4638 78.4001 27.8538Z" fill="#231F20"/>
<path d="M49.1497 1.07385C33.4397 5.07385 29.6697 20.0739 36.4497 29.2239C41.2497 35.7039 49.4497 36.2938 56.9197 35.5438L59.3197 33.4338C59.3197 33.4338 43.4797 35.7939 38.6097 25.6539C38.6097 25.6539 34.3397 20.2539 37.6097 12.5339C40.8797 4.81385 49.1497 1.07385 49.1497 1.07385Z" fill="#231F20"/>
<path d="M11.4299 59.6738C-0.850051 63.5138 -3.78005 79.5138 5.30995 87.4138C7.53371 89.5521 10.4583 90.81 13.5399 90.9538L16.4499 89.8738C16.4499 89.8738 6.26995 86.9538 4.36995 81.5638C2.46995 76.1738 0.749949 67.9238 11.4299 59.6738Z" fill="#231F20"/>
<path d="M107.45 59.6738C111.74 64.5638 113.96 73.0138 110.86 78.7638C107.92 84.2338 101.95 87.5238 94.3501 86.4638L91.3501 84.5138C91.3501 84.5138 99.9601 85.6538 104.93 81.7538C109.72 78.0338 112.96 72.4238 107.45 59.6738Z" fill="#231F20"/>
</svg>
