<svg width="48" height="48" viewBox="0 0 48 48" fill="none" xmlns="http://www.w3.org/2000/svg">
<g clip-path="url(#clip0_389_5)">
<path d="M19.5918 4.90282C21.6262 1.63554 26.3824 1.63553 28.4168 4.90281L28.5511 5.1184C29.7269 7.0068 31.9741 7.93762 34.1409 7.43377L34.3882 7.37625C38.1371 6.50451 41.5002 9.8676 40.6285 13.6165L40.5709 13.8638C40.0671 16.0306 40.9979 18.2778 42.8863 19.4537L43.1019 19.5879C46.3692 21.6223 46.3692 26.3785 43.1019 28.4129L42.8863 28.5472C40.9979 29.723 40.0671 31.9702 40.5709 34.137L40.6285 34.3843C41.5002 38.1332 38.1371 41.4963 34.3882 40.6246L34.1409 40.567C31.9741 40.0632 29.7269 40.994 28.5511 42.8824L28.4168 43.098C26.3824 46.3653 21.6262 46.3653 19.5918 43.098L19.4576 42.8824C18.2817 40.994 16.0345 40.0632 13.8677 40.567L13.6204 40.6246C9.87151 41.4963 6.50841 38.1332 7.38016 34.3843L7.43768 34.137C7.94152 31.9702 7.0107 29.723 5.1223 28.5472L4.90671 28.4129C1.63944 26.3785 1.63944 21.6223 4.90672 19.5879L5.12229 19.4537C7.0107 18.2778 7.94152 16.0306 7.43768 13.8638L7.38016 13.6165C6.50842 9.86761 9.87151 6.50451 13.6204 7.37625L13.8677 7.43377C16.0345 7.93762 18.2817 7.0068 19.4576 5.11839L19.5918 4.90282Z" fill="#BC492D"/>
<path d="M16.8771 35.0503L15.7578 31.7243C16.8771 31.2766 17.9645 30.701 18.9878 30.0294C17.5807 27.407 17.069 23.9211 17.6127 19.9555C18.4122 14.327 21.1625 11.6406 24.8083 11.6406C28.8058 11.6406 31.0125 14.6788 30.2449 19.8916C29.7013 23.6013 27.7825 27.2151 24.9042 30.0614C25.8316 30.701 26.887 31.0208 28.1342 31.0208H29.1256L28.55 35.0503H27.3347C24.9362 35.0503 22.8894 34.2828 21.2904 32.9396C19.9472 33.8351 18.4442 34.5386 16.8771 35.0503ZM21.962 20.0515C21.5783 22.6739 21.8021 25.0404 22.5057 26.8953C24.3605 24.7206 25.6078 22.1622 25.9916 19.4758C26.3114 17.0133 25.7677 15.6702 24.5844 15.6702C23.3692 15.6702 22.3778 17.0773 21.962 20.0515Z" fill="#FFE6E1"/>
</g>
<defs>
<clipPath id="clip0_389_5">
<rect width="48" height="48" fill="white"/>
</clipPath>
</defs>
</svg>
