<svg width="32" height="32" viewBox="0 0 32 32" fill="none" xmlns="http://www.w3.org/2000/svg">
<g clip-path="url(#clip0_294_324)">
<path d="M12.7877 2.09131C14.2695 -0.28852 17.7338 -0.28852 19.2157 2.09131L19.3135 2.24833C20.1699 3.62382 21.8068 4.30181 23.385 3.93482L23.5652 3.89292C26.2958 3.25796 28.7454 5.70758 28.1105 8.43821L28.0686 8.61838C27.7016 10.1966 28.3796 11.8334 29.755 12.6899L29.9121 12.7877C32.2919 14.2695 32.2919 17.7338 29.9121 19.2157L29.755 19.3135C28.3796 20.1699 27.7016 21.8068 28.0686 23.385L28.1105 23.5652C28.7454 26.2958 26.2958 28.7454 23.5652 28.1105L23.385 28.0686C21.8068 27.7016 20.1699 28.3796 19.3135 29.755L19.2157 29.9121C17.7338 32.2919 14.2695 32.2919 12.7877 29.9121L12.6899 29.755C11.8334 28.3796 10.1966 27.7016 8.61838 28.0686L8.43821 28.1105C5.70758 28.7454 3.25796 26.2958 3.89292 23.5652L3.93482 23.385C4.30181 21.8068 3.62382 20.1699 2.24834 19.3135L2.09131 19.2157C-0.28852 17.7338 -0.288521 14.2695 2.09131 12.7877L2.24833 12.6899C3.62382 11.8334 4.30181 10.1966 3.93482 8.61838L3.89292 8.43821C3.25796 5.70758 5.70758 3.25796 8.43821 3.89292L8.61838 3.93482C10.1966 4.30181 11.8334 3.62382 12.6899 2.24834L12.7877 2.09131Z" fill="#083825"/>
<path d="M10.8153 24.0512L10 21.6287C10.8153 21.3025 11.6073 20.8832 12.3527 20.3941C11.3278 18.484 10.9551 15.9449 11.3511 13.0564C11.9334 8.9567 13.9367 7 16.5922 7C19.504 7 21.1113 9.21293 20.5522 13.0099C20.1562 15.712 18.7586 18.3442 16.6621 20.4174C17.3376 20.8832 18.1063 21.1162 19.0148 21.1162H19.7369L19.3176 24.0512H18.4324C16.6854 24.0512 15.1946 23.4922 14.0299 22.5138C13.0515 23.1661 11.9567 23.6785 10.8153 24.0512ZM14.519 13.1263C14.2395 15.0364 14.4026 16.7602 14.915 18.1113C16.2661 16.5273 17.1746 14.6637 17.4541 12.707C17.687 10.9134 17.291 9.93505 16.4292 9.93505C15.544 9.93505 14.8219 10.96 14.519 13.1263Z" fill="#FFE5E0"/>
</g>
<defs>
<clipPath id="clip0_294_324">
<rect width="32" height="32" fill="white"/>
</clipPath>
</defs>
</svg>
