<svg width="2287" height="882" viewBox="0 0 2287 882" fill="none" xmlns="http://www.w3.org/2000/svg">
<path d="M348.099 113.303C380.628 61.0632 456.673 61.0633 489.201 113.303L491.347 116.75C510.148 146.943 546.078 161.826 580.721 153.77L584.676 152.85C644.616 138.912 698.388 192.684 684.45 252.624L683.53 256.579C675.475 291.223 690.357 327.153 720.55 345.953L723.997 348.099C776.237 380.628 776.237 456.673 723.997 489.201L720.551 491.347C690.357 510.148 675.475 546.078 683.53 580.721L684.45 584.676C698.388 644.616 644.616 698.388 584.676 684.45L580.721 683.53C546.078 675.475 510.148 690.357 491.347 720.55L489.201 723.997C456.673 776.237 380.628 776.237 348.099 723.997L345.953 720.551C327.153 690.357 291.223 675.475 256.579 683.53L252.624 684.45C192.684 698.388 138.912 644.616 152.85 584.676L153.77 580.721C161.826 546.078 146.943 510.148 116.75 491.347L113.303 489.201C61.0633 456.673 61.0632 380.628 113.303 348.099L116.75 345.953C146.943 327.153 161.826 291.223 153.77 256.579L152.85 252.624C138.912 192.684 192.684 138.912 252.624 152.85L256.579 153.77C291.223 161.826 327.153 146.943 345.953 116.75L348.099 113.303Z" fill="#FFE6E1"/>
<path d="M304.795 595.339L286.898 542.161C304.795 535.002 322.18 525.798 338.543 515.061C316.044 473.132 307.863 417.397 316.555 353.992C329.339 263.998 373.313 221.047 431.604 221.047C495.52 221.047 530.802 269.623 518.53 352.97C509.837 412.284 479.158 470.064 433.138 515.572C447.967 525.798 464.841 530.912 484.782 530.912H500.634L491.43 595.339H471.999C433.65 595.339 400.925 583.067 375.358 561.591C353.882 575.909 329.85 587.158 304.795 595.339ZM386.096 355.526C379.96 397.455 383.539 435.293 394.789 464.95C424.446 430.18 444.387 389.274 450.523 346.322C455.637 306.95 446.944 285.474 428.025 285.474C408.594 285.474 392.743 307.973 386.096 355.526Z" fill="#BC492D"/>
<path d="M1030.47 713.326C974.595 713.326 932.419 671.871 932.419 617.079C932.419 562.286 974.595 520.831 1030.47 520.831C1076.97 520.831 1114.1 550.03 1122.39 591.845H1089.59C1082.02 567.333 1058.95 550.751 1030.47 550.751C992.619 550.751 964.501 579.229 964.501 617.079C964.501 654.929 992.619 683.406 1030.47 683.406C1058.95 683.406 1082.02 666.824 1089.59 642.312H1122.39C1114.1 684.127 1076.97 713.326 1030.47 713.326ZM1134.81 709V449.457H1165.81V553.995C1180.23 532.727 1203.3 520.831 1232.14 520.831C1276.83 520.831 1306.75 550.39 1306.75 595.45V709H1275.75V605.183C1275.75 572.38 1254.85 550.751 1222.04 550.751C1188.16 550.751 1165.81 572.74 1165.81 605.904V709H1134.81ZM1410.24 713.326C1357.61 713.326 1318.31 671.871 1318.31 617.079C1318.31 562.286 1357.61 520.831 1410.24 520.831C1440.88 520.831 1466.11 535.25 1481.61 558.321V525.157H1512.61V709H1481.61V675.836C1466.11 698.907 1440.88 713.326 1410.24 713.326ZM1416 683.406C1453.49 683.406 1481.61 654.929 1481.61 617.079C1481.61 579.229 1453.49 550.751 1416 550.751C1378.15 550.751 1350.04 579.229 1350.04 617.079C1350.04 654.929 1378.15 683.406 1416 683.406ZM1536.51 709V525.157H1567.51V550.03C1580.85 531.285 1601.76 520.831 1627.71 520.831C1656.91 520.831 1679.62 534.89 1690.07 557.96C1703.41 534.169 1726.48 520.831 1756.76 520.831C1798.22 520.831 1825.61 548.228 1825.61 590.403V709H1794.61V599.055C1794.61 569.856 1775.87 550.751 1747.03 550.751C1716.75 550.751 1696.56 570.217 1696.56 599.776V709H1665.56V599.055C1665.56 569.856 1646.82 550.751 1617.98 550.751C1587.7 550.751 1567.51 570.217 1567.51 599.776V709H1536.51ZM1847.03 777.49V525.157H1878.03V558.321C1893.53 535.25 1918.76 520.831 1949.4 520.831C2002.03 520.831 2041.68 562.286 2041.68 617.079C2041.68 671.871 2002.03 713.326 1949.4 713.326C1918.76 713.326 1893.53 698.907 1878.03 675.836V777.49H1847.03ZM1943.63 683.406C1981.48 683.406 2009.6 654.929 2009.6 617.079C2009.6 579.229 1981.48 550.751 1943.63 550.751C1906.14 550.751 1878.03 579.229 1878.03 617.079C1878.03 654.929 1906.14 683.406 1943.63 683.406ZM2112.8 713.326C2069.91 713.326 2041.79 690.616 2041.79 656.731H2073.51C2073.51 674.034 2089.37 685.209 2113.16 685.209C2135.51 685.209 2150.29 674.755 2150.29 659.975C2150.29 620.323 2044.67 641.23 2044.67 576.345C2044.67 542.82 2071.35 520.831 2111.36 520.831C2152.46 520.831 2179.13 542.46 2179.13 575.263H2147.41C2147.41 559.402 2132.99 548.949 2111 548.949C2090.09 548.949 2076.4 558.681 2076.4 572.74C2076.4 611.311 2182.02 590.764 2182.02 656.731C2182.02 690.616 2154.62 713.326 2112.8 713.326Z" fill="#FFE6E1"/>
<path d="M1774.77 403.997V220.154H1805.77V247.911C1820.19 227.363 1843.26 215.828 1872.1 215.828C1916.8 215.828 1946.72 245.387 1946.72 290.447V403.997H1915.72V300.18C1915.72 267.376 1894.81 245.748 1862.01 245.748C1828.12 245.748 1805.77 267.737 1805.77 300.901V403.997H1774.77Z" fill="#FFE6E1"/>
<path d="M1667.3 408.322C1610.71 408.322 1568.53 366.868 1568.53 312.075C1568.53 257.283 1610.71 215.828 1666.22 215.828C1722.09 215.828 1763.91 257.283 1763.91 312.075C1763.91 316.401 1763.55 321.087 1763.19 325.052H1601.7C1607.1 357.495 1633.06 379.845 1667.66 379.845C1693.26 379.845 1715.61 367.589 1726.06 349.204H1760.67C1746.25 384.531 1710.56 408.322 1667.3 408.322ZM1666.22 244.306C1633.42 244.306 1608.18 265.934 1602.06 297.296H1731.11C1725.7 266.655 1699.74 244.306 1666.22 244.306Z" fill="#FFE6E1"/>
<path d="M1483.59 403.992V220.149H1514.59V255.116C1528.65 231.324 1551.72 217.266 1580.56 217.266H1586.33V249.348H1580.56C1539.47 249.348 1514.59 273.86 1514.59 311.71V403.992H1483.59Z" fill="#FFE6E1"/>
<path d="M1365.49 408.325C1322.6 408.325 1293.76 379.487 1293.76 335.869V220.156H1324.76V326.857C1324.76 357.858 1344.58 378.405 1375.23 378.405C1407.31 378.405 1428.94 357.498 1428.94 326.136V220.156H1459.94V403.999H1428.94V377.324C1414.88 397.15 1393.25 408.325 1365.49 408.325Z" fill="#FFE6E1"/>
<path d="M1170.01 408.322C1117.38 408.322 1078.09 366.868 1078.09 312.075C1078.09 257.283 1117.38 215.828 1170.01 215.828C1200.65 215.828 1225.88 230.247 1241.38 253.318V220.154H1272.38V403.997H1241.38V370.833C1225.88 393.903 1200.65 408.322 1170.01 408.322ZM1175.78 378.403C1213.26 378.403 1241.38 349.925 1241.38 312.075C1241.38 274.225 1213.26 245.748 1175.78 245.748C1137.92 245.748 1109.81 274.225 1109.81 312.075C1109.81 349.925 1137.92 378.403 1175.78 378.403Z" fill="#FFE6E1"/>
<path d="M927.54 407.598L918 380.5C935.285 372.912 956.245 358.883 971 347.5C950.343 311.666 936.814 263.838 944.824 206.925C955.364 133.991 988.247 99 1030.41 99C1077.2 99 1100.81 137.785 1091.53 203.552C1083.95 257.515 1052.39 311.95 1011.5 352C1025.83 365.912 1046.12 377 1068.04 377H1079L1075.51 407.598H1062.02C1030.83 407.598 1008.31 391.736 988.5 371.5C970.794 384.569 947.775 400.009 927.54 407.598ZM976.5 203.552C970.176 249.083 980.088 299.411 994 328.5C1025.2 293.93 1055.7 248.24 1062.02 203.552C1067.93 161.816 1052.33 128 1030.41 128C1009.33 128 983.245 155.07 976.5 203.552Z" fill="#FFE6E1"/>
</svg>
