<svg width="128" height="128" viewBox="0 0 128 128" fill="none" xmlns="http://www.w3.org/2000/svg">
<g clip-path="url(#clip0_186_8)">
<path d="M128 64C128 99.3462 99.3462 128 64 128C28.6538 128 0 99.3462 0 64C0 28.6538 28.6538 0 64 0C99.3462 0 128 28.6538 128 64Z" fill="#DFEEE8"/>
<path d="M22.7225 95.8V94.8253L23.8922 94.4354C26.2316 93.6555 27.4014 92.0309 27.4014 89.5615V37.411C27.4014 36.1113 27.1414 35.1365 26.6216 34.4867C26.1017 33.7718 25.1919 33.252 23.8922 32.927L22.625 32.6346V31.6598L40.4634 27.4683L41.6331 28.3456L41.2432 41.9924V75.3298C41.2432 77.7342 41.2432 80.1387 41.2432 82.5431C41.3082 84.8826 41.3407 87.222 41.3407 89.5615C41.3407 90.8612 41.6006 91.9334 42.1205 92.7782C42.6404 93.5581 43.5177 94.1429 44.7524 94.5328L46.0196 94.8253V95.8H22.7225ZM74.496 97.2622C70.077 97.2622 66.0479 96.3199 62.4088 94.4354C58.8346 92.4858 55.9752 89.6915 53.8307 86.0523C51.7512 82.3481 50.7115 77.8317 50.7115 72.5029C50.7115 67.2391 51.8487 62.7552 54.1232 59.051C56.4626 55.2819 59.5494 52.4225 63.3835 50.473C67.2826 48.4585 71.5392 47.4512 76.1531 47.4512C79.9222 47.4512 83.1065 48.0685 85.7059 49.3033C88.3053 50.538 90.2873 52.1626 91.652 54.1771C93.0167 56.1267 93.6991 58.1737 93.6991 60.3182C93.6991 62.1378 93.1467 63.5675 92.0419 64.6072C90.9372 65.582 89.5075 66.0694 87.7529 66.0694C85.8684 66.0694 84.3412 65.3871 83.1715 64.0224C82.0017 62.6577 81.3194 60.8706 81.1245 58.6611C81.0595 57.2314 81.092 56.0292 81.2219 55.0544C81.3519 54.0147 81.3519 52.9749 81.2219 51.9352C80.962 50.8304 80.5396 50.1156 79.9547 49.7906C79.4348 49.4007 78.6875 49.2058 77.7127 49.2058C73.7487 49.2058 70.6619 50.9279 68.4524 54.3721C66.3079 57.8163 65.2356 63.3075 65.2356 70.8458C65.2356 77.4093 66.4378 82.4456 68.8423 85.9548C71.3117 89.399 75.0808 91.1211 80.1497 91.1211C83.204 91.1211 85.6734 90.5688 87.558 89.464C89.4425 88.3593 91.2621 86.7021 93.0167 84.4927L93.9915 85.2725C92.3669 89.1066 89.8649 92.0634 86.4857 94.1429C83.1065 96.2225 79.1099 97.2622 74.496 97.2622Z" fill="#4D5D56"/>
<circle cx="106.24" cy="90.24" r="6.4" fill="#FB4214"/>
</g>
<defs>
<clipPath id="clip0_186_8">
<rect width="128" height="128" fill="white"/>
</clipPath>
</defs>
</svg>
