<svg width="148" height="148" viewBox="0 0 148 148" fill="none" xmlns="http://www.w3.org/2000/svg">
<g clip-path="url(#clip0_227_23)">
<rect width="148" height="148" fill="white"/>
<path d="M58.3834 65.393C56.5043 68.0301 55.2475 71.1201 54.721 74.3972C54.1946 77.6742 54.4142 81.0402 55.361 84.2054C56.0821 86.5117 57.1701 88.665 58.5763 90.5687C59.795 92.2879 61.2603 93.7863 62.9169 95.0074C64.5721 96.2645 66.4079 97.2193 68.3506 97.8336C72.297 99.1142 76.5139 99.0476 80.4238 97.6428C83.9212 96.3967 87.0053 94.0767 89.2979 90.9675C92.0983 86.9492 89.2979 90.9675 92.077 86.7246C92.1734 85.1815 95.8891 81.1093 96.9019 82.6177C97.3031 84.7488 97.0802 80.975 97.2276 82.337C97.3751 83.6991 97.3135 83.6708 96.9019 84.9683C95.2038 90.8656 91.5643 95.8895 86.6694 99.0928C81.7744 102.296 75.9621 103.458 70.328 102.359C66.9676 101.723 63.7693 100.33 60.9412 98.2715C58.1131 96.2132 55.7188 93.5354 53.9142 90.4126C51.993 86.9444 50.8891 83.0213 50.6989 78.9865C50.5434 74.9838 51.2649 70.9979 52.8049 67.3522C53.7992 65.1556 55.0646 63.1142 56.5668 61.2837C58.0929 59.4728 59.8525 57.9079 61.7915 56.6369C64.7252 54.7702 68.0076 53.632 71.4003 53.3051C74.7929 52.9782 78.2104 53.4708 81.4045 54.747C86.3695 56.6117 90.6584 60.1266 93.6545 64.7861L94.5869 66.3639C94.8602 66.9014 95.1174 67.4736 95.3907 68.0978C95.7371 69.7606 95.4152 70.0736 95.0442 70.607C94.7474 71.0338 94.8466 70.8801 94.5869 71.1906C94.3921 71.4426 94.0018 71.5904 93.7587 71.7877C93.2641 71.9816 93.1522 71.4564 92.8554 71.3497C91.3663 67.2845 88.8438 64.3839 85.5843 61.7865C82.3212 59.1497 78.4031 57.6223 74.3309 57.3998C71.3005 57.2909 68.2886 57.9501 65.5373 59.3244C62.7751 60.7449 60.3709 62.8622 58.5281 65.497L58.3834 65.393Z" fill="#2D4A3B"/>
<path d="M71.2316 68.1063V86.6786H80.632V88.5645H69.1743V68.1063H71.2316Z" fill="#2D4A3B"/>
<path d="M87.6231 20.2246C88.4527 20.4298 89.2674 20.6644 90.0822 20.9136L91.2821 21.2947H91.4155H91.5043L107.889 11.6632L124.688 25.5315L127.651 27.8917C125.744 32.4852 123.829 37.064 121.903 41.6281L121.014 43.7098L121.695 44.7507C122.095 45.381 122.48 46.0261 122.866 46.6711C123.251 47.3162 123.606 47.9612 123.962 48.6209L124.436 49.5445L124.569 49.8377L142.746 53.1068L146.109 78.0287L142.731 79.7879L135.428 83.6435L128.806 87.1619L128.717 87.675L128.495 88.7598C128.347 89.4733 128.184 90.1916 128.006 90.9148C127.828 91.6332 127.636 92.3808 127.428 93.0552L126.88 94.8584L126.776 95.1516L137.709 108.346L132.702 115.03C131.24 116.985 129.759 118.876 128.258 120.704C126.184 123.269 125.71 122.375 126.658 119.619C127.362 117.781 128.204 115.997 129.176 114.283C129.769 113.227 130.436 112.098 131.176 110.94L132.361 109.152L132.672 108.712L132.821 108.492L122.584 95.9725L123.369 93.7589L123.74 92.5714C123.962 91.8531 124.169 91.1054 124.362 90.4017C124.554 89.6981 124.732 88.9357 124.895 88.2174L125.132 87.1033L125.562 84.8603L135.058 79.9199L139.309 77.6329L141.442 76.5334L141.976 76.2695H142.094H142.213L140.035 58.5603L139.872 56.6252V55.9948H139.576H139.413L138.924 55.9069L136.702 55.5111L132.258 54.7194L122.243 52.9163L121.429 51.245L120.895 50.2481C120.555 49.6324 120.214 49.0167 119.844 48.4156C119.473 47.8146 119.118 47.2135 118.732 46.6271L118.066 45.6303L117.014 44.1643L120.969 34.7526L123.429 28.9766L107.592 15.9145L96.4819 22.4822L91.9191 25.1796L90.334 24.6226L89.3119 24.3L87.2675 23.7136L85.2084 23.2152L84.1566 22.9953L82.5271 22.6874L75.4756 10.1972C74.8238 9.02437 74.1572 7.86623 73.4905 6.69344L53.5213 9.34688C52.7657 13.9061 52.0399 18.4214 51.2992 22.9073C51.0918 24.2414 50.8696 25.5755 50.6622 26.8802L49.1808 27.5985L48.1586 28.1263C47.5068 28.4781 46.8698 28.8446 46.2476 29.2111C45.6254 29.5776 45.0032 29.9734 44.3958 30.3693L43.4774 30.9996L42.1293 31.9379L25.1821 26.8215L24.9895 27.0854L21.1971 32.1871C15.9826 38.9893 14.116 40.9831 12.2347 41.892C11.8393 42.1176 11.4225 42.3042 10.9903 42.449C9.90885 42.6543 11.568 39.5171 15.2567 34.4301C16.5159 32.6855 17.8047 30.941 19.0935 29.1671L21.0342 26.5137L23.9081 22.7168L41.596 28.1116L42.4997 27.5106C43.1515 27.0854 43.8181 26.6896 44.4847 26.2938C45.1514 25.898 45.8328 25.5021 46.5291 25.1356L47.492 24.6372C48.4401 18.6853 49.4178 12.6454 50.4548 6.59082V6.32694L75.4015 2.86719L84.8232 19.4622L85.6973 19.6382L87.6379 20.0926L87.6231 20.2246Z" fill="#2D4A3B"/>
<path d="M54.9438 129.295L53.8327 128.943H53.729L38.915 139.806L24.5455 128.078L19.242 123.797L23.5974 115.133L27.1379 108.243L26.2935 106.909C25.8491 106.176 25.4047 105.443 24.9751 104.71C24.5454 103.977 24.1307 103.244 23.7307 102.452L23.1381 101.309L22.9307 100.869L5.06504 97.0869L3.4355 85.2417C2.93183 81.6793 2.44296 78.117 1.9541 74.5839L12.472 68.4561L18.0273 65.1722L18.1014 64.6885L18.3236 63.5743C18.4717 62.8413 18.6347 62.1083 18.8272 61.3607C19.0198 60.613 19.2124 59.8947 19.4346 59.1763L19.8939 57.7103L17.1533 53.7375C16.1163 52.2715 15.0793 50.6589 14.0868 49.1049C12.6054 46.8033 13.4942 46.5394 15.4793 47.8588C16.8073 48.7743 18.0382 49.8205 19.1532 50.9814C19.8494 51.6704 20.6346 52.4474 21.3012 53.3123C22.36 54.5219 23.3492 55.7896 24.264 57.1093L23.7751 58.5753L23.3307 59.9093L23.0492 60.8329C22.8715 61.4486 22.6937 62.079 22.5456 62.6947C22.3974 63.3104 22.2345 63.9555 22.1011 64.5712L21.8937 65.612L21.5382 67.5911L12.472 72.7074L8.47226 74.9797L6.54644 76.1672L6.04277 76.4457C5.89463 76.5337 6.04277 76.4457 5.95388 76.4457C6.33905 79.3777 6.7094 82.3097 7.09456 85.2417L7.74637 90.4313C7.93896 91.9853 8.26487 94.5361 8.17598 94.1989H8.32412H8.41301H8.65003L10.6203 94.6241L14.5608 95.489L19.4198 96.5299L25.1973 97.7027L26.1157 99.5498L26.6787 100.62C27.0638 101.338 27.4786 102.086 27.8934 102.76C28.3082 103.435 28.7378 104.226 29.1822 104.871L29.8933 105.956L31.1081 107.715L24.4269 121.041L23.6122 122.61L39.0187 135.247L47.9071 128.708L53.092 124.882L55.0327 125.527L56.3215 125.938L58.9287 126.671L61.5656 127.33L62.8841 127.638L64.8247 128.019L67.7875 134.353L72.2317 143.984C78.024 143.251 88.0679 141.917 93.8305 141.052V140.935L96.4674 123.607L97.9488 122.815L98.971 122.273C99.608 121.921 100.245 121.554 100.867 121.173L102.719 120L103.637 119.37L105.119 118.315H105.252L111.548 120.191C118.57 122.375 120.718 123.314 121.918 124.692C122.216 124.972 122.484 125.281 122.718 125.615C123.162 126.524 120.125 126.187 114.926 124.75L105.8 122.405L105.682 122.537L104.748 123.167C104.111 123.592 103.445 124.017 102.778 124.428C102.112 124.838 101.43 125.219 100.749 125.601L99.7709 126.128V126.216L99.6376 127.169L99.2969 129.339C99.0747 130.805 98.8376 132.271 98.6154 133.737C98.0525 137.236 97.4846 140.754 96.9118 144.292L83.0904 146.198L70.0689 148.001L62.3508 131.289L61.3879 131.083L59.225 130.57C57.7436 130.204 56.3807 129.823 54.9734 129.397L54.9438 129.295Z" fill="#2D4A3B"/>
<path d="M25.5365 118.198L29.3907 110.082L30.7574 107.093L31.1401 106.268L31.2357 106.065V105.957L28.8303 100.682L28.4476 100.547L27.6686 100.412L26.0968 100.128C24.4021 99.8168 22.68 99.5598 20.9852 99.3299C18.7884 99.1069 16.6068 98.7546 14.4523 98.2749C13.0855 97.9233 15.1493 96.2732 17.6641 96.6384C19.6504 96.9359 21.6322 97.2605 23.6094 97.6122L26.5752 98.1667L28.0649 98.4643L28.803 98.613L30.1697 98.87L30.7301 100.033L31.0307 100.696C31.3724 101.467 31.7551 102.238 32.1378 103.009L33.5045 105.714L32.0694 108.919L28.2699 117.224L26.7529 120.443L27.5046 121.092C29.6503 122.931 31.7961 124.798 33.9692 126.583C35.664 127.936 37.3997 129.288 39.1218 130.546L40.2562 131.412C41.6229 132.521 41.9783 132.981 41.9236 133.643C41.9377 133.792 41.9377 133.941 41.9236 134.09C41.7733 134.509 40.9942 134.32 39.9145 133.576C36.7163 131.371 33.5592 128.801 30.4157 126.191L24.1697 121.011L25.5365 118.13V118.198Z" fill="#2D4A3B"/>
<path d="M9.42302 73.0229L16.4617 69.3576L18.9081 68.005L23.1587 65.8275C23.1587 65.8275 23.3364 65.8275 23.3227 65.6922L23.391 65.3135C23.5004 64.8942 23.6097 64.475 23.7327 64.0827C23.9787 63.2892 24.2521 62.5048 24.5528 61.7293L25.4138 59.4436L24.6484 58.6185C23.4016 57.2521 22.2465 55.8063 21.1906 54.2905C20.5619 53.3167 22.858 53.3708 24.1974 55.0073L25.6735 56.8197L27.5596 59.1866C27.0539 60.4174 26.5618 61.6482 26.0698 62.879C25.6711 63.8645 25.3289 64.8715 25.0448 65.8951C25.0448 66.125 24.9628 66.382 24.9218 66.6119C24.8808 66.8419 24.9218 66.896 24.8124 66.923L24.4707 67.0988L23.473 67.6263L21.9286 68.4514L18.8398 70.0744L12.0061 73.6586L10.4481 74.4701L10.6667 76.553C10.9538 78.9064 11.1998 81.2733 11.5278 83.6131C11.7875 85.4255 12.1428 87.1838 12.4572 89.0232L12.6758 90.1999C12.8945 91.6741 12.8398 92.1611 12.4025 92.5398C12.2932 92.6209 12.1975 92.7291 12.1018 92.7967C11.7465 92.9861 11.3501 92.418 11.1041 91.3495C10.3524 88.1846 9.87404 84.8033 9.42302 81.4085C9.11322 78.7846 8.78976 76.1607 8.45264 73.5368L9.36835 73.0364L9.42302 73.0229Z" fill="#2D4A3B"/>
<path d="M50.7947 27.1843L51.4234 24.1276C51.4918 23.7624 51.5191 23.3837 51.6011 23.0185C51.9018 21.666 52.2435 20.4082 52.5578 19.1097C52.7082 18.5417 52.8038 17.9466 52.8995 17.365C52.9577 16.5995 53.1472 15.8494 53.4599 15.1468C53.7059 14.7276 55.2503 15.769 55.059 16.567C54.7522 18.0501 54.3551 19.5135 53.8699 20.9492C53.6181 21.8372 53.4264 22.7409 53.2959 23.6542C53.1045 24.6686 52.8995 25.683 52.7082 26.7109L52.3665 28.5909L52.1615 29.9434C51.4845 30.2046 50.8307 30.5213 50.2071 30.8902C49.5981 31.2841 49.0303 31.7372 48.5123 32.2427L48.1706 32.5673C47.7196 32.946 47.5009 32.9731 47.0909 32.6755L46.8039 32.4862C46.7345 32.4194 46.6793 32.3395 46.6416 32.2512C46.6039 32.1629 46.5845 32.068 46.5845 31.9722C46.5845 31.8764 46.6039 31.7815 46.6416 31.6932C46.6793 31.605 46.7345 31.525 46.8039 31.4582C47.7465 30.3209 48.9259 29.3983 50.2617 28.7532L50.4804 28.645V28.4962V28.2257L50.6581 27.1031L50.7947 27.1843Z" fill="#2D4A3B"/>
<path d="M99.8049 123.606V122.984C100.065 122.795 100.297 122.673 100.57 122.497L100.953 122.267L101.158 122.132C101.404 121.97 101.677 121.767 101.937 121.564C102.456 121.131 102.962 120.671 103.468 120.211C103.973 119.751 104.206 119.4 104.588 119.007L105.217 118.372L105.627 117.912L106.133 117.357C107.5 117.601 107.951 117.736 108.661 117.912L110.698 118.439L113.281 119.143C114.464 119.374 115.572 119.89 116.506 120.644C116.807 120.928 116.506 121.226 115.932 121.429C115.435 121.686 114.856 121.74 114.32 121.577C112.406 120.779 110.219 120.225 108.046 119.508C107.768 119.417 107.485 119.34 107.199 119.278H106.967H106.816L106.324 119.846C106.051 120.157 105.778 120.468 105.49 120.752C104.417 121.916 103.221 122.964 101.923 123.877C101.828 123.958 101.65 123.877 101.65 124.025V125.865C101.65 127.325 101.404 128.773 101.199 130.206C101.021 131.329 100.926 132.438 100.639 133.547C100.585 133.799 100.516 134.047 100.434 134.291C100.133 135.184 99.8322 135.414 99.3402 135.373C99.2219 135.38 99.1032 135.38 98.9848 135.373C98.6158 135.265 98.4928 134.805 98.6432 134.21C99.0751 132.331 99.3991 130.43 99.6135 128.516C99.6135 127.785 99.7639 127.055 99.7912 126.311V125.189V123.538L99.8049 123.606Z" fill="#2D4A3B"/>
</g>
<defs>
<clipPath id="clip0_227_23">
<rect width="148" height="148" fill="white"/>
</clipPath>
</defs>
</svg>
